<svg xmlns="http://www.w3.org/2000/svg" width="147.126" height="36" viewBox="0 0 147.126 36">
  <g id="Group_13766" data-name="Group 13766" transform="translate(0 -4)">
    <g id="Group_10822" data-name="Group 10822" transform="translate(-137 -19)">
      <path id="Path_5264" data-name="Path 5264" d="M0,0H6.64L4.669,2.143a5.091,5.091,0,0,1-2.214.894A5.853,5.853,0,0,1,0,2.6Z" transform="translate(207.137 44.657)" fill="#fff"/>
      <g id="Group_13765" data-name="Group 13765">
        <g id="Group_10762" data-name="Group 10762" transform="translate(0 17.657)">
          <rect id="Rectangle_1013" data-name="Rectangle 1013" width="95.917" height="14.343" rx="3" transform="translate(137 27)" fill="#1b4541"/>
          <path id="Path_5262" data-name="Path 5262" d="M.2-4.225H1.47v3.7h.678v-3.7H3.421v-.621H.2ZM4.7-2.1a.757.757,0,0,1,.816-.784.655.655,0,0,1,.653.728V-.523H6.81V-2.192c0-.835-.433-1.324-1.186-1.324a1.053,1.053,0,0,0-.929.508V-5.047H4.049V-.523H4.7Zm5.767.1A1.43,1.43,0,0,0,8.993-3.516,1.46,1.46,0,0,0,7.488-2,1.476,1.476,0,0,0,8.993-.46a1.451,1.451,0,0,0,1.355-.753l-.527-.232a.9.9,0,0,1-.8.42.851.851,0,0,1-.9-.734h2.328C10.462-1.828,10.462-1.928,10.462-2ZM8.128-2.23a.826.826,0,0,1,.866-.722.8.8,0,0,1,.835.722ZM15.708-3.7a1.087,1.087,0,0,0-1.2-1.142H12.853V-.523h1.788a1.23,1.23,0,0,0,1.3-1.268,1.086,1.086,0,0,0-.791-1.035A.892.892,0,0,0,15.708-3.7Zm-2.184.634V-4.238h.916a.523.523,0,0,1,.577.558.545.545,0,0,1-.533.609Zm1.067.571a.685.685,0,0,1,.653.7.638.638,0,0,1-.634.665H13.524V-2.5Zm4.882.5A1.43,1.43,0,0,0,18-3.516,1.46,1.46,0,0,0,16.5-2,1.476,1.476,0,0,0,18-.46a1.451,1.451,0,0,0,1.355-.753l-.527-.232a.9.9,0,0,1-.8.42.851.851,0,0,1-.9-.734h2.328C19.473-1.828,19.473-1.928,19.473-2ZM17.138-2.23A.826.826,0,0,1,18-2.951a.8.8,0,0,1,.835.722Zm4.1.533c.22.05.408.151.408.345,0,.22-.226.351-.521.351-.345,0-.546-.169-.577-.42h-.6a1.042,1.042,0,0,0,1.123.96c.671,0,1.167-.32,1.167-.885a.863.863,0,0,0-.766-.853l-.452-.113c-.157-.044-.314-.107-.358-.226A.3.3,0,0,1,20.69-2.8a.527.527,0,0,1,.414-.163.385.385,0,0,1,.427.314h.615a.943.943,0,0,0-1.067-.866.99.99,0,0,0-1.048.772c-.044.477.182.784.809.954Zm2.585-2.868h-.646v1.111h-.527v.533h.527v2.4h.646v-2.4h.621v-.533h-.621ZM26.632-.523H29.3v-.609h-2V-2.342h1.694v-.609H27.3v-1.28h1.939v-.615h-2.6ZM31.113-1.7c.22.05.408.151.408.345,0,.22-.226.351-.521.351-.345,0-.546-.169-.577-.42h-.6a1.042,1.042,0,0,0,1.123.96c.671,0,1.167-.32,1.167-.885a.863.863,0,0,0-.766-.853L30.9-2.311c-.157-.044-.314-.107-.358-.226a.3.3,0,0,1,.025-.264.527.527,0,0,1,.414-.163.385.385,0,0,1,.427.314h.615a.943.943,0,0,0-1.067-.866.99.99,0,0,0-1.048.772c-.044.477.182.784.809.954Zm2.786,0c.22.05.408.151.408.345,0,.22-.226.351-.521.351-.345,0-.546-.169-.577-.42h-.6a1.042,1.042,0,0,0,1.123.96c.671,0,1.167-.32,1.167-.885a.863.863,0,0,0-.766-.853l-.452-.113c-.157-.044-.314-.107-.358-.226a.3.3,0,0,1,.025-.264.527.527,0,0,1,.414-.163.385.385,0,0,1,.427.314h.615a.943.943,0,0,0-1.067-.866.99.99,0,0,0-1.048.772c-.044.477.182.784.809.954ZM37.89-.523h.64v-2.93h-.64v.414a1.163,1.163,0,0,0-.985-.477,1.471,1.471,0,0,0-1.487,1.525A1.477,1.477,0,0,0,36.9-.46a1.169,1.169,0,0,0,.985-.483ZM36.083-2a.872.872,0,0,1,.9-.891.883.883,0,0,1,.9.891.874.874,0,0,1-.9.91A.888.888,0,0,1,36.083-2Zm6-1.456h-.69l-.822,2.008-.816-2.008h-.69L40.224-.661,39.59.908h.678Zm5.334,1.826-.74-2.629h-.521l-.74,2.629L44.384-4.846h-.715L45.131-.523h.558l.722-2.592.728,2.592H47.7L49.16-4.846h-.715Zm2.679.05c0-.778.232-1.33.784-1.33a.95.95,0,0,1,.433.1l.107-.6a1.035,1.035,0,0,0-.521-.113c-.37,0-.653.207-.8.734v-.671h-.646v2.93h.646Zm2.5-1.876h-.64v2.93h.64Zm-.753-1.186a.421.421,0,0,0,.433.408.408.408,0,0,0,.427-.408.408.408,0,0,0-.427-.408A.421.421,0,0,0,51.839-4.639Zm2.535.075h-.646v1.111H53.2v.533h.527v2.4h.646v-2.4H55v-.533h-.621Zm1.87,1.111H55.6v2.93h.64Zm-.753-1.186a.421.421,0,0,0,.433.408.408.408,0,0,0,.427-.408.408.408,0,0,0-.427-.408A.421.421,0,0,0,55.491-4.639Zm2.3,2.541a.706.706,0,0,1,.753-.784c.376,0,.615.257.615.728V-.523h.646V-2.23c0-.835-.408-1.286-1.117-1.286a1.037,1.037,0,0,0-.9.5v-.439h-.646v2.93h.646Zm5.164.113a.89.89,0,0,1-.9.9.867.867,0,0,1-.891-.9.878.878,0,0,1,.891-.9A.862.862,0,0,1,62.958-1.985ZM61.17-.153c-.119.05-.414.22-.533.27a1.5,1.5,0,0,0,1.355.822c.985,0,1.613-.546,1.613-1.9v-2.5h-.634v.433a1.136,1.136,0,0,0-.991-.5A1.477,1.477,0,0,0,60.5-1.979,1.461,1.461,0,0,0,61.979-.46a1.1,1.1,0,0,0,.991-.508v.151c0,.822-.383,1.155-.979,1.155A.943.943,0,0,1,61.17-.153Zm4.794-1.625A1.414,1.414,0,0,0,67.489-.46a1.359,1.359,0,0,0,1.475-1.161c.069-.627-.289-1.111-1.167-1.343l-.552-.144c-.515-.132-.577-.4-.577-.565a.676.676,0,0,1,.747-.6.663.663,0,0,1,.753.653h.665A1.281,1.281,0,0,0,67.426-4.9,1.319,1.319,0,0,0,66-3.66c0,.383.144.91,1.073,1.161l.546.138c.4.094.709.3.684.7a.726.726,0,0,1-.816.59.806.806,0,0,1-.86-.709ZM72.49-2a1.43,1.43,0,0,0-1.468-1.519A1.46,1.46,0,0,0,69.516-2,1.476,1.476,0,0,0,71.022-.46a1.451,1.451,0,0,0,1.355-.753l-.527-.232a.9.9,0,0,1-.8.42.851.851,0,0,1-.9-.734h2.328C72.49-1.828,72.49-1.928,72.49-2ZM70.156-2.23a.826.826,0,0,1,.866-.722.8.8,0,0,1,.835.722Zm3.665.653c0-.778.232-1.33.784-1.33a.95.95,0,0,1,.433.1l.107-.6a1.035,1.035,0,0,0-.521-.113c-.37,0-.653.207-.8.734v-.671h-.646v2.93h.646ZM76.531-.523h.6l1.224-2.93h-.69l-.828,2.108-.841-2.108h-.684Zm2.993-2.93h-.64v2.93h.64Zm-.753-1.186a.421.421,0,0,0,.433.408.408.408,0,0,0,.427-.408.408.408,0,0,0-.427-.408A.421.421,0,0,0,78.771-4.639ZM80.239-2A1.514,1.514,0,0,0,81.8-.46a1.5,1.5,0,0,0,1.167-.515l-.508-.4a.872.872,0,0,1-.659.289A.906.906,0,0,1,80.879-2a.886.886,0,0,1,.922-.891.867.867,0,0,1,.659.282l.5-.4A1.49,1.49,0,0,0,81.8-3.516,1.5,1.5,0,0,0,80.239-2Zm6.137,0a1.43,1.43,0,0,0-1.468-1.519A1.46,1.46,0,0,0,83.4-2,1.476,1.476,0,0,0,84.908-.46a1.451,1.451,0,0,0,1.355-.753l-.527-.232a.9.9,0,0,1-.8.42.851.851,0,0,1-.9-.734H86.37C86.376-1.828,86.376-1.928,86.376-2ZM84.042-2.23a.826.826,0,0,1,.866-.722.8.8,0,0,1,.835.722Z" transform="translate(141.462 36.636)" fill="#fff"/>
        </g>
        <path id="Path_5263" data-name="Path 5263" d="M13.2-19.05a3.772,3.772,0,0,1,2.784.957,3.194,3.194,0,0,1,.957,2.349,4.591,4.591,0,0,1-1.32,3.176,3.744,3.744,0,0,1-2.712,1.436,1.466,1.466,0,0,1-.856-.232.632.632,0,0,1-.334-.493.355.355,0,0,1,.2-.319Q14.3-14.729,14.3-16.15q0-.783-.87-.783a6.068,6.068,0,0,0-3.6,1.827,17.779,17.779,0,0,0-3.7,4.525A9.854,9.854,0,0,0,4.557-5.708a3.2,3.2,0,0,0,.667,2.146,2.307,2.307,0,0,0,1.856.783,4.934,4.934,0,0,0,2.973-1.16A11.044,11.044,0,0,0,12.62-6.695a.206.206,0,0,1,.2-.145q.493,0,.493.957A5.26,5.26,0,0,1,11.1-2.011a7.49,7.49,0,0,1-5,1.9A5,5,0,0,1,2.4-1.518,5.115,5.115,0,0,1,.99-5.3a12.15,12.15,0,0,1,1.871-6.018A18.72,18.72,0,0,1,7.632-16.8,9.21,9.21,0,0,1,13.2-19.05ZM16.71-.749q0,.29-.319.29a2.063,2.063,0,0,1-1.32-.711,2.21,2.21,0,0,1-.74-1.639q0-1.711,1.958-5.627a52.887,52.887,0,0,1,4.249-7.12q2.291-3.2,3.161-3.2a1.831,1.831,0,0,1,1.218.551,1.482,1.482,0,0,1,.609.986.305.305,0,0,1-.116.261,37.2,37.2,0,0,0-5.293,7.7A31.191,31.191,0,0,0,16.71-.749ZM32.72-13.307a1.917,1.917,0,0,1,1.233.58q.653.58.653.928a.361.361,0,0,1-.116.261,26.844,26.844,0,0,0-3.176,5.424A14.375,14.375,0,0,0,29.645-.836q0,.29-.319.29a2.063,2.063,0,0,1-1.32-.711,2.21,2.21,0,0,1-.74-1.639,8.6,8.6,0,0,1,.725-2.784Q24.541-.633,22.046-.633q-2.146,0-2.146-2.32a9.649,9.649,0,0,1,1.32-4.379,14.681,14.681,0,0,1,3.553-4.379A6.89,6.89,0,0,1,29.181-13.6a1.722,1.722,0,0,1,1.943,1.8Q32.314-13.307,32.72-13.307ZM23.758-3.359q1.16,0,5.917-6.381l.551-.812a1.376,1.376,0,0,0,.029-.319,1.1,1.1,0,0,0-.261-.74.736.736,0,0,0-.551-.3q-.986,0-2.48,1.639a17.816,17.816,0,0,0-2.538,3.582,7.117,7.117,0,0,0-1.044,2.842Q23.381-3.359,23.758-3.359ZM42-11.973a3.93,3.93,0,0,0-2.248.943A2.551,2.551,0,0,0,38.491-9.1a1.712,1.712,0,0,0,.566,1.189A7.246,7.246,0,0,0,40.289-6.9a5.131,5.131,0,0,1,1.233,1.16,2.5,2.5,0,0,1,.566,1.566,3.167,3.167,0,0,1-1.523,2.625A6.049,6.049,0,0,1,36.954-.459a5.282,5.282,0,0,1-3.277-.986,2.908,2.908,0,0,1-1.305-2.378,2.662,2.662,0,0,1,.667-1.827A1.793,1.793,0,0,1,34.257-6.4q.319,0,.319.29A3.484,3.484,0,0,0,35.707-3.62a3.365,3.365,0,0,0,2.378,1.073,1.563,1.563,0,0,0,.957-.261.775.775,0,0,0,.348-.638,1.571,1.571,0,0,0-.624-1.044,10.26,10.26,0,0,0-1.378-1.073A5.43,5.43,0,0,1,36.011-6.9a2.888,2.888,0,0,1-.624-1.74,4.4,4.4,0,0,1,1.958-3.437,6.894,6.894,0,0,1,4.394-1.552,3.359,3.359,0,0,1,2.306.711,2.116,2.116,0,0,1,.8,1.61,2.943,2.943,0,0,1-.943,2.03,2.751,2.751,0,0,1-1.987.986,1.6,1.6,0,0,1-.725-.16q-.319-.16-.319-.363,0-.058.145-.2a7.446,7.446,0,0,0,.856-1.16,2.812,2.812,0,0,0,.537-1.421Q42.407-11.973,42-11.973Zm10.818,0a3.93,3.93,0,0,0-2.248.943A2.551,2.551,0,0,0,49.309-9.1a1.712,1.712,0,0,0,.566,1.189A7.246,7.246,0,0,0,51.108-6.9a5.131,5.131,0,0,1,1.233,1.16,2.5,2.5,0,0,1,.566,1.566,3.167,3.167,0,0,1-1.523,2.625A6.049,6.049,0,0,1,47.772-.459a5.282,5.282,0,0,1-3.277-.986A2.908,2.908,0,0,1,43.19-3.823a2.662,2.662,0,0,1,.667-1.827A1.793,1.793,0,0,1,45.075-6.4q.319,0,.319.29A3.484,3.484,0,0,0,46.525-3.62,3.365,3.365,0,0,0,48.9-2.547a1.563,1.563,0,0,0,.957-.261.775.775,0,0,0,.348-.638,1.571,1.571,0,0,0-.624-1.044,10.26,10.26,0,0,0-1.378-1.073A5.43,5.43,0,0,1,46.83-6.9a2.888,2.888,0,0,1-.624-1.74,4.4,4.4,0,0,1,1.958-3.437,6.894,6.894,0,0,1,4.394-1.552,3.359,3.359,0,0,1,2.306.711,2.116,2.116,0,0,1,.8,1.61,2.943,2.943,0,0,1-.943,2.03,2.751,2.751,0,0,1-1.987.986,1.6,1.6,0,0,1-.725-.16q-.319-.16-.319-.363,0-.058.145-.2a7.446,7.446,0,0,0,.856-1.16,2.812,2.812,0,0,0,.537-1.421Q53.225-11.973,52.819-11.973Zm17.4-1.6a2.517,2.517,0,0,1,2.1.943,3.806,3.806,0,0,1,.74,2.422,8.65,8.65,0,0,1-1.276,4.162,13.126,13.126,0,0,1-3.379,3.93A6.722,6.722,0,0,1,64.275-.459,3.419,3.419,0,0,1,61.723-1.4a3.5,3.5,0,0,1-.928-2.567,7.994,7.994,0,0,1,1.32-4.118,12.8,12.8,0,0,1,3.132-3.567,5.59,5.59,0,0,1,3.263-1.392h.029A2.647,2.647,0,0,1,70.221-13.568ZM65.029-2.547q.783,0,1.987-1.421a15.137,15.137,0,0,0,2.117-3.364,8.05,8.05,0,0,0,.914-3.277q0-1.131-.638-1.247a9.349,9.349,0,0,0-3.466,3.582,9.708,9.708,0,0,0-1.726,4.539Q64.217-2.547,65.029-2.547Zm17.6-16.213a1.781,1.781,0,0,1,1.2.551,1.489,1.489,0,0,1,.595.986.305.305,0,0,1-.116.261,16.367,16.367,0,0,0-3.915,4.67q.377-.029,1.044-.029a4.48,4.48,0,0,1,1.276.116q.609.232.609,1.479a1.151,1.151,0,0,1-.1.537.214.214,0,0,1-.276.131,9.238,9.238,0,0,0-1.479-.087q-.232,0-.8.015t-.856.015a9.574,9.574,0,0,1,.348,2.639,17.382,17.382,0,0,1-1.044,5.743,15.648,15.648,0,0,1-2.8,5.047,4.856,4.856,0,0,1-3.582,2.059,1.849,1.849,0,0,1-1.566-.682,2.9,2.9,0,0,1-.522-1.813,16.736,16.736,0,0,1,1.508-5.743,63.372,63.372,0,0,1,3.712-7.57,1.269,1.269,0,0,1-.29-.783.641.641,0,0,1,.609-.667l.58-.087a41.987,41.987,0,0,1,3.437-4.9Q81.793-18.76,82.634-18.76ZM74.02,2.876q.9,0,2-2.132a24.539,24.539,0,0,0,1.856-4.974,19.409,19.409,0,0,0,.754-4.844V-9.3a69.636,69.636,0,0,0-3.466,7.048,15.646,15.646,0,0,0-1.465,4.7Q73.7,2.876,74.02,2.876Z" transform="translate(136.426 42.466)" fill="#1b4541" stroke="#f5fffe" stroke-width="0.5"/>
        <path id="Union_10" data-name="Union 10" d="M37.007,19.563a2.782,2.782,0,0,1-.491-1.717c0-.57.276-1.634,2.54-4.329a1.423,1.423,0,0,1-1.09-1.558,3.061,3.061,0,0,1,.1-.758,3.157,3.157,0,0,1,.219-.617.645.645,0,0,1,.561-.433h3.276a80.427,80.427,0,0,1,7.646-6.929C53.419.334,54.7,0,55.349,0a3.6,3.6,0,0,1,2.316,1.015,2.76,2.76,0,0,1,1.2,1.924.88.88,0,0,1-.226.631,41.3,41.3,0,0,0-4.825,7.542A30.085,30.085,0,0,0,50.6,19.049a.687.687,0,0,1-.762.665,2.37,2.37,0,0,1-1.6-.83,2.643,2.643,0,0,1-.848-1.937,10.613,10.613,0,0,1,1.045-3.791c-.713.031-2.122.1-4.789.226a35.338,35.338,0,0,0-4.771,6.3.663.663,0,0,1-.7.581A1.487,1.487,0,0,1,37.007,19.563Zm9.75-9.383h3.061a61.763,61.763,0,0,1,3.407-5.808A82.65,82.65,0,0,0,46.757,10.18Zm-21.4,8.826a3.02,3.02,0,0,1-1-1.105,9.166,9.166,0,0,0-.394,1.174l0,.022a.8.8,0,0,1-.805.588,2.191,2.191,0,0,1-1.568-.846,2.905,2.905,0,0,1-.762-2.036c0-1.11.914-3.2,2.8-6.389A47.368,47.368,0,0,1,27.639,4.5c-1.224.423-2.57.951-4.02,1.572a57.833,57.833,0,0,0-3.264,5.964c-2.249,4.648-2.773,6.363-2.816,6.983a.682.682,0,0,1-.735.691,2.33,2.33,0,0,1-1.586-.832,2.67,2.67,0,0,1-.833-1.935c0-1.036.568-2.777,1.735-5.322.559-1.215,1.142-2.388,1.751-3.5a60.181,60.181,0,0,0-7.807,10.539.742.742,0,0,1-.8.532,2.38,2.38,0,0,1-1.541-.715A2.21,2.21,0,0,1,6.9,16.8a21.647,21.647,0,0,1,1.163-5.226c.468-1.529.921-2.916,1.351-4.148A47.292,47.292,0,0,0,2.106,19.072a.631.631,0,0,1-.645.612,1.3,1.3,0,0,1-1.045-.726A3.081,3.081,0,0,1,0,17.267c0-.955.787-2.76,2.407-5.518a57.785,57.785,0,0,1,5.361-7.64C9.881,1.563,11.388.377,12.512.377a2.991,2.991,0,0,1,1.837.711c.692.543.937,1.081.724,1.6-1.16,2.973-2.052,5.521-2.667,7.614,2.5-3.04,4.581-5.447,6.212-7.169C20.615,1.024,22.108,0,23.185,0a2.151,2.151,0,0,1,1.731,1.073,5.007,5.007,0,0,1,.439.74A19.021,19.021,0,0,1,28.621.68,20.356,20.356,0,0,1,33.569,0a6.835,6.835,0,0,1,4.285,1.275,4.071,4.071,0,0,1,1.7,3.346A4.656,4.656,0,0,1,37.7,8.335,11.1,11.1,0,0,1,34.2,10.218,3.769,3.769,0,0,1,35.928,13.5a5.625,5.625,0,0,1-2.339,4.277,8.105,8.105,0,0,1-5.357,1.94A5.139,5.139,0,0,1,25.361,19.006Zm2.093-7.169c-.715,1.258-1.287,2.3-1.706,3.095,0,.572.2,1.222,1.642,1.222a5.473,5.473,0,0,0,3.357-1.233,3.218,3.218,0,0,0,1.563-2.352c0-.257,0-1.034-2.165-1.034A14.815,14.815,0,0,0,27.454,11.837ZM32.467,3.3a1.2,1.2,0,0,1,.154.569.808.808,0,0,1-.224.57A41.384,41.384,0,0,0,29.375,8.7a21.61,21.61,0,0,0,2.482-.758,10.776,10.776,0,0,0,2.959-1.663,2.63,2.63,0,0,0,1.208-1.949c0-.309,0-1.122-2.135-1.122A11.287,11.287,0,0,0,32.467,3.3Z" transform="translate(225.257 23)" fill="#ff7a07"/>
      </g>
      <path id="Path_5224_-_Outline" data-name="Path 5224 - Outline" d="M13.117-19.55A4.183,4.183,0,0,1,16.2-18.471a3.611,3.611,0,0,1,1.079,2.644,5.014,5.014,0,0,1-1.429,3.458,4.152,4.152,0,0,1-3.018,1.57,1.877,1.877,0,0,1-1.093-.307,1.019,1.019,0,0,1-.512-.835.755.755,0,0,1,.352-.643c1.841-1.985,2.229-3.08,2.229-3.65,0-.222-.032-.367-.454-.367a5.739,5.739,0,0,0-3.324,1.726,17.446,17.446,0,0,0-3.611,4.42A9.5,9.5,0,0,0,4.89-5.792a2.821,2.821,0,0,0,.568,1.876A1.9,1.9,0,0,0,7-3.279,4.556,4.556,0,0,0,9.718-4.354,10.68,10.68,0,0,0,12.17-6.979a.616.616,0,0,1,.569-.361c.34,0,.909.178.909,1.373a5.669,5.669,0,0,1-2.364,4.188,7.928,7.928,0,0,1-5.274,2A5.423,5.423,0,0,1,2.019-1.307,5.537,5.537,0,0,1,.49-5.386a12.61,12.61,0,0,1,1.927-6.227,19.221,19.221,0,0,1,4.876-5.6A9.65,9.65,0,0,1,13.117-19.55Zm-.29,7.918a3.371,3.371,0,0,0,2.405-1.3,4.153,4.153,0,0,0,1.21-2.894,2.769,2.769,0,0,0-.835-2.055,3.4,3.4,0,0,0-2.49-.835A8.854,8.854,0,0,0,7.8-16.557,18.392,18.392,0,0,0,3.137-11.2a11.8,11.8,0,0,0-1.815,5.81A4.676,4.676,0,0,0,2.607-1.9a4.562,4.562,0,0,0,3.4,1.285,7.117,7.117,0,0,0,4.732-1.8,4.9,4.9,0,0,0,2.073-3.556,1.782,1.782,0,0,0-.04-.422,11.511,11.511,0,0,1-2.555,2.7A5.358,5.358,0,0,1,7-2.447a2.715,2.715,0,0,1-2.173-.929,3.618,3.618,0,0,1-.766-2.416A10.3,10.3,0,0,1,5.7-10.875,18.276,18.276,0,0,1,9.48-15.5c1.5-1.3,2.769-1.928,3.868-1.928a1.144,1.144,0,0,1,1.286,1.2c0,1.067-.814,2.459-2.49,4.257l-.043.046-.031.018a.617.617,0,0,0,.138.123A1.071,1.071,0,0,0,12.827-11.632ZM23.616-19.26a2.237,2.237,0,0,1,1.5.659,1.833,1.833,0,0,1,.746,1.295.725.725,0,0,1-.249.567A37.065,37.065,0,0,0,20.4-9.146a31.05,31.05,0,0,0-3.358,8.36.681.681,0,0,1-.734.659A2.416,2.416,0,0,1,14.7-.953a2.621,2.621,0,0,1-.867-1.939c0-1.218.655-3.119,2-5.813a53.553,53.553,0,0,1,4.283-7.176C22.245-18.859,23.08-19.26,23.616-19.26Zm1.409,1.928c-.011-.093-.085-.3-.471-.652a1.445,1.445,0,0,0-.939-.443c-.027,0-.28.019-.929.677A20.433,20.433,0,0,0,20.793-15.4a52.718,52.718,0,0,0-4.215,7.064c-1.27,2.54-1.914,4.37-1.914,5.44a1.8,1.8,0,0,0,.612,1.338,1.873,1.873,0,0,0,.952.589,31.9,31.9,0,0,1,3.441-8.58,37.779,37.779,0,0,1,5.356-7.787ZM82.55-19.26a2.187,2.187,0,0,1,1.487.662,1.842,1.842,0,0,1,.728,1.291.721.721,0,0,1-.283.594l-.023.016a14.3,14.3,0,0,0-3.353,3.876h.255a4.268,4.268,0,0,1,1.418.141l.006,0c.582.222.877.85.877,1.868a1.531,1.531,0,0,1-.151.734.639.639,0,0,1-.564.363.652.652,0,0,1-.173-.024,9.164,9.164,0,0,0-1.384-.077c-.15,0-.415,0-.787.014l-.334.008a10.379,10.379,0,0,1,.232,2.23,17.876,17.876,0,0,1-1.067,5.88A16.133,16.133,0,0,1,76.559,3.5,5.263,5.263,0,0,1,72.66,5.7a2.252,2.252,0,0,1-1.9-.845,3.319,3.319,0,0,1-.608-2.066,16.938,16.938,0,0,1,1.539-5.9,63.821,63.821,0,0,1,3.61-7.4,1.6,1.6,0,0,1-.218-.8,1.051,1.051,0,0,1,.947-1.076l.016,0,.389-.058a42,42,0,0,1,3.371-4.786C80.973-18.614,81.844-19.26,82.55-19.26Zm1.379,1.916c-.015-.1-.1-.308-.458-.643a1.394,1.394,0,0,0-.921-.44c-.195,0-.789.169-2.1,1.736a41.779,41.779,0,0,0-3.4,4.852l-.1.165-.763.114c-.263.052-.263.151-.263.257a.859.859,0,0,0,.2.529l.169.22-.138.241a63.25,63.25,0,0,0-3.688,7.52,16.453,16.453,0,0,0-1.478,5.586,2.518,2.518,0,0,0,.436,1.56,1.445,1.445,0,0,0,1.236.518,4.494,4.494,0,0,0,3.265-1.913,15.308,15.308,0,0,0,2.723-4.914,17.048,17.048,0,0,0,1.021-5.605,9.2,9.2,0,0,0-.332-2.525l-.152-.531h.552c.189,0,.473,0,.845-.014s.649-.015.808-.015a10.662,10.662,0,0,1,1.421.073,1.225,1.225,0,0,0,.019-.236c0-.358-.044-.973-.338-1.089a4.034,4.034,0,0,0-1.131-.09c-.432,0-.773.009-1.012.028l-.835.064.453-.7A17.025,17.025,0,0,1,83.929-17.344ZM41.656-14.126a3.769,3.769,0,0,1,2.583.816,2.524,2.524,0,0,1,.937,1.92,3.354,3.354,0,0,1-1.058,2.318A3.159,3.159,0,0,1,41.83-7.957a2.018,2.018,0,0,1-.911-.2.824.824,0,0,1-.549-.735.726.726,0,0,1,.267-.5,6.849,6.849,0,0,0,.8-1.09,2.5,2.5,0,0,0,.47-1.158,3.584,3.584,0,0,0-1.987.86,2.192,2.192,0,0,0-1.095,1.6,1.309,1.309,0,0,0,.447.9,6.864,6.864,0,0,0,1.162.957,5.569,5.569,0,0,1,1.333,1.253,2.914,2.914,0,0,1,.654,1.822,3.574,3.574,0,0,1-1.7,2.964A6.483,6.483,0,0,1,36.87-.126,5.711,5.711,0,0,1,33.342-1.2a3.316,3.316,0,0,1-1.47-2.71,3.078,3.078,0,0,1,.772-2.1,2.143,2.143,0,0,1,1.53-.895.683.683,0,0,1,.735.7A3.057,3.057,0,0,0,35.914-4,2.941,2.941,0,0,0,38-3.047a1.177,1.177,0,0,0,.707-.178.358.358,0,0,0,.182-.305c0-.106-.064-.342-.491-.739A9.892,9.892,0,0,0,37.078-5.3a5.869,5.869,0,0,1-1.484-1.435,3.307,3.307,0,0,1-.705-1.988A4.808,4.808,0,0,1,37-12.485,7.332,7.332,0,0,1,41.656-14.126ZM41.83-8.79a2.338,2.338,0,0,0,1.686-.857,2.526,2.526,0,0,0,.827-1.743,1.706,1.706,0,0,0-.658-1.3,2.981,2.981,0,0,0-2.029-.605,6.518,6.518,0,0,0-4.135,1.462,3.975,3.975,0,0,0-1.8,3.111,2.462,2.462,0,0,0,.542,1.492A5.043,5.043,0,0,0,37.533-6a10.726,10.726,0,0,1,1.433,1.117,1.924,1.924,0,0,1,.756,1.349,1.183,1.183,0,0,1-.515.971A1.97,1.97,0,0,1,38-2.215a3.78,3.78,0,0,1-2.669-1.191A3.91,3.91,0,0,1,34.08-6.062a1.775,1.775,0,0,0-.814.6A2.239,2.239,0,0,0,32.7-3.907a2.5,2.5,0,0,0,1.14,2.046,4.9,4.9,0,0,0,3.026.9,5.669,5.669,0,0,0,3.369-1.01,2.754,2.754,0,0,0,1.348-2.286,2.074,2.074,0,0,0-.478-1.31,4.742,4.742,0,0,0-1.132-1.067,7.7,7.7,0,0,1-1.3-1.073,2.117,2.117,0,0,1-.684-1.48,2.94,2.94,0,0,1,1.429-2.262,4.279,4.279,0,0,1,2.5-1.025.757.757,0,0,1,.822.793,3.166,3.166,0,0,1-.6,1.645,8.818,8.818,0,0,1-.826,1.14A1.192,1.192,0,0,0,41.83-8.79Zm10.644-5.337a3.769,3.769,0,0,1,2.583.816,2.523,2.523,0,0,1,.937,1.92,3.354,3.354,0,0,1-1.058,2.318,3.159,3.159,0,0,1-2.288,1.115,2.018,2.018,0,0,1-.911-.2.824.824,0,0,1-.549-.735.726.726,0,0,1,.267-.5,6.849,6.849,0,0,0,.8-1.09,2.5,2.5,0,0,0,.47-1.158,3.584,3.584,0,0,0-1.987.86,2.192,2.192,0,0,0-1.095,1.6,1.309,1.309,0,0,0,.447.9,6.864,6.864,0,0,0,1.162.957,5.569,5.569,0,0,1,1.334,1.253,2.914,2.914,0,0,1,.654,1.822,3.574,3.574,0,0,1-1.7,2.964A6.483,6.483,0,0,1,47.689-.126,5.711,5.711,0,0,1,44.16-1.2a3.316,3.316,0,0,1-1.471-2.71,3.078,3.078,0,0,1,.772-2.1,2.143,2.143,0,0,1,1.53-.895.683.683,0,0,1,.735.7A3.057,3.057,0,0,0,46.732-4a2.941,2.941,0,0,0,2.088.955,1.177,1.177,0,0,0,.707-.178.358.358,0,0,0,.182-.305c0-.106-.064-.342-.491-.739A9.892,9.892,0,0,0,47.9-5.3a5.869,5.869,0,0,1-1.484-1.435,3.307,3.307,0,0,1-.705-1.988,4.808,4.808,0,0,1,2.115-3.763A7.332,7.332,0,0,1,52.474-14.126Zm.174,5.337a2.338,2.338,0,0,0,1.686-.857,2.527,2.527,0,0,0,.827-1.743,1.706,1.706,0,0,0-.658-1.3,2.981,2.981,0,0,0-2.029-.605,6.518,6.518,0,0,0-4.135,1.462,3.975,3.975,0,0,0-1.8,3.111,2.462,2.462,0,0,0,.542,1.492A5.043,5.043,0,0,0,48.351-6a10.727,10.727,0,0,1,1.433,1.117,1.924,1.924,0,0,1,.756,1.349,1.183,1.183,0,0,1-.515.971,1.97,1.97,0,0,1-1.207.344,3.78,3.78,0,0,1-2.669-1.191A3.91,3.91,0,0,1,44.9-6.062a1.775,1.775,0,0,0-.814.6,2.239,2.239,0,0,0-.563,1.551,2.5,2.5,0,0,0,1.14,2.046,4.9,4.9,0,0,0,3.026.9,5.669,5.669,0,0,0,3.369-1.01,2.754,2.754,0,0,0,1.348-2.286,2.074,2.074,0,0,0-.478-1.31A4.741,4.741,0,0,0,50.8-6.633a7.7,7.7,0,0,1-1.3-1.073,2.117,2.117,0,0,1-.684-1.48,2.94,2.94,0,0,1,1.429-2.262,4.279,4.279,0,0,1,2.5-1.025.757.757,0,0,1,.822.793,3.166,3.166,0,0,1-.6,1.645A8.818,8.818,0,0,1,52.13-8.9,1.192,1.192,0,0,0,52.648-8.79ZM29.1-14.1a2.118,2.118,0,0,1,2.168,1.288c.71-.811,1.074-1,1.37-1a2.318,2.318,0,0,1,1.509.685c.541.48.792.874.792,1.239a.771.771,0,0,1-.22.537,26.66,26.66,0,0,0-3.111,5.324,14.121,14.121,0,0,0-1.629,5.1.683.683,0,0,1-.735.706,2.416,2.416,0,0,1-1.608-.827,2.621,2.621,0,0,1-.867-1.939,3.9,3.9,0,0,1,.056-.622c-1.806,2.217-3.406,3.3-4.86,3.3a2.491,2.491,0,0,1-1.915-.714A2.888,2.888,0,0,1,19.4-3.037a10.092,10.092,0,0,1,1.368-4.574,15.163,15.163,0,0,1,3.652-4.5A7.319,7.319,0,0,1,29.1-14.1Zm1.6,3.325-.07-1.084A1.321,1.321,0,0,0,29.1-13.265a6.524,6.524,0,0,0-4.14,1.787A14.334,14.334,0,0,0,21.5-7.222a9.3,9.3,0,0,0-1.271,4.185c0,1.317.534,1.9,1.73,1.9,1.509,0,3.394-1.637,5.6-4.865l.731.386a8.3,8.3,0,0,0-.7,2.633,1.8,1.8,0,0,0,.612,1.338,1.917,1.917,0,0,0,.936.586,15.237,15.237,0,0,1,1.7-5.321,27.369,27.369,0,0,1,3.23-5.51l.017-.02a1.738,1.738,0,0,0-.507-.6,1.578,1.578,0,0,0-.932-.475c-.068.028-.4.213-1.292,1.349Zm39.442-3.3a2.924,2.924,0,0,1,2.43,1.1,4.227,4.227,0,0,1,.828,2.679,9.092,9.092,0,0,1-1.329,4.366,13.6,13.6,0,0,1-3.485,4.054,7.153,7.153,0,0,1-4.39,1.742,3.833,3.833,0,0,1-2.849-1.067,3.914,3.914,0,0,1-1.048-2.859,8.435,8.435,0,0,1,1.38-4.334,13.276,13.276,0,0,1,3.235-3.682,6.141,6.141,0,0,1,3.406-1.476A3.112,3.112,0,0,1,70.137-14.068ZM64.191-.959a6.352,6.352,0,0,0,3.876-1.564A12.773,12.773,0,0,0,71.34-6.329a8.288,8.288,0,0,0,1.223-3.958,3.421,3.421,0,0,0-.651-2.165,2.1,2.1,0,0,0-1.775-.783,2.225,2.225,0,0,0-1.426.434l-.113.088h-.173a5.23,5.23,0,0,0-3.009,1.306,12.448,12.448,0,0,0-3.03,3.453,7.627,7.627,0,0,0-1.259,3.9,3.075,3.075,0,0,0,.808,2.275A3,3,0,0,0,64.191-.959ZM29.358-12.415a1.132,1.132,0,0,1,.867.45,1.508,1.508,0,0,1,.361,1.011,1.758,1.758,0,0,1-.041.42l-.018.072-.6.888c-4.3,5.77-5.573,6.548-6.25,6.548-.384,0-.793-.239-.793-.909a7.363,7.363,0,0,1,1.094-3.039,18.316,18.316,0,0,1,2.6-3.665C27.659-11.835,28.571-12.415,29.358-12.415Zm.389,1.619a1.505,1.505,0,0,0,.007-.159.68.68,0,0,0-.161-.469c-.062-.073-.154-.159-.235-.159-.366,0-1.04.261-2.172,1.5a17.484,17.484,0,0,0-2.479,3.5,6.514,6.514,0,0,0-.995,2.645.65.65,0,0,0,0,.07c.134-.035.587-.243,1.711-1.455.97-1.046,2.257-2.642,3.823-4.744Zm39.516-1.579.137.025c.447.081.98.435.98,1.657a8.481,8.481,0,0,1-.953,3.454A15.622,15.622,0,0,1,67.25-3.783c-.894,1.055-1.648,1.568-2.3,1.568-.369,0-1.228-.156-1.228-1.605v-.013a10.139,10.139,0,0,1,1.788-4.746,9.785,9.785,0,0,1,3.633-3.734ZM64.945-3.047c.22,0,.73-.166,1.669-1.274a14.794,14.794,0,0,0,2.058-3.272,7.7,7.7,0,0,0,.874-3.1,1.151,1.151,0,0,0-.2-.791,9.322,9.322,0,0,0-3.138,3.345A9.386,9.386,0,0,0,64.55-3.813C64.551-3.047,64.808-3.047,64.945-3.047Zm14.019-7.934v1.825a19.905,19.905,0,0,1-.768,4.95A25.068,25.068,0,0,1,76.308.852c-.831,1.608-1.585,2.357-2.371,2.357a.745.745,0,0,1-.735-.851A15.708,15.708,0,0,1,74.7-2.5a70.377,70.377,0,0,1,3.487-7.09ZM74.034,2.363c.25-.064.764-.4,1.534-1.893a24.241,24.241,0,0,0,1.824-4.89,23.823,23.823,0,0,0,.633-3.139c-.958,1.81-1.815,3.613-2.559,5.379C74.282.633,74.034,1.84,74.034,2.358T74.034,2.363Z" transform="translate(136.51 42.55)" fill="#1b4541"/>
    </g>
  </g>
</svg>
