<svg xmlns="http://www.w3.org/2000/svg" xmlns:xlink="http://www.w3.org/1999/xlink" width="345.852" height="287.34" viewBox="0 0 345.852 287.34">
  <defs>
    <filter id="Rectangle_1056" x="14.926" y="25.67" width="316" height="161" filterUnits="userSpaceOnUse">
      <feOffset input="SourceAlpha"/>
      <feGaussianBlur stdDeviation="3" result="blur"/>
      <feFlood flood-opacity="0.078"/>
      <feComposite operator="in" in2="blur"/>
      <feComposite in="SourceGraphic"/>
    </filter>
    <filter id="Rectangle_1059" x="28.426" y="109.43" width="285" height="42" filterUnits="userSpaceOnUse">
      <feOffset input="SourceAlpha"/>
      <feGaussianBlur stdDeviation="2.5" result="blur-2"/>
      <feFlood flood-opacity="0.161"/>
      <feComposite operator="in" in2="blur-2"/>
      <feComposite in="SourceGraphic"/>
    </filter>
    <filter id="Rectangle_1061" x="29.926" y="142.93" width="282" height="103" filterUnits="userSpaceOnUse">
      <feOffset input="SourceAlpha"/>
      <feGaussianBlur stdDeviation="2" result="blur-3"/>
      <feFlood flood-opacity="0.161"/>
      <feComposite operator="in" in2="blur-3"/>
      <feComposite in="SourceGraphic"/>
    </filter>
  </defs>
  <g id="Group_10874" data-name="Group 10874" transform="translate(-848.074 -2865.33)">
    <path id="Path_5331" data-name="Path 5331" d="M366.612,217.758H222.885a29.2,29.2,0,0,0-25.286,14.6L125.735,346.83a29.194,29.194,0,0,0,0,29.2L197.6,490.5a29.2,29.2,0,0,0,25.286,14.6H366.612A29.2,29.2,0,0,0,391.9,490.5l71.864-114.471a29.2,29.2,0,0,0,0-29.2L391.9,232.358A29.2,29.2,0,0,0,366.612,217.758Z" transform="translate(726.251 2647.572)" fill="#1b4541" opacity="0.02"/>
    <g transform="matrix(1, 0, 0, 1, 848.07, 2865.33)" filter="url(#Rectangle_1056)">
      <g id="Rectangle_1056-2" data-name="Rectangle 1056" transform="translate(23.93 34.67)" fill="#fff" stroke="#ecebeb" stroke-width="1">
        <rect width="298" height="143" rx="10" stroke="none"/>
        <rect x="0.5" y="0.5" width="297" height="142" rx="9.5" fill="none"/>
      </g>
    </g>
    <path id="Path_5368" data-name="Path 5368" d="M.81,0H5.26V-1.29H2.27V-2.76H4.81V-4.03H2.27V-5.6h2.9V-6.89H.81ZM7.7-2.47c0-.71.37-.95.86-.95.47,0,.81.3.81.93V0h1.39V-2.79c0-1.33-.66-1.98-1.71-1.98a1.547,1.547,0,0,0-1.35.78v-.68H6.31V0H7.7Zm6.11-2.2V-6.46H12.43v1.79h-.85v1.1h.85V0h1.38V-3.57h.98v-1.1Zm5.04,3.13a1.247,1.247,0,0,1-1.02.44,1.07,1.07,0,0,1-1.15-.78H20.1c.01-.12.02-.31.02-.43a2.352,2.352,0,0,0-2.39-2.46,2.353,2.353,0,0,0-2.44,2.42A2.384,2.384,0,0,0,17.73.1a2.5,2.5,0,0,0,2.13-.95ZM16.7-2.75a1.011,1.011,0,0,1,1.04-.8.946.946,0,0,1,.98.8Zm5.76,1.12c0-1.24.36-1.86,1.16-1.86a1.552,1.552,0,0,1,.71.14l.25-1.25a1.753,1.753,0,0,0-.8-.17,1.474,1.474,0,0,0-1.32,1.23V-4.67H21.07V0h1.39Zm6.68-3.93h1.24c1.09,0,1.65.99,1.65,2.13s-.56,2.1-1.65,2.1H29.14ZM30.38,0c1.97,0,3.11-1.47,3.11-3.43s-1.14-3.46-3.11-3.46h-2.7V0Zm7.43-1.54a1.247,1.247,0,0,1-1.02.44,1.07,1.07,0,0,1-1.15-.78h3.42c.01-.12.02-.31.02-.43a2.352,2.352,0,0,0-2.39-2.46,2.353,2.353,0,0,0-2.44,2.42A2.384,2.384,0,0,0,36.69.1a2.5,2.5,0,0,0,2.13-.95ZM35.66-2.75a1.011,1.011,0,0,1,1.04-.8.946.946,0,0,1,.98.8Zm6.15-1.92V-6.46H40.43v1.79h-.85v1.1h.85V0h1.38V-3.57h.98v-1.1ZM47.03,0h1.38V-4.67H47.03v.52a1.764,1.764,0,0,0-1.36-.62,2.389,2.389,0,0,0-2.38,2.43A2.389,2.389,0,0,0,45.67.09a1.824,1.824,0,0,0,1.36-.62Zm-2.3-2.34A1.139,1.139,0,0,1,45.9-3.45a1.1,1.1,0,0,1,1.13,1.11A1.1,1.1,0,0,1,45.9-1.23,1.139,1.139,0,0,1,44.73-2.34Zm6.34-2.33H49.69V0h1.38ZM49.51-6.4a.855.855,0,0,0,.87.82.831.831,0,0,0,.85-.82.816.816,0,0,0-.85-.81A.84.84,0,0,0,49.51-6.4Zm2.84-.81V0h1.39V-7.21Zm4.49,5.45c.35.09.46.2.46.4,0,.24-.26.38-.57.39a.651.651,0,0,1-.69-.54h-1.3A1.784,1.784,0,0,0,56.69.1c.98,0,2.02-.47,2.02-1.46,0-.31-.14-1.04-1.27-1.36l-.79-.21c-.28-.07-.4-.2-.41-.35-.01-.21.18-.35.49-.35.23,0,.52.06.53.41h1.31c0-1.15-1-1.55-1.92-1.55-.98,0-1.82.64-1.82,1.33,0,.43-.01,1.15,1.4,1.52Z" transform="translate(884 2920.26)" fill="#272727"/>
    <rect id="Rectangle_1057" data-name="Rectangle 1057" width="270" height="20" rx="4" transform="translate(884 2929.26)" fill="#f8f8f8"/>
    <rect id="Rectangle_1066" data-name="Rectangle 1066" width="64" height="4" rx="1" transform="translate(890 2937.26)" fill="#fff"/>
    <rect id="Rectangle_1070" data-name="Rectangle 1070" width="92" height="4" rx="1" transform="translate(959 2937.26)" fill="#fff"/>
    <rect id="Rectangle_1060" data-name="Rectangle 1060" width="270" height="20" rx="4" transform="translate(884 2954.26)" fill="#f8f8f8"/>
    <g id="Group_10873" data-name="Group 10873" transform="translate(-7 -27.74)">
      <g transform="matrix(1, 0, 0, 1, 855.07, 2893.07)" filter="url(#Rectangle_1059)">
        <g id="Rectangle_1059-2" data-name="Rectangle 1059" transform="translate(35.93 116.93)" fill="#fff" stroke="#e8e8e8" stroke-width="0.5">
          <rect width="270" height="27" rx="4" stroke="none"/>
          <rect x="0.25" y="0.25" width="269.5" height="26.5" rx="3.75" fill="none"/>
        </g>
      </g>
      <g transform="matrix(1, 0, 0, 1, 855.07, 2893.07)" filter="url(#Rectangle_1061)">
        <rect id="Rectangle_1061-2" data-name="Rectangle 1061" width="270" height="91" rx="4" transform="translate(35.93 148.93)" fill="#fff"/>
      </g>
      <path id="Path_5337" data-name="Path 5337" d="M-17.354-4.267H-15.5c1.547,0,2.337,1.272,2.337,2.83s-.79,2.807-2.337,2.807h-1.856ZM-15.5,2.492c2.245,0,3.551-1.684,3.551-3.929S-13.252-5.4-15.5-5.4h-3.07V2.492Zm6.06-5.35h-1.169v5.35h1.169Zm-1.375-2.165a.768.768,0,0,0,.79.745.744.744,0,0,0,.779-.745.744.744,0,0,0-.779-.745A.768.768,0,0,0-10.812-5.023ZM-5.818.35c.4.092.745.275.745.63,0,.4-.412.642-.951.642-.63,0-1-.309-1.054-.768H-8.166A1.9,1.9,0,0,0-6.115,2.606c1.226,0,2.131-.584,2.131-1.615a1.575,1.575,0,0,0-1.4-1.558l-.825-.206c-.286-.08-.573-.195-.653-.412a.546.546,0,0,1,.046-.481.963.963,0,0,1,.756-.3.7.7,0,0,1,.779.573h1.123A1.722,1.722,0,0,0-6.1-2.973,1.807,1.807,0,0,0-8.017-1.564C-8.1-.693-7.685-.132-6.539.178ZM-3.045-.2A2.764,2.764,0,0,0-.193,2.606a2.736,2.736,0,0,0,2.131-.939L1.01.945a1.592,1.592,0,0,1-1.2.527A1.655,1.655,0,0,1-1.877-.2,1.617,1.617,0,0,1-.193-1.827a1.582,1.582,0,0,1,1.2.516l.916-.733A2.72,2.72,0,0,0-.193-2.973,2.736,2.736,0,0,0-3.045-.2Zm7.4-2.658H3.187v5.35H4.355ZM2.981-5.023a.768.768,0,0,0,.79.745.744.744,0,0,0,.779-.745.744.744,0,0,0-.779-.745A.768.768,0,0,0,2.981-5.023Zm4.2,2.165H6V5.092h1.18V1.724a1.992,1.992,0,0,0,1.787.882A2.635,2.635,0,0,0,11.63-.177a2.658,2.658,0,0,0-2.658-2.8,2.034,2.034,0,0,0-1.787.905ZM7.2-.155A1.6,1.6,0,0,1,8.823-1.827a1.6,1.6,0,0,1,1.6,1.673,1.565,1.565,0,0,1-1.6,1.627A1.568,1.568,0,0,1,7.2-.155Zm5.751,2.646h1.18v-8.26h-1.18Zm4-5.35H15.777v5.35h1.169ZM15.571-5.023a.768.768,0,0,0,.79.745.744.744,0,0,0,.779-.745.744.744,0,0,0-.779-.745A.768.768,0,0,0,15.571-5.023Zm4.2,4.64A1.288,1.288,0,0,1,21.15-1.816c.687,0,1.123.47,1.123,1.329V2.492h1.18V-.624c0-1.524-.745-2.348-2.039-2.348a1.892,1.892,0,0,0-1.638.916v-.8H18.6v5.35h1.18ZM30.131-.2a2.611,2.611,0,0,0-2.681-2.772A2.665,2.665,0,0,0,24.7-.2a2.694,2.694,0,0,0,2.749,2.807,2.649,2.649,0,0,0,2.474-1.375L28.963.808a1.65,1.65,0,0,1-1.455.768A1.553,1.553,0,0,1,25.87.235h4.25C30.131.109,30.131-.074,30.131-.2ZM25.87-.624a1.509,1.509,0,0,1,1.581-1.317A1.453,1.453,0,0,1,28.974-.624ZM33.35.35c.4.092.745.275.745.63,0,.4-.412.642-.951.642-.63,0-1-.309-1.054-.768H31a1.9,1.9,0,0,0,2.051,1.753c1.226,0,2.131-.584,2.131-1.615a1.575,1.575,0,0,0-1.4-1.558l-.825-.206c-.286-.08-.573-.195-.653-.412a.546.546,0,0,1,.046-.481.963.963,0,0,1,.756-.3.7.7,0,0,1,.779.573h1.123a1.722,1.722,0,0,0-1.948-1.581,1.807,1.807,0,0,0-1.913,1.409c-.08.871.332,1.432,1.478,1.741Z" transform="translate(919.659 3024.838)" fill="#272727"/>
      <g id="Group_10872" data-name="Group 10872" transform="translate(1140.909 3021.643)">
        <path id="Line_29" data-name="Line 29" d="M4.5,5.214a.712.712,0,0,1-.505-.209L-.291.719A.714.714,0,0,1,.719-.291L5.005,3.995A.714.714,0,0,1,4.5,5.214Z" transform="translate(0.5 0.5)" fill="#1b4541"/>
        <path id="Line_30" data-name="Line 30" d="M.214,5.214A.714.714,0,0,1-.291,3.995L3.995-.291A.714.714,0,0,1,5.005.719L.719,5.005A.712.712,0,0,1,.214,5.214Z" transform="translate(4.786 0.5)" fill="#1b4541"/>
      </g>
      <g id="Group_10898" data-name="Group 10898" transform="translate(-7.091 2)">
        <rect id="Rectangle_1062" data-name="Rectangle 1062" width="104" height="21" rx="4" transform="translate(906 3049)" fill="#1b4541"/>
        <rect id="Rectangle_1068" data-name="Rectangle 1068" width="104" height="21" rx="4" transform="translate(906 3101)" fill="#1b4541"/>
        <rect id="Rectangle_1064" data-name="Rectangle 1064" width="84" height="21" rx="4" transform="translate(906 3075)" fill="#1b4541"/>
        <rect id="Rectangle_1063" data-name="Rectangle 1063" width="125" height="21" rx="4" transform="translate(1015 3049)" fill="#1b4541"/>
        <rect id="Rectangle_1069" data-name="Rectangle 1069" width="125" height="21" rx="4" transform="translate(1015 3101)" fill="#1b4541"/>
        <rect id="Rectangle_1065" data-name="Rectangle 1065" width="125" height="21" rx="4" transform="translate(998 3075)" fill="#1b4541"/>
        <path id="Path_5332" data-name="Path 5332" d="M-66.377-6.4a2.208,2.208,0,0,1-1.772.857,2.321,2.321,0,0,1-2.305-2.391,2.335,2.335,0,0,1,2.305-2.4,2.313,2.313,0,0,1,1.753.819l.781-.61a3.2,3.2,0,0,0-2.534-1.181,3.33,3.33,0,0,0-3.315,3.372,3.316,3.316,0,0,0,3.315,3.363A3.133,3.133,0,0,0-65.6-5.782Zm5.134,1.734h.972V-9.116h-.972v.629a1.765,1.765,0,0,0-1.5-.724A2.234,2.234,0,0,0-65-6.9a2.242,2.242,0,0,0,2.258,2.324,1.774,1.774,0,0,0,1.5-.733Zm-2.743-2.239a1.324,1.324,0,0,1,1.362-1.353,1.341,1.341,0,0,1,1.372,1.353,1.327,1.327,0,0,1-1.372,1.381A1.348,1.348,0,0,1-63.986-6.907Zm6.725.457c.333.076.619.229.619.524,0,.333-.343.533-.791.533-.524,0-.829-.257-.876-.638h-.9a1.582,1.582,0,0,0,1.705,1.457c1.019,0,1.772-.486,1.772-1.343a1.31,1.31,0,0,0-1.162-1.3l-.686-.171c-.238-.067-.476-.162-.543-.343a.454.454,0,0,1,.038-.4.8.8,0,0,1,.629-.248.585.585,0,0,1,.648.476h.934A1.432,1.432,0,0,0-57.5-9.212,1.5,1.5,0,0,0-59.09-8.04c-.067.724.276,1.191,1.229,1.448Zm6.82-.457A2.171,2.171,0,0,0-52.67-9.212a2.216,2.216,0,0,0-2.286,2.305A2.24,2.24,0,0,0-52.67-4.573a2.2,2.2,0,0,0,2.058-1.143l-.8-.352a1.372,1.372,0,0,1-1.21.638,1.292,1.292,0,0,1-1.362-1.115h3.534C-50.441-6.649-50.441-6.8-50.441-6.907Zm-3.544-.352a1.254,1.254,0,0,1,1.315-1.1,1.208,1.208,0,0,1,1.267,1.1Zm6.792.686a2.147,2.147,0,0,0,2.315,2,2.063,2.063,0,0,0,2.239-1.762c.1-.953-.438-1.686-1.772-2.039l-.838-.219c-.781-.2-.876-.6-.876-.857a1.026,1.026,0,0,1,1.134-.9,1.007,1.007,0,0,1,1.143.991h1.01a1.945,1.945,0,0,0-2.134-1.943,2,2,0,0,0-2.162,1.877c0,.581.219,1.381,1.629,1.762l.829.21c.61.143,1.076.457,1.038,1.067a1.1,1.1,0,0,1-1.238.9,1.223,1.223,0,0,1-1.305-1.076Zm6.954-4.229h-.981v1.686h-.8v.81h.8v3.639h.981V-8.307h.943v-.81h-.943Zm4.868,4.077a1.079,1.079,0,0,1-1.143,1.2c-.533,0-.924-.381-.924-1.115V-9.116h-.981v2.591c-.01,1.267.629,1.953,1.724,1.953a1.516,1.516,0,0,0,1.324-.743v.648h.981V-9.116h-.981Zm5.8,2.058h.972v-6.868h-.972v3.058a1.678,1.678,0,0,0-1.505-.733,2.2,2.2,0,0,0-2.219,2.324,2.21,2.21,0,0,0,2.219,2.315,1.718,1.718,0,0,0,1.505-.743Zm-.019-2.239a1.325,1.325,0,0,1-1.362,1.381,1.325,1.325,0,0,1-1.334-1.381,1.3,1.3,0,0,1,1.334-1.353A1.339,1.339,0,0,1-29.589-6.907Zm6.382-2.21h-1.048L-25.5-6.068l-1.238-3.048h-1.048l1.762,4.239L-26.988-2.5h1.029Zm2.782,2.543a2.147,2.147,0,0,0,2.315,2,2.063,2.063,0,0,0,2.239-1.762c.1-.953-.438-1.686-1.772-2.039l-.838-.219c-.781-.2-.876-.6-.876-.857a1.026,1.026,0,0,1,1.134-.9,1.007,1.007,0,0,1,1.143.991h1.01a1.945,1.945,0,0,0-2.134-1.943,2,2,0,0,0-2.162,1.877c0,.581.219,1.381,1.629,1.762l.829.21c.61.143,1.076.457,1.038,1.067a1.1,1.1,0,0,1-1.238.9,1.223,1.223,0,0,1-1.305-1.076Zm7.706,1.048a1.322,1.322,0,0,1-1.343-1.381A1.306,1.306,0,0,1-12.719-8.25a1.309,1.309,0,0,1,1.353,1.343A1.324,1.324,0,0,1-12.719-5.525Zm0,.953a2.273,2.273,0,0,0,2.334-2.334,2.249,2.249,0,0,0-2.334-2.305,2.239,2.239,0,0,0-2.315,2.305A2.263,2.263,0,0,0-12.719-4.573Zm3.42-.1h.981v-6.868H-9.3Zm5.353-2.058a1.079,1.079,0,0,1-1.143,1.2c-.533,0-.924-.381-.924-1.115V-9.116h-.981v2.591C-7-5.259-6.365-4.573-5.27-4.573a1.516,1.516,0,0,0,1.324-.743v.648h.981V-9.116h-.981ZM-.259-10.8H-1.24v1.686h-.8v.81h.8v3.639h.981V-8.307H.684v-.81H-.259ZM2.579-9.116H1.608v4.449h.972Zm-1.143-1.8a.639.639,0,0,0,.657.619.619.619,0,0,0,.648-.619.619.619,0,0,0-.648-.619A.639.639,0,0,0,1.436-10.917ZM5.98-5.525A1.322,1.322,0,0,1,4.637-6.907,1.306,1.306,0,0,1,5.98-8.25,1.309,1.309,0,0,1,7.333-6.907,1.324,1.324,0,0,1,5.98-5.525Zm0,.953A2.273,2.273,0,0,0,8.314-6.907,2.249,2.249,0,0,0,5.98-9.212,2.239,2.239,0,0,0,3.665-6.907,2.263,2.263,0,0,0,5.98-4.573Zm4.4-2.486A1.071,1.071,0,0,1,11.524-8.25c.572,0,.934.391.934,1.1v2.477h.981V-7.259c0-1.267-.619-1.953-1.7-1.953a1.573,1.573,0,0,0-1.362.762v-.667H9.4v4.449h.981Z" transform="translate(986.464 3067.516)" fill="#fff"/>
        <path id="Path_5333" data-name="Path 5333" d="M-75.744-4.7h4.027v-.919H-74.74V-7.452h2.559v-.919H-74.74V-10.3h2.928v-.929h-3.933Zm6.766-1.772c.332.076.616.227.616.521,0,.332-.341.531-.787.531-.521,0-.824-.256-.872-.635h-.9a1.574,1.574,0,0,0,1.7,1.45c1.014,0,1.763-.483,1.763-1.336a1.3,1.3,0,0,0-1.156-1.289L-69.3-7.4c-.237-.066-.474-.161-.54-.341a.451.451,0,0,1,.038-.4.8.8,0,0,1,.625-.246.582.582,0,0,1,.644.474h.929a1.424,1.424,0,0,0-1.611-1.308A1.5,1.5,0,0,0-70.8-8.058c-.066.72.275,1.185,1.222,1.44Zm4.207,0c.332.076.616.227.616.521,0,.332-.341.531-.787.531-.521,0-.824-.256-.872-.635h-.9a1.574,1.574,0,0,0,1.7,1.45c1.014,0,1.763-.483,1.763-1.336A1.3,1.3,0,0,0-64.41-7.234l-.682-.171c-.237-.066-.474-.161-.54-.341a.451.451,0,0,1,.038-.4.8.8,0,0,1,.625-.246.582.582,0,0,1,.644.474h.929a1.424,1.424,0,0,0-1.611-1.308A1.5,1.5,0,0,0-66.59-8.058c-.066.72.275,1.185,1.222,1.44ZM-58.744-4.7h.967V-9.129h-.967V-8.5a1.756,1.756,0,0,0-1.488-.72,2.222,2.222,0,0,0-2.246,2.3,2.23,2.23,0,0,0,2.246,2.312,1.765,1.765,0,0,0,1.488-.73Zm-2.729-2.227a1.317,1.317,0,0,1,1.355-1.346,1.334,1.334,0,0,1,1.365,1.346,1.32,1.32,0,0,1-1.365,1.374A1.341,1.341,0,0,1-61.473-6.931Zm9.059-2.2h-1.042L-54.7-6.1l-1.232-3.032h-1.042l1.753,4.217-.957,2.369h1.023Zm8.055,2.758-1.118-3.971h-.787l-1.118,3.971-1.554-4.861h-1.08L-47.808-4.7h.843l1.09-3.914,1.1,3.914h.843l2.208-6.529H-42.8Zm4.046.076c0-1.175.351-2.009,1.185-2.009a1.435,1.435,0,0,1,.654.152l.161-.9a1.563,1.563,0,0,0-.787-.171c-.559,0-.986.313-1.213,1.109V-9.129h-.976V-4.7h.976Zm3.772-2.833h-.967V-4.7h.967Zm-1.137-1.791a.636.636,0,0,0,.654.616.616.616,0,0,0,.644-.616.616.616,0,0,0-.644-.616A.636.636,0,0,0-37.678-10.92Zm3.828.114h-.976v1.677h-.8v.805h.8V-4.7h.976v-3.62h.938v-.805h-.938Zm2.824,1.677h-.967V-4.7h.967Zm-1.137-1.791a.636.636,0,0,0,.654.616.616.616,0,0,0,.644-.616.616.616,0,0,0-.644-.616A.636.636,0,0,0-32.163-10.92Zm3.478,3.838a1.066,1.066,0,0,1,1.137-1.185c.569,0,.929.389.929,1.1V-4.7h.976V-7.281c0-1.26-.616-1.943-1.687-1.943a1.565,1.565,0,0,0-1.355.758v-.663h-.976V-4.7h.976Zm7.8.171A1.345,1.345,0,0,1-22.25-5.547,1.309,1.309,0,0,1-23.6-6.912,1.326,1.326,0,0,1-22.25-8.276,1.3,1.3,0,0,1-20.886-6.912Zm-2.7,2.767c-.18.076-.625.332-.805.407A2.266,2.266,0,0,0-22.345-2.5c1.488,0,2.435-.824,2.435-2.862V-9.129h-.957v.654a1.716,1.716,0,0,0-1.5-.749A2.231,2.231,0,0,0-24.6-6.9a2.207,2.207,0,0,0,2.236,2.293,1.667,1.667,0,0,0,1.5-.768v.227c0,1.241-.578,1.744-1.478,1.744A1.424,1.424,0,0,1-23.587-4.145Zm7.24-2.454a2.136,2.136,0,0,0,2.3,1.99,2.053,2.053,0,0,0,2.227-1.753c.1-.948-.436-1.677-1.763-2.028l-.834-.218c-.777-.2-.872-.6-.872-.853a1.02,1.02,0,0,1,1.128-.9,1,1,0,0,1,1.137.986h1a1.935,1.935,0,0,0-2.123-1.933A1.992,1.992,0,0,0-16.29-9.442c0,.578.218,1.374,1.62,1.753l.824.208c.606.142,1.071.455,1.033,1.061a1.1,1.1,0,0,1-1.232.891,1.217,1.217,0,0,1-1.3-1.071Zm9.855-.332A2.16,2.16,0,0,0-8.709-9.224a2.2,2.2,0,0,0-2.274,2.293A2.228,2.228,0,0,0-8.709-4.609,2.191,2.191,0,0,0-6.662-5.746l-.8-.351a1.365,1.365,0,0,1-1.2.635A1.285,1.285,0,0,1-10.017-6.57H-6.5C-6.491-6.675-6.491-6.826-6.491-6.931Zm-3.525-.351a1.248,1.248,0,0,1,1.308-1.09,1.2,1.2,0,0,1,1.26,1.09Zm5.534.986c0-1.175.351-2.009,1.185-2.009a1.435,1.435,0,0,1,.654.152l.161-.9a1.563,1.563,0,0,0-.787-.171c-.559,0-.986.313-1.213,1.109V-9.129h-.976V-4.7h.976ZM-.389-4.7h.9L2.359-9.129H1.317L.066-5.945-1.2-9.129H-2.237Zm4.52-4.425H3.165V-4.7h.967ZM2.994-10.92a.636.636,0,0,0,.654.616.616.616,0,0,0,.644-.616.616.616,0,0,0-.644-.616A.636.636,0,0,0,2.994-10.92Zm2.217,3.99a2.286,2.286,0,0,0,2.36,2.322,2.263,2.263,0,0,0,1.763-.777l-.768-.6a1.317,1.317,0,0,1-1,.436A1.369,1.369,0,0,1,6.178-6.931,1.337,1.337,0,0,1,7.571-8.276a1.309,1.309,0,0,1,1,.426l.758-.606a2.25,2.25,0,0,0-1.753-.768A2.263,2.263,0,0,0,5.212-6.931Zm9.268,0a2.16,2.16,0,0,0-2.217-2.293A2.2,2.2,0,0,0,9.988-6.931a2.228,2.228,0,0,0,2.274,2.322,2.191,2.191,0,0,0,2.047-1.137l-.8-.351a1.365,1.365,0,0,1-1.2.635A1.285,1.285,0,0,1,10.954-6.57H14.47C14.48-6.675,14.48-6.826,14.48-6.931Zm-3.525-.351a1.248,1.248,0,0,1,1.308-1.09,1.2,1.2,0,0,1,1.26,1.09Z" transform="translate(1100.744 3067.516)" fill="#fff"/>
        <path id="Path_5334" data-name="Path 5334" d="M-59.832-4.264h4.287v-.978h-3.218V-7.189h2.723v-.978h-2.723v-2.058h3.117v-.988h-4.186Zm6.768-2.572L-54.93-4.264h1.21l1.251-1.725,1.231,1.725h1.22l-1.856-2.572,1.543-2.138h-1.231l-.908,1.3-.908-1.3h-1.231Zm7.383,2.572h1.029v-4.71h-1.029v.666a1.869,1.869,0,0,0-1.584-.767,2.365,2.365,0,0,0-2.39,2.451,2.374,2.374,0,0,0,2.39,2.461,1.879,1.879,0,0,0,1.584-.777Zm-2.9-2.37a1.4,1.4,0,0,1,1.442-1.432,1.42,1.42,0,0,1,1.452,1.432,1.405,1.405,0,0,1-1.452,1.463A1.428,1.428,0,0,1-48.586-6.634Zm10.752-1.422c.605,0,1,.434,1,1.17v2.622H-35.8V-6.977c0-1.341-.646-2.1-1.816-2.1a1.708,1.708,0,0,0-1.584.938,1.475,1.475,0,0,0-1.483-.938,1.688,1.688,0,0,0-1.483.807v-.706H-43.2v4.71h1.039V-6.8a1.125,1.125,0,0,1,1.19-1.261c.565,0,.948.424.958,1.15v2.643h1.039V-6.8A1.132,1.132,0,0,1-37.834-8.056Zm8.957-2.169A1.1,1.1,0,0,1-27.808-9a1.11,1.11,0,0,1-1.11,1.21h-1.654v-2.431Zm-2.774,5.961h1.079V-6.816h1.715A2.023,2.023,0,0,0-26.739-9a2.039,2.039,0,0,0-2.118-2.209h-2.794Zm6.919-1.695c0-1.251.373-2.138,1.261-2.138a1.527,1.527,0,0,1,.7.161l.171-.958a1.663,1.663,0,0,0-.837-.182c-.6,0-1.049.333-1.291,1.18V-8.974H-25.77v4.71h1.039Zm7.363-.676a2.3,2.3,0,0,0-2.36-2.441,2.346,2.346,0,0,0-2.421,2.441,2.372,2.372,0,0,0,2.421,2.471,2.333,2.333,0,0,0,2.179-1.21l-.847-.373a1.453,1.453,0,0,1-1.281.676,1.368,1.368,0,0,1-1.442-1.18h3.742C-17.368-6.362-17.368-6.523-17.368-6.634Zm-3.752-.373a1.328,1.328,0,0,1,1.392-1.16,1.279,1.279,0,0,1,1.341,1.16Zm5.89-1.967h-1.039v7h1.039V-4.94a1.754,1.754,0,0,0,1.573.777,2.32,2.32,0,0,0,2.34-2.451,2.34,2.34,0,0,0-2.34-2.461,1.791,1.791,0,0,0-1.573.8Zm.01,2.38a1.4,1.4,0,0,1,1.432-1.473,1.406,1.406,0,0,1,1.412,1.473,1.378,1.378,0,0,1-1.412,1.432A1.38,1.38,0,0,1-15.22-6.594Zm6.1.635c0-1.251.373-2.138,1.261-2.138a1.527,1.527,0,0,1,.7.161l.171-.958a1.663,1.663,0,0,0-.837-.182c-.6,0-1.049.333-1.291,1.18V-8.974h-1.039v4.71h1.039Zm6.556,1.695h1.029v-4.71H-2.562v.666a1.869,1.869,0,0,0-1.584-.767,2.365,2.365,0,0,0-2.39,2.451,2.374,2.374,0,0,0,2.39,2.461A1.879,1.879,0,0,0-2.562-4.94Zm-2.9-2.37A1.4,1.4,0,0,1-4.024-8.066,1.42,1.42,0,0,1-2.572-6.634,1.405,1.405,0,0,1-4.024-5.172,1.428,1.428,0,0,1-5.466-6.634Zm6.8-4.125H.293v1.785H-.554v.857H.293v3.853H1.332V-8.117h1v-.857h-1ZM4.337-8.974H3.309v4.71H4.337ZM3.127-10.88a.676.676,0,0,0,.7.656.655.655,0,0,0,.686-.656.655.655,0,0,0-.686-.656A.676.676,0,0,0,3.127-10.88ZM7.938-5.172A1.4,1.4,0,0,1,6.516-6.634,1.383,1.383,0,0,1,7.938-8.056,1.386,1.386,0,0,1,9.371-6.634,1.4,1.4,0,0,1,7.938-5.172Zm0,1.009a2.406,2.406,0,0,0,2.471-2.471A2.381,2.381,0,0,0,7.938-9.075,2.371,2.371,0,0,0,5.487-6.634,2.4,2.4,0,0,0,7.938-4.163ZM12.6-6.8a1.134,1.134,0,0,1,1.21-1.261c.605,0,.988.414.988,1.17v2.622h1.039V-7.007c0-1.341-.656-2.068-1.8-2.068a1.666,1.666,0,0,0-1.442.807v-.706H11.559v4.71H12.6Z" transform="translate(979.449 3118.499)" fill="#fff"/>
        <path id="Path_5335" data-name="Path 5335" d="M-75.532-10.206h1.645c1.371,0,2.072,1.127,2.072,2.508s-.7,2.488-2.072,2.488h-1.645Zm1.645,5.992c1.99,0,3.148-1.493,3.148-3.483s-1.158-3.514-3.148-3.514h-2.722v7Zm5.372-4.743H-69.55v4.743h1.036Zm-1.219-1.919a.681.681,0,0,0,.7.66.66.66,0,0,0,.691-.66.66.66,0,0,0-.691-.66A.681.681,0,0,0-69.733-10.876Zm4.428,4.763c.355.081.66.244.66.559,0,.355-.366.569-.843.569-.559,0-.884-.274-.934-.68h-.965a1.687,1.687,0,0,0,1.818,1.554c1.087,0,1.889-.518,1.889-1.432a1.4,1.4,0,0,0-1.239-1.381l-.731-.183c-.254-.071-.508-.173-.579-.366a.484.484,0,0,1,.041-.427.854.854,0,0,1,.67-.264.624.624,0,0,1,.691.508h1a1.526,1.526,0,0,0-1.726-1.4,1.6,1.6,0,0,0-1.7,1.249c-.071.772.295,1.269,1.31,1.544Zm4.509,0c.355.081.66.244.66.559,0,.355-.366.569-.843.569-.559,0-.884-.274-.934-.68h-.965A1.687,1.687,0,0,0-61.06-4.112c1.087,0,1.889-.518,1.889-1.432A1.4,1.4,0,0,0-60.41-6.925l-.731-.183c-.254-.071-.508-.173-.579-.366A.484.484,0,0,1-61.68-7.9a.854.854,0,0,1,.67-.264.624.624,0,0,1,.691.508h1a1.526,1.526,0,0,0-1.726-1.4,1.6,1.6,0,0,0-1.7,1.249c-.071.772.295,1.269,1.31,1.544Zm7.271-.487A2.315,2.315,0,0,0-55.9-9.058,2.363,2.363,0,0,0-58.338-6.6,2.388,2.388,0,0,0-55.9-4.112a2.349,2.349,0,0,0,2.194-1.219l-.853-.376a1.462,1.462,0,0,1-1.29.68A1.377,1.377,0,0,1-57.3-6.215h3.768C-53.525-6.326-53.525-6.489-53.525-6.6ZM-57.3-6.976a1.337,1.337,0,0,1,1.4-1.168A1.288,1.288,0,0,1-54.55-6.976Zm5.931,1.056c0-1.259.376-2.153,1.269-2.153a1.538,1.538,0,0,1,.7.162l.173-.965a1.675,1.675,0,0,0-.843-.183c-.6,0-1.056.335-1.3,1.188V-8.957h-1.046v4.743h1.046Zm4.428-4.834H-47.99v1.8h-.853v.863h.853v3.879h1.046V-8.093h1.005v-.863h-1.005Zm5.616,6.54h1.036V-8.957h-1.036v.67a1.881,1.881,0,0,0-1.594-.772A2.381,2.381,0,0,0-45.329-6.59a2.39,2.39,0,0,0,2.407,2.478,1.891,1.891,0,0,0,1.594-.782ZM-44.253-6.6A1.412,1.412,0,0,1-42.8-8.043,1.43,1.43,0,0,1-41.338-6.6,1.415,1.415,0,0,1-42.8-5.128,1.437,1.437,0,0,1-44.253-6.6Zm6.845-4.154h-1.046v1.8h-.853v.863h.853v3.879h1.046V-8.093H-36.4v-.863h-1.005Zm3.026,1.8h-1.036v4.743h1.036ZM-35.6-10.876a.681.681,0,0,0,.7.66.66.66,0,0,0,.691-.66.66.66,0,0,0-.691-.66A.681.681,0,0,0-35.6-10.876Zm4.844,5.748A1.409,1.409,0,0,1-32.188-6.6a1.393,1.393,0,0,1,1.432-1.432A1.4,1.4,0,0,1-29.314-6.6,1.411,1.411,0,0,1-30.756-5.128Zm0,1.016A2.423,2.423,0,0,0-28.268-6.6a2.4,2.4,0,0,0-2.488-2.458A2.387,2.387,0,0,0-33.224-6.6,2.412,2.412,0,0,0-30.756-4.112Zm4.692-2.651a1.142,1.142,0,0,1,1.219-1.269c.609,0,1,.416,1,1.178v2.64H-22.8V-6.976c0-1.351-.66-2.082-1.808-2.082a1.677,1.677,0,0,0-1.452.812v-.711h-1.046v4.743h1.046Zm10.226-3.453a1.105,1.105,0,0,1,1.076,1.229,1.117,1.117,0,0,1-1.117,1.219h-1.665v-2.447Zm-2.793,6h1.087V-6.783h1.726a2.037,2.037,0,0,0,2.133-2.2,2.053,2.053,0,0,0-2.133-2.224h-2.813Zm9.18-2.194a1.15,1.15,0,0,1-1.219,1.28c-.569,0-.985-.406-.985-1.188v-2.64H-12.7v2.762c-.01,1.351.67,2.082,1.838,2.082A1.616,1.616,0,0,0-9.45-4.9v.691H-8.4V-8.957H-9.45ZM-5.9-5.92c0-1.259.376-2.153,1.269-2.153a1.538,1.538,0,0,1,.7.162l.173-.965A1.675,1.675,0,0,0-4.6-9.058c-.6,0-1.056.335-1.3,1.188V-8.957H-6.942v4.743H-5.9Zm4.052-3.036H-2.89v7.048h1.046V-4.894A1.766,1.766,0,0,0-.26-4.112,2.336,2.336,0,0,0,2.1-6.58,2.356,2.356,0,0,0-.26-9.058a1.8,1.8,0,0,0-1.584.8Zm.01,2.4A1.414,1.414,0,0,1-.392-8.043,1.416,1.416,0,0,1,1.03-6.56,1.387,1.387,0,0,1-.392-5.118,1.39,1.39,0,0,1-1.834-6.56ZM5.427-5.128A1.409,1.409,0,0,1,4-6.6,1.393,1.393,0,0,1,5.427-8.032,1.4,1.4,0,0,1,6.869-6.6,1.411,1.411,0,0,1,5.427-5.128Zm0,1.016A2.423,2.423,0,0,0,7.915-6.6,2.4,2.4,0,0,0,5.427-9.058,2.387,2.387,0,0,0,2.959-6.6,2.412,2.412,0,0,0,5.427-4.112Zm5.393-2c.355.081.66.244.66.559,0,.355-.366.569-.843.569-.559,0-.884-.274-.934-.68H8.738a1.687,1.687,0,0,0,1.818,1.554c1.087,0,1.889-.518,1.889-1.432a1.4,1.4,0,0,0-1.239-1.381l-.731-.183c-.254-.071-.508-.173-.579-.366A.484.484,0,0,1,9.936-7.9a.854.854,0,0,1,.67-.264.624.624,0,0,1,.691.508h1a1.526,1.526,0,0,0-1.726-1.4,1.6,1.6,0,0,0-1.7,1.249c-.071.772.295,1.269,1.31,1.544Zm6.459,1.9h1.036V-8.957H17.279v.67a1.881,1.881,0,0,0-1.594-.772A2.381,2.381,0,0,0,13.277-6.59a2.39,2.39,0,0,0,2.407,2.478,1.891,1.891,0,0,0,1.594-.782ZM14.354-6.6a1.412,1.412,0,0,1,1.452-1.442A1.43,1.43,0,0,1,17.268-6.6a1.415,1.415,0,0,1-1.462,1.473A1.437,1.437,0,0,1,14.354-6.6Zm5.423,2.387h1.046v-7.322H19.777Z" transform="translate(1088.393 3093.199)" fill="#fff"/>
        <path id="Path_5336" data-name="Path 5336" d="M-41.152-10.24h1.6c1.335,0,2.017,1.1,2.017,2.443s-.682,2.423-2.017,2.423h-1.6Zm1.6,5.835c1.938,0,3.066-1.454,3.066-3.392s-1.127-3.422-3.066-3.422H-42.2v6.814Zm5.232-4.618h-1.009v4.618h1.009ZM-35.5-10.893a.663.663,0,0,0,.682.643.643.643,0,0,0,.673-.643.643.643,0,0,0-.673-.643A.663.663,0,0,0-35.5-10.893Zm4.312,4.638c.346.079.643.237.643.544,0,.346-.356.554-.821.554-.544,0-.86-.267-.91-.663h-.94a1.643,1.643,0,0,0,1.77,1.513c1.058,0,1.839-.5,1.839-1.394a1.36,1.36,0,0,0-1.207-1.345l-.712-.178c-.247-.069-.494-.168-.564-.356A.471.471,0,0,1-32.053-8a.831.831,0,0,1,.653-.257.607.607,0,0,1,.672.494h.969A1.487,1.487,0,0,0-31.44-9.123a1.56,1.56,0,0,0-1.652,1.216c-.069.752.287,1.236,1.276,1.5Zm4.391,0c.346.079.643.237.643.544,0,.346-.356.554-.821.554-.544,0-.86-.267-.91-.663h-.94a1.643,1.643,0,0,0,1.77,1.513c1.058,0,1.839-.5,1.839-1.394a1.36,1.36,0,0,0-1.207-1.345l-.712-.178c-.247-.069-.494-.168-.564-.356A.471.471,0,0,1-27.662-8a.831.831,0,0,1,.653-.257.607.607,0,0,1,.672.494h.969a1.487,1.487,0,0,0-1.681-1.365A1.56,1.56,0,0,0-28.7-7.906c-.069.752.287,1.236,1.276,1.5Zm7.081-.475a2.254,2.254,0,0,0-2.314-2.393A2.3,2.3,0,0,0-24.408-6.73a2.325,2.325,0,0,0,2.374,2.423A2.287,2.287,0,0,0-19.9-5.493l-.831-.366a1.424,1.424,0,0,1-1.256.663A1.341,1.341,0,0,1-23.4-6.354h3.669C-19.721-6.463-19.721-6.621-19.721-6.73ZM-23.4-7.1a1.3,1.3,0,0,1,1.365-1.137A1.254,1.254,0,0,1-20.72-7.1Zm5.776,1.029c0-1.226.366-2.1,1.236-2.1a1.5,1.5,0,0,1,.682.158l.168-.94a1.631,1.631,0,0,0-.821-.178c-.583,0-1.029.326-1.266,1.157V-9.024h-1.019v4.618h1.019Zm4.312-4.707h-1.019v1.75h-.831v.841h.831v3.778h1.019V-8.183h.979v-.841h-.979Zm5.469,6.369h1.009V-9.024H-7.843v.653A1.832,1.832,0,0,0-9.4-9.123a2.319,2.319,0,0,0-2.344,2.4A2.328,2.328,0,0,0-9.4-4.307a1.842,1.842,0,0,0,1.553-.762ZM-10.691-6.73a1.375,1.375,0,0,1,1.414-1.4,1.392,1.392,0,0,1,1.424,1.4A1.378,1.378,0,0,1-9.277-5.3,1.4,1.4,0,0,1-10.691-6.73Zm6.666-4.045H-5.044v1.75h-.831v.841h.831v3.778h1.019V-8.183h.979v-.841h-.979Zm2.947,1.75H-2.087v4.618h1.009Zm-1.187-1.869a.663.663,0,0,0,.682.643.643.643,0,0,0,.672-.643.643.643,0,0,0-.672-.643A.663.663,0,0,0-2.265-10.893ZM2.452-5.3A1.372,1.372,0,0,1,1.057-6.73,1.356,1.356,0,0,1,2.452-8.124a1.359,1.359,0,0,1,1.4,1.394A1.374,1.374,0,0,1,2.452-5.3Zm0,.989A2.359,2.359,0,0,0,4.875-6.73,2.335,2.335,0,0,0,2.452-9.123,2.324,2.324,0,0,0,.049-6.73,2.349,2.349,0,0,0,2.452-4.307ZM7.021-6.888A1.112,1.112,0,0,1,8.208-8.124c.593,0,.969.405.969,1.147v2.571H10.2V-7.1c0-1.315-.643-2.027-1.76-2.027a1.634,1.634,0,0,0-1.414.791v-.692H6v4.618H7.021Z" transform="translate(962 3093.199)" fill="#fff"/>
        <path id="Path_5338" data-name="Path 5338" d="M-57.771-10.146a1.164,1.164,0,0,1,1.134,1.294,1.177,1.177,0,0,1-1.176,1.283h-1.754v-2.578Zm-2.941,6.321h1.144V-6.531h1.818A2.146,2.146,0,0,0-55.5-8.851a2.162,2.162,0,0,0-2.246-2.342h-2.963Zm9.433-6.321a1.164,1.164,0,0,1,1.134,1.294,1.177,1.177,0,0,1-1.176,1.283h-1.754v-2.578ZM-54.22-3.825h1.144V-6.531h1.818a2.146,2.146,0,0,0,2.246-2.321,2.162,2.162,0,0,0-2.246-2.342H-54.22Zm5.829-6.31h2.171v6.31h1.155v-6.31h2.171v-1.059h-5.5Zm12.118-.011a1.164,1.164,0,0,1,1.134,1.294,1.177,1.177,0,0,1-1.176,1.283H-38.07v-2.578Zm-2.941,6.321h1.144V-6.531h1.818a2.146,2.146,0,0,0,2.246-2.321,2.162,2.162,0,0,0-2.246-2.342h-2.963Zm7.337-1.8c0-1.326.4-2.267,1.337-2.267a1.619,1.619,0,0,1,.738.171l.182-1.016a1.764,1.764,0,0,0-.888-.193c-.631,0-1.112.353-1.369,1.251V-8.819h-1.1v4.995h1.1Zm7.808-.717a2.438,2.438,0,0,0-2.5-2.588,2.488,2.488,0,0,0-2.567,2.588,2.515,2.515,0,0,0,2.567,2.62A2.473,2.473,0,0,0-24.262-5l-.9-.4a1.54,1.54,0,0,1-1.358.717,1.45,1.45,0,0,1-1.529-1.251h3.968C-24.07-6.049-24.07-6.22-24.07-6.338Zm-3.979-.4a1.408,1.408,0,0,1,1.476-1.23,1.356,1.356,0,0,1,1.422,1.23Zm6.984.909c.374.086.7.257.7.588,0,.374-.385.6-.888.6-.588,0-.93-.289-.984-.717h-1.016a1.777,1.777,0,0,0,1.914,1.636c1.144,0,1.989-.545,1.989-1.508a1.471,1.471,0,0,0-1.3-1.455l-.77-.193c-.267-.075-.535-.182-.61-.385a.51.51,0,0,1,.043-.449.9.9,0,0,1,.706-.278.657.657,0,0,1,.727.535h1.048a1.608,1.608,0,0,0-1.818-1.476,1.687,1.687,0,0,0-1.786,1.316c-.075.813.31,1.337,1.38,1.626Zm7.658-.513a2.438,2.438,0,0,0-2.5-2.588,2.488,2.488,0,0,0-2.567,2.588,2.515,2.515,0,0,0,2.567,2.62A2.473,2.473,0,0,0-13.6-5l-.9-.4a1.54,1.54,0,0,1-1.358.717,1.45,1.45,0,0,1-1.529-1.251h3.968C-13.407-6.049-13.407-6.22-13.407-6.338Zm-3.979-.4a1.408,1.408,0,0,1,1.476-1.23,1.356,1.356,0,0,1,1.422,1.23Zm6.246.225A1.2,1.2,0,0,1-9.856-7.846c.642,0,1.048.439,1.048,1.241v2.781h1.1V-6.734c0-1.422-.7-2.193-1.9-2.193a1.767,1.767,0,0,0-1.529.856v-.749h-1.1v4.995h1.1Zm6.417-4.2h-1.1v1.893h-.9v.909h.9v4.086h1.1V-7.91h1.059v-.909H-4.722ZM1.193-3.825H2.283V-8.819H1.193v.706A1.982,1.982,0,0,0-.487-8.926a2.508,2.508,0,0,0-2.535,2.6A2.517,2.517,0,0,0-.487-3.718a1.992,1.992,0,0,0,1.679-.824Zm-3.08-2.513A1.487,1.487,0,0,1-.358-7.857a1.506,1.506,0,0,1,1.54,1.519A1.49,1.49,0,0,1-.358-4.787,1.514,1.514,0,0,1-1.888-6.338Zm7.209-4.374h-1.1v1.893h-.9v.909h.9v4.086h1.1V-7.91H6.38v-.909H5.321ZM8.508-8.819H7.417v4.995H8.508ZM7.225-10.841a.717.717,0,0,0,.738.7.7.7,0,0,0,.727-.7.7.7,0,0,0-.727-.7A.717.717,0,0,0,7.225-10.841Zm5.1,6.054a1.484,1.484,0,0,1-1.508-1.551,1.467,1.467,0,0,1,1.508-1.508,1.469,1.469,0,0,1,1.519,1.508A1.486,1.486,0,0,1,12.326-4.787Zm0,1.07a2.552,2.552,0,0,0,2.62-2.62,2.525,2.525,0,0,0-2.62-2.588,2.514,2.514,0,0,0-2.6,2.588A2.541,2.541,0,0,0,12.326-3.718Zm4.941-2.791a1.2,1.2,0,0,1,1.283-1.337c.642,0,1.048.439,1.048,1.241v2.781h1.1V-6.734c0-1.422-.7-2.193-1.9-2.193a1.767,1.767,0,0,0-1.529.856v-.749h-1.1v4.995h1.1Z" transform="translate(1097.506 3119.127)" fill="#fff"/>
      </g>
    </g>
    <rect id="Rectangle_1067" data-name="Rectangle 1067" width="114" height="4" rx="1" transform="translate(890 2962.26)" fill="#fff"/>
    <rect id="Rectangle_1071" data-name="Rectangle 1071" width="56" height="4" rx="1" transform="translate(1009 2962.26)" fill="#fff"/>
  </g>
</svg>
