<svg xmlns="http://www.w3.org/2000/svg" width="13.056" height="13.056" viewBox="0 0 13.056 13.056">
  <path id="Icon_awesome-facebook-square" data-name="Icon awesome-facebook-square" d="M11.657,2.25H1.4A1.4,1.4,0,0,0,0,3.649V13.907a1.4,1.4,0,0,0,1.4,1.4h4V10.867H3.563V8.778H5.4V7.186a2.55,2.55,0,0,1,2.73-2.812,11.123,11.123,0,0,1,1.618.141V6.293H8.835A1.045,1.045,0,0,0,7.657,7.421V8.778h2l-.321,2.089H7.657v4.439h4a1.4,1.4,0,0,0,1.4-1.4V3.649a1.4,1.4,0,0,0-1.4-1.4Z" transform="translate(0 -2.25)" fill="#1b4541"/>
</svg>
