<svg xmlns="http://www.w3.org/2000/svg" width="56" height="56" viewBox="0 0 56 56">
  <g id="Group_13765" data-name="Group 13765" transform="translate(-159 -591)">
    <rect id="Rectangle_952" data-name="Rectangle 952" width="56" height="56" rx="8" transform="translate(159 591)" fill="#f0f8fd"/>
    <g id="sent_1_" data-name="sent (1)" transform="translate(140.6 603.678)">
      <g id="Group_10570" data-name="Group 10570" transform="translate(33.057)">
        <g id="Group_10569" data-name="Group 10569">
          <path id="Path_5156" data-name="Path 5156" d="M279.416.861A1.729,1.729,0,0,0,277.924,0h-6.408V7.58H283.3Z" transform="translate(-257.243)" fill="#1b4541"/>
          <path id="Path_5157" data-name="Path 5157" d="M55.634,0H49.166a1.728,1.728,0,0,0-1.493.863L43.8,7.58H55.634V0Z" transform="translate(-43.158)" fill="#1b4541"/>
          <path id="Path_5158" data-name="Path 5158" d="M33.057,156.648v19.157a2.115,2.115,0,0,0,2.112,2.112H57.632a2.115,2.115,0,0,0,2.112-2.112V156.648ZM50.478,164.7l-4.645,4.645a.9.9,0,0,1-1.27,0l-2.178-2.177a.9.9,0,0,1,1.271-1.27l1.542,1.542,4.01-4.01a.9.9,0,1,1,1.27,1.27Z" transform="translate(-33.057 -147.272)" fill="#1b4541"/>
        </g>
      </g>
    </g>
  </g>
</svg>
