<svg xmlns="http://www.w3.org/2000/svg" width="216.141" height="74" viewBox="0 0 216.141 74">
  <g id="Group_8116" data-name="Group 8116" transform="translate(-873 -5346)">
    <g id="Group_8108" data-name="Group 8108" transform="translate(873 5346)">
      <rect id="Rectangle_463" data-name="Rectangle 463" width="67" height="30" rx="2" fill="#fff"/>
      <g id="paypal" transform="translate(5.122 7.843)">
        <path id="Path_4970" data-name="Path 4970" d="M53.194,3.763a5.005,5.005,0,0,0,.038-.612A3.152,3.152,0,0,0,50.08,0H44.813a.679.679,0,0,0-.669.566L42.2,12.1a.679.679,0,0,0,.669.791H44.8a.684.684,0,0,0,.674-.566l.009-.054h0l-.268,1.6a.6.6,0,0,0,.59.7h1.685a.6.6,0,0,0,.59-.5l.479-2.845a1.019,1.019,0,0,1,1-.85H50a4.354,4.354,0,0,0,4.354-4.354A2.762,2.762,0,0,0,53.194,3.763Z" transform="translate(-42.193)" fill="#002987"/>
        <path id="Path_4971" data-name="Path 4971" d="M156.044,132.28a4.962,4.962,0,0,1-4.924,4.35h-1.47a.737.737,0,0,0-.708.533l-.879,5.222a.6.6,0,0,0,.59.7h1.685a.6.6,0,0,0,.59-.5l.479-2.845a1.019,1.019,0,0,1,1-.85h.443a4.354,4.354,0,0,0,4.354-4.354h0A2.762,2.762,0,0,0,156.044,132.28Z" transform="translate(-145.044 -128.517)" fill="#0085cc"/>
        <path id="Path_4972" data-name="Path 4972" d="M179.941,119.164h1.47a4.962,4.962,0,0,0,4.924-4.35,2.752,2.752,0,0,0-1.6-.511H180.9a.9.9,0,0,0-.882.746l-.782,4.649A.737.737,0,0,1,179.941,119.164Z" transform="translate(-175.335 -111.051)" fill="#00186a"/>
      </g>
      <path id="Path_5019" data-name="Path 5019" d="M-13.222-6.132a1.227,1.227,0,0,1,1.146,1.343,1.222,1.222,0,0,1-1.2,1.319h-1.8V-6.132ZM-16.649.955h1.578v-3.02H-13.2a2.548,2.548,0,0,0,2.7-2.724,2.566,2.566,0,0,0-2.7-2.748h-3.451Zm11.487,0h1.5V-4.8h-1.5v.715a2.232,2.232,0,0,0-1.787-.838A2.914,2.914,0,0,0-9.882-1.929,2.914,2.914,0,0,0-6.949,1.066,2.224,2.224,0,0,0-5.162.216ZM-8.329-1.929a1.546,1.546,0,0,1,1.59-1.553A1.534,1.534,0,0,1-5.162-1.929,1.513,1.513,0,0,1-6.739-.376,1.546,1.546,0,0,1-8.329-1.929ZM3.379-4.8h-1.6L.335-1.214-1.095-4.8H-2.7L-.454.511-1.773,3.765h1.59Zm2.465,0H4.34V3.753h1.5V.191a2,2,0,0,0,1.8.887,2.836,2.836,0,0,0,2.81-3.007,2.84,2.84,0,0,0-2.81-2.995,2.013,2.013,0,0,0-1.8.9Zm.025,2.9A1.51,1.51,0,0,1,7.4-3.482,1.507,1.507,0,0,1,8.913-1.9,1.493,1.493,0,0,1,7.4-.351,1.5,1.5,0,0,1,5.869-1.9ZM16.16.955h1.5V-4.8h-1.5v.715a2.232,2.232,0,0,0-1.787-.838,2.914,2.914,0,0,0-2.933,2.995,2.914,2.914,0,0,0,2.933,2.995A2.224,2.224,0,0,0,16.16.216ZM12.992-1.929a1.546,1.546,0,0,1,1.59-1.553A1.534,1.534,0,0,1,16.16-1.929,1.513,1.513,0,0,1,14.582-.376,1.546,1.546,0,0,1,12.992-1.929ZM19.364.955h1.5V-7.931h-1.5Z" transform="translate(37.21 18.644)"/>
    </g>
    <g id="Group_8110" data-name="Group 8110" transform="translate(950.43 5346)">
      <rect id="Rectangle_464" data-name="Rectangle 464" width="68" height="30" rx="2" transform="translate(-0.43)" fill="#fff"/>
      <g id="visa" transform="translate(7.016 7.417)">
        <path id="Path_4973" data-name="Path 4973" d="M184.8,194.929l2.583-14.529h4.036l-2.5,14.529Z" transform="translate(-166.155 -179.916)" fill="#3c58bf"/>
        <path id="Path_4974" data-name="Path 4974" d="M184.8,194.929l3.309-14.529h3.309l-2.5,14.529Z" transform="translate(-166.155 -179.916)" fill="#293688"/>
        <path id="Path_4975" data-name="Path 4975" d="M260.35,176.246a10.238,10.238,0,0,0-3.713-.646c-4.036,0-6.942,2.018-6.942,4.924,0,2.179,2.018,3.309,3.632,4.036s2.1,1.211,2.1,1.856c0,.969-1.291,1.453-2.421,1.453a8.773,8.773,0,0,1-3.874-.807l-.565-.242L248,190.129a13.088,13.088,0,0,0,4.6.807c4.278,0,7.1-2.018,7.1-5.085,0-1.7-1.049-2.986-3.471-4.036-1.453-.726-2.341-1.13-2.341-1.856,0-.646.726-1.291,2.341-1.291a7.4,7.4,0,0,1,3.067.565l.4.161.646-3.148Z" transform="translate(-222.978 -175.6)" fill="#3c58bf"/>
        <path id="Path_4976" data-name="Path 4976" d="M260.35,176.246a10.238,10.238,0,0,0-3.713-.646c-4.036,0-6.215,2.018-6.215,4.924a4.219,4.219,0,0,0,2.906,4.036c1.614.726,2.1,1.211,2.1,1.856,0,.969-1.291,1.453-2.421,1.453a8.773,8.773,0,0,1-3.874-.807l-.565-.242L248,190.129a13.088,13.088,0,0,0,4.6.807c4.278,0,7.1-2.018,7.1-5.085,0-1.7-1.049-2.986-3.471-4.036-1.453-.726-2.341-1.13-2.341-1.856,0-.646.726-1.291,2.341-1.291a7.4,7.4,0,0,1,3.067.565l.4.161.646-3.148Z" transform="translate(-222.978 -175.6)" fill="#293688"/>
        <path id="Path_4977" data-name="Path 4977" d="M366.552,180.4c-.969,0-1.7.081-2.1,1.049l-6.054,13.48h4.359l.807-2.421h5.166l.484,2.421h3.874L369.7,180.4Zm-1.856,9.686c.242-.726,1.614-4.278,1.614-4.278s.323-.888.565-1.453l.242,1.372s.807,3.632.969,4.439H364.7Z" transform="translate(-322.239 -179.916)" fill="#3c58bf"/>
        <path id="Path_4978" data-name="Path 4978" d="M367.521,180.4c-.969,0-1.7.081-2.1,1.049l-7.022,13.48h4.359l.807-2.421h5.166l.484,2.421h3.874L369.7,180.4Zm-2.825,9.686c.323-.807,1.614-4.278,1.614-4.278s.323-.888.565-1.453l.242,1.372s.807,3.632.969,4.439H364.7Z" transform="translate(-322.239 -179.916)" fill="#293688"/>
        <path id="Path_4979" data-name="Path 4979" d="M57.254,191.29l-.4-2.1a11.7,11.7,0,0,0-5.65-6.377l3.632,12.915h4.359L65.729,181.2H61.37Z" transform="translate(-46.034 -180.635)" fill="#3c58bf"/>
        <path id="Path_4980" data-name="Path 4980" d="M57.254,191.29l-.4-2.1a11.7,11.7,0,0,0-5.65-6.377l3.632,12.915h4.359L65.729,181.2H62.177Z" transform="translate(-46.034 -180.635)" fill="#293688"/>
        <path id="Path_4981" data-name="Path 4981" d="M0,180.4l.726.161c5.166,1.211,8.717,4.278,10.089,7.91l-1.453-6.861c-.242-.969-.969-1.211-1.856-1.211Z" transform="translate(0 -179.916)" fill="#ffbc00"/>
        <path id="Path_4982" data-name="Path 4982" d="M0,180.4H0c5.166,1.211,9.444,4.359,10.816,7.991L9.444,182.66a1.97,1.97,0,0,0-1.937-1.534Z" transform="translate(0 -179.916)" fill="#f7981d"/>
        <path id="Path_4983" data-name="Path 4983" d="M0,180.4H0c5.166,1.211,9.444,4.359,10.816,7.991l-.969-3.148a2.847,2.847,0,0,0-1.7-2.341Z" transform="translate(0 -179.916)" fill="#ed7c00"/>
        <g id="Group_8109" data-name="Group 8109" transform="translate(5.247 2.099)">
          <path id="Path_4984" data-name="Path 4984" d="M62.009,204.472l-2.744-2.744-1.291,3.067-.323-2.018A11.7,11.7,0,0,0,52,196.4l3.632,12.915h4.359Z" transform="translate(-52 -196.4)" fill="#051244"/>
          <path id="Path_4985" data-name="Path 4985" d="M188.917,292.752l-3.471-3.552-.646,3.552Z" transform="translate(-171.401 -279.837)" fill="#051244"/>
          <path id="Path_4986" data-name="Path 4986" d="M255.022,274.8h0c.323.323.484.565.4.888,0,.969-1.291,1.453-2.421,1.453a8.773,8.773,0,0,1-3.874-.807l-.565-.242L248,279.4a13.088,13.088,0,0,0,4.6.807c2.583,0,4.682-.726,5.892-2.018Z" transform="translate(-228.225 -266.89)" fill="#051244"/>
          <path id="Path_4987" data-name="Path 4987" d="M364,230.174h3.794l.807-2.421h5.166l.484,2.421h3.874l-1.372-5.892L371.91,219.6l.242,1.291s.807,3.632.969,4.439h-3.39c.323-.807,1.614-4.278,1.614-4.278s.323-.888.565-1.453" transform="translate(-332.521 -217.259)" fill="#051244"/>
        </g>
      </g>
    </g>
    <g id="Group_8113" data-name="Group 8113" transform="translate(873 5387.456)">
      <rect id="Rectangle_464-2" data-name="Rectangle 464" width="67" height="33" rx="2" transform="translate(0 -0.456)" fill="#003473"/>
      <g id="Group_8111" data-name="Group 8111" transform="translate(14.583 4.856)">
        <path id="Path_4988" data-name="Path 4988" d="M79.16,150.275a11.388,11.388,0,1,0-7.629,2.944,11.337,11.337,0,0,0,7.629-2.944Z" transform="translate(-60.13 -130.442)" fill="#009ddd"/>
        <path id="Path_4989" data-name="Path 4989" d="M230.767,173.736a11.384,11.384,0,0,0,0-16.888v16.888Z" transform="translate(-211.737 -153.903)" fill="#009ddd"/>
      </g>
      <path id="Path_4990" data-name="Path 4990" d="M210.7,130.446a11.388,11.388,0,0,0-7.653,2.945,14.63,14.63,0,0,0-1.138,1.206h2.3a14.632,14.632,0,0,1,.87,1.2h-4.039q-.367.6-.669,1.2h5.355c.179.4.357.8.491,1.205H199.9a10.906,10.906,0,0,0-.335,1.227h6.982a12.126,12.126,0,0,1,.246,2.409,11.462,11.462,0,0,1-.581,3.615H199.9q.2.6.467,1.2h5.355a12.387,12.387,0,0,1-.647,1.2h-4.039a12.091,12.091,0,0,0,.87,1.2h2.3a11.721,11.721,0,0,1-1.16,1.2,11.389,11.389,0,1,0,7.653-19.834Z" transform="translate(-169.435 -125.589)" fill="#ed1c2e"/>
      <g id="Group_8112" data-name="Group 8112" transform="translate(18.375 13.313)">
        <path id="Path_4991" data-name="Path 4991" d="M366.194,251.828a.372.372,0,0,1,.38-.357.352.352,0,0,1,.357.357.371.371,0,0,1-.357.38.392.392,0,0,1-.38-.38Zm.38.29a.277.277,0,0,0,.267-.29.258.258,0,0,0-.267-.268.276.276,0,0,0-.289.268.294.294,0,0,0,.289.29Zm-.045-.134h-.089v-.313h.133c.044,0,.067,0,.09.022s.044.044.044.067c0,.045-.022.09-.067.09l.067.133h-.09l-.044-.112h-.045v.112Zm0-.178h.088v-.068h-.089v.068Z" transform="translate(-335.854 -246.43)" fill="#fff"/>
        <path id="Path_4992" data-name="Path 4992" d="M100.32,212.044H98.893l.847-4.44-1.94,4.44H96.5l-.222-4.417-.847,4.417H94.14l1.094-5.778h2.23l.111,3.569,1.564-3.569h2.3Z" transform="translate(-94.14 -206.266)" fill="#fff"/>
        <path id="Path_4993" data-name="Path 4993" d="M274.514,211.981a3.622,3.622,0,0,1-1.027.155c-.713,0-1.116-.357-1.116-1.025a3.152,3.152,0,0,1,.045-.425l.089-.469.068-.356.646-3.591h1.4l-.2,1.07h.735l-.2,1.139h-.736l-.357,1.963a1.082,1.082,0,0,0-.045.2c0,.246.156.356.492.356a1.619,1.619,0,0,0,.379-.044l-.179,1.027Z" transform="translate(-252.494 -206.27)" fill="#fff"/>
        <path id="Path_4994" data-name="Path 4994" d="M299.26,215.557a.38.38,0,0,0-.156-.045c-.068-.023-.112-.023-.112-.044h-.156a1.467,1.467,0,0,0-1.228.758l.133-.714h-1.294l-.87,4.707h1.428c.513-2.879.714-3.391,1.405-3.391.045,0,.113.023.179.023l.156.044.514-1.337Z" transform="translate(-273.113 -214.441)" fill="#fff"/>
        <path id="Path_4995" data-name="Path 4995" d="M236.9,216.656c0,.58.335,1,1.094,1.295.58.245.67.312.67.535,0,.29-.268.424-.826.424a4.6,4.6,0,0,1-1.294-.2l-.179,1.093h.068l.245.066c.089,0,.222.023.379.023a5.834,5.834,0,0,0,.8.044c1.495,0,2.209-.491,2.209-1.561,0-.647-.29-1.026-1.026-1.316-.6-.223-.669-.29-.669-.513,0-.245.245-.379.714-.379a9.343,9.343,0,0,1,1.025.066l.2-1.07a8.556,8.556,0,0,0-1.249-.089c-1.606,0-2.164.713-2.164,1.582Z" transform="translate(-220.505 -214.092)" fill="#fff"/>
        <path id="Path_4996" data-name="Path 4996" d="M159.483,219.863h-1.16l.023-.492a1.934,1.934,0,0,1-1.495.558,1.224,1.224,0,0,1-1.294-1.271c0-1.138.914-1.807,2.5-1.807a5.509,5.509,0,0,1,.58.023.893.893,0,0,0,.045-.29c0-.312-.246-.424-.915-.424a5.991,5.991,0,0,0-1.16.112l-.2.067-.134.022.2-1.048a6.423,6.423,0,0,1,1.7-.245c1.226,0,1.851.468,1.851,1.36a4.992,4.992,0,0,1-.111.938l-.29,1.673-.045.29-.046.246-.022.155-.023.134Zm-1.026-2.1a1.849,1.849,0,0,0-.312-.022c-.8,0-1.2.245-1.2.714a.456.456,0,0,0,.49.491,1.1,1.1,0,0,0,1.027-1.183Z" transform="translate(-148.708 -214.086)" fill="#fff"/>
        <path id="Path_4997" data-name="Path 4997" d="M201.818,219.565a5.4,5.4,0,0,1-1.45.2c-1.582,0-2.409-.737-2.409-2.12a2.569,2.569,0,0,1,2.477-2.789,1.689,1.689,0,0,1,1.9,1.7,4.8,4.8,0,0,1-.156,1.16h-2.835v.156c0,.535.4.825,1.227.825a3.769,3.769,0,0,0,1.472-.289l-.223,1.16Zm-.758-2.788v-.246c0-.379-.246-.6-.669-.6-.447,0-.759.312-.893.849Z" transform="translate(-186.381 -213.899)" fill="#fff"/>
        <path id="Path_4998" data-name="Path 4998" d="M328.391,217.352a2.51,2.51,0,0,1-2.767,2.253,2,2,0,0,1-2.229-2.163,2.635,2.635,0,0,1,2.787-2.79,2.052,2.052,0,0,1,2.253,2.12,2.4,2.4,0,0,1-.045.581Zm-1.472-.6c0-.491-.2-.936-.78-.936-.716,0-1.161.847-1.161,1.606,0,.625.313,1.049.8,1.049a1.383,1.383,0,0,0,1.093-1.138,2.465,2.465,0,0,0,.044-.581Z" transform="translate(-297.828 -213.716)" fill="#fff"/>
      </g>
    </g>
    <g id="discover" transform="translate(950.172 5387.456)">
      <path id="Path_4999" data-name="Path 4999" d="M59.969,109.158c0,1.538-1.587,2.785-3.545,2.785H3.545C1.587,111.943,0,110.7,0,109.158V82.236c0-1.538,1.587-2.785,3.545-2.785H56.424c1.958,0,3.545,1.247,3.545,2.785v26.922Z" transform="translate(0 -79.451)" fill="#34495e"/>
      <path id="Path_5000" data-name="Path 5000" d="M2.246,109.158V82.236a2.99,2.99,0,0,1,3.16-2.785H3.16A2.99,2.99,0,0,0,0,82.236v26.922a2.99,2.99,0,0,0,3.16,2.785H5.407A2.991,2.991,0,0,1,2.246,109.158Z" transform="translate(0 -79.451)" fill="#202121" opacity="0.15"/>
      <path id="Path_5001" data-name="Path 5001" d="M242.041,222.306a3.865,3.865,0,0,0-3.911-3.9h-.014a3.926,3.926,0,1,0,3.926,3.926C242.042,222.32,242.041,222.313,242.041,222.306Z" transform="translate(-206.696 -206.08)" fill="#f26e21"/>
      <g id="Group_8114" data-name="Group 8114" transform="translate(6.581 12.245)">
        <path id="Path_5002" data-name="Path 5002" d="M177.759,223.339a2.412,2.412,0,0,1-1.712.829,2.438,2.438,0,0,1-2.466-2.566,2.849,2.849,0,0,1,.739-1.9h0a2.306,2.306,0,0,1,1.6-.664,2.379,2.379,0,0,1,1.812.83V218.13a3.793,3.793,0,0,0-1.812-.453,4.373,4.373,0,0,0-2.559,1.065h0A4.111,4.111,0,0,0,172,221.679a3.836,3.836,0,0,0,3.926,3.85H176a4.27,4.27,0,0,0,1.812-.453l-.05-1.737c-.025.025.025.049,0,.073Z" transform="translate(-157.577 -217.677)" fill="#e7e8e3"/>
        <path id="Path_5003" data-name="Path 5003" d="M311.76,221.346h0l-1.71,4.2-1.963-4.983H306.5l3.1,7.625h.83l3.246-7.625h-1.585Z" transform="translate(-278.04 -220.264)" fill="#e7e8e3"/>
        <path id="Path_5004" data-name="Path 5004" d="M380.983,223.888v4.077h4.152v-1.208h-2.642v-2.038h2.567v-1.284h-2.567V221.85h2.642v-1.284h-4.152Z" transform="translate(-344.745 -220.264)" fill="#e7e8e3"/>
        <path id="Path_5005" data-name="Path 5005" d="M36,220.566H33.884v7.4H36a4.1,4.1,0,0,0,2.642-.831A3.733,3.733,0,0,0,40,224.266C40,222.076,38.414,220.566,36,220.566Zm1.736,5.587a2.9,2.9,0,0,1-1.963.6h-.453V221.85H35.7a2.563,2.563,0,0,1,1.963.6,2.412,2.412,0,0,1,.831,1.812A2.257,2.257,0,0,1,37.734,226.153Z" transform="translate(-33.884 -220.264)" fill="#e7e8e3"/>
        <rect id="Rectangle_465" data-name="Rectangle 465" width="1.434" height="7.399" transform="translate(6.795 0.301)" fill="#e7e8e3"/>
        <path id="Path_5006" data-name="Path 5006" d="M121.508,222.791c-.906-.3-1.133-.529-1.133-.906a.956.956,0,0,1,1.057-.83,1.461,1.461,0,0,1,1.208.6l.755-.981a3.288,3.288,0,0,0-2.189-.83,2.215,2.215,0,0,0-2.341,2.114c0,1.057.453,1.51,1.812,2.039a2.935,2.935,0,0,1,.982.453.831.831,0,0,1,.453.755,1.052,1.052,0,0,1-1.133,1.057,1.76,1.76,0,0,1-1.586-.981l-.906.906a2.961,2.961,0,0,0,2.567,1.434,2.38,2.38,0,0,0,2.566-2.416C123.622,223.924,123.169,223.4,121.508,222.791Z" transform="translate(-109.655 -219.62)" fill="#e7e8e3"/>
        <path id="Path_5007" data-name="Path 5007" d="M433.25,224.869a1.992,1.992,0,0,0,1.736-2.114c0-1.359-.982-2.19-2.642-2.19h-2.19v7.4h1.434V225.02h.227l2.038,2.945h1.737Zm-1.208-.906h-.453V221.7h.453c.906,0,1.435.377,1.435,1.133S432.947,223.963,432.041,223.963Z" transform="translate(-388.782 -220.264)" fill="#e7e8e3"/>
      </g>
    </g>
    <g id="american-express" transform="translate(1028.498 5346)">
      <path id="Path_5008" data-name="Path 5008" d="M60.643,107.109c0,1.432-1.6,2.593-3.585,2.593H3.585C1.6,109.7,0,108.542,0,107.109V82.044c0-1.432,1.6-2.593,3.585-2.593H57.058c1.98,0,3.585,1.161,3.585,2.593v25.065Z" transform="translate(0 -79.451)" fill="#306fc5"/>
      <path id="Path_5009" data-name="Path 5009" d="M1.843,107.109V82.044a2.593,2.593,0,0,1,2.593-2.593H2.593A2.593,2.593,0,0,0,0,82.044V107.11A2.593,2.593,0,0,0,2.593,109.7H4.437A2.593,2.593,0,0,1,1.843,107.109Z" transform="translate(0 -79.451)" fill="#202121" opacity="0.15"/>
      <g id="Group_8115" data-name="Group 8115" transform="translate(6.821 8.37)">
        <path id="Path_5010" data-name="Path 5010" d="M74.59,203.366h1.64l-.82-2.088Z" transform="translate(-70.533 -199.339)" fill="#fff"/>
        <path id="Path_5011" data-name="Path 5011" d="M155.946,286.107v.969H158.7v1.044h-2.759v1.119H159l1.416-1.566-1.342-1.566Z" transform="translate(-143.166 -275.073)" fill="#fff"/>
        <path id="Path_5012" data-name="Path 5012" d="M349.448,201.278l-.895,2.088h1.715Z" transform="translate(-315.122 -199.339)" fill="#fff"/>
        <path id="Path_5013" data-name="Path 5013" d="M214.207,285.491v-4.249l-1.939,2.088Z" transform="translate(-193.449 -270.729)" fill="#fff"/>
        <path id="Path_5014" data-name="Path 5014" d="M244.553,286.778a.753.753,0,0,0-.821-.671h-1.565v1.342h1.64C244.255,287.449,244.553,287.226,244.553,286.778Z" transform="translate(-220.142 -275.073)" fill="#fff"/>
        <path id="Path_5015" data-name="Path 5015" d="M295.708,287.923a.581.581,0,0,0,.224-.522.415.415,0,0,0-.224-.522,1.451,1.451,0,0,0-.6-.075h-1.491V288h1.491A1.451,1.451,0,0,0,295.708,287.923Z" transform="translate(-266.079 -275.696)" fill="#fff"/>
        <path id="Path_5016" data-name="Path 5016" d="M77.113,183.2v.895l-.447-.895h-3.5v.895l-.448-.895H67.943a4.539,4.539,0,0,0-2.087.447V183.2H62.5v.447a2.15,2.15,0,0,0-1.416-.447h-12l-.82,1.864-.82-1.864h-3.8v.895l-.373-.895h-3.28l-1.491,3.5-1.715,3.8-.032.075h3.881l.027-.075.448-1.118h.969l.447,1.193h4.324v-.895l.373.895h2.162l.373-.895v.895H60.115V188.64h.149c.149,0,.149,0,.149.224v1.64h5.368v-.447a4.46,4.46,0,0,0,2.013.447h2.237l.447-1.193h1.043l.447,1.193h4.324v-1.118l.671,1.118h3.5V183.2H77.113Zm-25.273,6.263H50.647v-4.1l-.075.171v0l-1.734,3.932h-1.1l-1.789-4.1v4.1H43.415l-.522-1.118H40.358l-.522,1.118H38.525l2.206-5.219h1.864l2.087,5v-5h1.975l.035.075h0l.941,2.047.675,1.534.024-.077,1.491-3.578h2.013v5.219Zm5.144-4.1H54.076v.969h2.833v1.044H54.076v1.044h2.908v1.118H52.809v-5.293h4.175v1.118Zm5.318,1.922.007,0a.854.854,0,0,1,.073.088,1.434,1.434,0,0,1,.264.874v.021s0,.008,0,.012,0,0,0,.006c0,.041,0,.083,0,.128v1.044H61.532v-.6a1.774,1.774,0,0,0-.224-1.044.679.679,0,0,0-.219-.15,1.489,1.489,0,0,0-.675-.074H59.071v1.864H57.8v-5.219h2.833a2.859,2.859,0,0,1,1.491.224,1.26,1.26,0,0,1,.594,1.159A1.481,1.481,0,0,1,61.83,187,1,1,0,0,1,62.3,187.283Zm2.511,2.178H63.544v-5.219h1.268Zm14.538,0H77.71l-2.386-3.952v3.28l-.008-.008v.682h-1.26v0H72.789l-.447-1.118h-2.61l-.447,1.193H67.868a2.241,2.241,0,0,1-2.46-2.609,3.056,3.056,0,0,1,.671-2.088,2.348,2.348,0,0,1,1.864-.6h1.193v1.118H67.943a1.374,1.374,0,0,0-.969.3,1.752,1.752,0,0,0-.372,1.193,1.623,1.623,0,0,0,.372,1.267,1.189,1.189,0,0,0,.895.3h.522l1.715-4.1h1.864l2.088,5v-4.995H75.92l2.162,3.653v-3.653H79.35v5.144h0Z" transform="translate(-36.748 -183.198)" fill="#fff"/>
        <path id="Path_5017" data-name="Path 5017" d="M247.113,204.419a.4.4,0,0,0,.058-.08.806.806,0,0,0,.1-.562.411.411,0,0,0-.011-.068c0-.006,0-.011,0-.017h0a.418.418,0,0,0-.226-.254,1.46,1.46,0,0,0-.6-.074h-1.491v1.193h1.491a1.452,1.452,0,0,0,.6-.075.278.278,0,0,0,.061-.044h0Z" transform="translate(-222.622 -201.202)" fill="#fff"/>
        <path id="Path_5018" data-name="Path 5018" d="M170.3,269.548a2.857,2.857,0,0,0-.373-1.417v-3.355h0v-.224h-3.59a2.122,2.122,0,0,0-1.029.447v-.447h-3.429a2.368,2.368,0,0,0-1.491.447v-.447h-6.113V265a2.884,2.884,0,0,0-1.64-.447h-4.026V265a2.832,2.832,0,0,0-1.715-.447h-4.473l-1.044,1.118-.969-1.118H133.7v7.53h6.561L141.334,271l.934,1.078h4.175v-1.715h.373a4.53,4.53,0,0,0,1.715-.224v2.013h3.355v-1.939h.149c.224,0,.224,0,.224.224v1.715H162.4a2.922,2.922,0,0,0,1.715-.448v.448h3.206a3.348,3.348,0,0,0,1.789-.373,2.5,2.5,0,0,0,1.183-2.01c0-.026.007-.051.009-.077l0,0C170.3,269.644,170.3,269.6,170.3,269.548Zm-23.484-.447h-1.491v1.938h-2.451l-1.426-1.64,0,.006-.07-.08-1.64,1.715h-4.771V265.82h4.846l1.324,1.45.278.3.038-.039,1.566-1.715h3.951a1.935,1.935,0,0,1,1.951.97,2.1,2.1,0,0,1,.062.521C148.978,268.8,147.934,269.1,146.817,269.1Zm7.455-.075a1.692,1.692,0,0,1,.224.969v1.044h-1.267v-.671a1.664,1.664,0,0,0-.224-1.044c-.149-.223-.447-.223-.894-.223h-1.342v1.938H149.5v-5.293h2.833a3.007,3.007,0,0,1,1.491.223,1.32,1.32,0,0,1,.671,1.193,1.485,1.485,0,0,1-.895,1.417A1.27,1.27,0,0,1,154.272,269.026Zm5.144-2.162h-2.908v.969h2.833v1.044h-2.833v1.044h2.908v1.118h-4.175v-5.293h4.175Zm3.131,4.175h-2.386V269.92h2.386a.63.63,0,0,0,.522-.149.541.541,0,0,0,0-.745.633.633,0,0,0-.448-.149c-1.193-.075-2.609,0-2.609-1.64,0-.746.447-1.566,1.789-1.566h2.46v1.267h-2.311a1.106,1.106,0,0,0-.522.075c-.149.075-.149.224-.149.373,0,.224.149.3.3.372a.945.945,0,0,0,.447.075h.671a1.9,1.9,0,0,1,1.416.447,1.543,1.543,0,0,1,.373,1.118C164.486,270.516,163.815,271.039,162.547,271.039Zm6.412-.522a2.172,2.172,0,0,1-1.566.522h-2.385V269.92h2.385a.629.629,0,0,0,.522-.149.54.54,0,0,0,0-.745.631.631,0,0,0-.447-.149c-1.192-.075-2.609,0-2.609-1.64a1.524,1.524,0,0,1,1.405-1.539,2.78,2.78,0,0,1,.384-.027h2.46v1.267H166.8a1.1,1.1,0,0,0-.522.075.568.568,0,0,0-.15.373c0,.224.075.3.3.372a.943.943,0,0,0,.447.075h.671a2.328,2.328,0,0,1,.8.119,1.605,1.605,0,0,1,1.043,1.179,1.677,1.677,0,0,1,.023.268A1.516,1.516,0,0,1,168.959,270.516Z" transform="translate(-123.3 -255.829)" fill="#fff"/>
      </g>
    </g>
  </g>
</svg>
