<svg xmlns="http://www.w3.org/2000/svg" width="155.641" height="143.518" viewBox="0 0 155.641 143.518">
  <g id="Group_13732" data-name="Group 13732" transform="translate(-46.003 -74.032)">
    <path id="Path_10185" data-name="Path 10185" d="M190.682,423.936c-10.7-2.264-21.723-.222-32.294,1.348a183.24,183.24,0,0,1-34.436,1.84c-5.813-.242-11.565-.8-17.283-1.57a89.054,89.054,0,0,0-16.541-1.089A47.8,47.8,0,0,0,64.7,433.336c-3.322,2.447-6.231,5.334-7.536,8.625a8.812,8.812,0,0,0-.445,5.114,4.117,4.117,0,0,0-.063,1.2,7.809,7.809,0,0,0,2.779,4.814,17.579,17.579,0,0,0,4.819,3.035c5.1,2.908,11.954,4.286,18.552,4.22,11.3-.112,21.523-3.586,31.933-6.222a92.727,92.727,0,0,1,16.241-2.793,173.466,173.466,0,0,1,17.513-.155c10.888.329,21.82.918,32.613-.506a61.347,61.347,0,0,0,14.788-3.7c4.1-1.654,8-4.119,9.262-7.429a6.338,6.338,0,0,0,.35-1.34C209.253,431.527,198.864,425.668,190.682,423.936Z" transform="translate(-6.632 -242.793)" fill="#f7f7f7"/>
    <g id="Group_13653" data-name="Group 13653" transform="translate(107.907 74.032)">
      <g id="Group_13648" data-name="Group 13648">
        <g id="Group_13645" data-name="Group 13645" transform="translate(4.604 6.505)">
          <path id="Path_10186" data-name="Path 10186" d="M273.412,95.446a.87.87,0,0,1,.486.019.6.6,0,0,1,.3.647,1.635,1.635,0,0,1-.335.679A15.488,15.488,0,0,1,265,102.738c-.529.128-2.034.65-2.45.154-.488-.581.456-1.512.793-1.894a17.128,17.128,0,0,1,4.269-3.487A16.84,16.84,0,0,1,273.412,95.446Z" transform="translate(-262.414 -95.421)" fill="#00b9a7"/>
        </g>
        <g id="Group_13646" data-name="Group 13646" transform="translate(0 0.553)">
          <path id="Path_10187" data-name="Path 10187" d="M247.585,76.443a.872.872,0,0,1,.186-.45.6.6,0,0,1,.709-.055,1.642,1.642,0,0,1,.523.548,15.487,15.487,0,0,1,2.537,10.363c-.061.541-.09,2.134-.7,2.354-.713.258-1.263-.949-1.505-1.4A17.13,17.13,0,0,1,247.53,82.6,16.845,16.845,0,0,1,247.585,76.443Z" transform="translate(-247.273 -75.85)" fill="#00b9a7"/>
        </g>
        <g id="Group_13647" data-name="Group 13647" transform="translate(6.022)">
          <path id="Path_10188" data-name="Path 10188" d="M267.273,80.413a6.489,6.489,0,0,1,.743-1.577,16.924,16.924,0,0,1,3.248-3.467,6.364,6.364,0,0,1,1.863-1.287.4.4,0,0,1,.376,0,.378.378,0,0,1,.121.236,3.342,3.342,0,0,1-.384,2,18.21,18.21,0,0,1-2.4,3.961,6.242,6.242,0,0,1-2.579,2.185C266.805,82.92,266.984,81.364,267.273,80.413Z" transform="translate(-267.075 -74.032)" fill="#00b9a7"/>
        </g>
      </g>
      <g id="Group_13652" data-name="Group 13652" transform="translate(1.526 5.318)">
        <g id="Group_13649" data-name="Group 13649" transform="translate(2.29 6.092)">
          <path id="Path_10189" data-name="Path 10189" d="M259.932,114.562a.11.11,0,0,1-.064-.2,25.312,25.312,0,0,1,5.061-2.8.11.11,0,1,1,.084.2A25.113,25.113,0,0,0,260,114.541.108.108,0,0,1,259.932,114.562Z" transform="translate(-259.822 -111.553)" fill="#1b4541"/>
        </g>
        <g id="Group_13650" data-name="Group 13650" transform="translate(2.007)">
          <path id="Path_10190" data-name="Path 10190" d="M259,101.575a.122.122,0,0,1-.026,0,.11.11,0,0,1-.082-.133,25.568,25.568,0,0,1,4.779-9.878.11.11,0,1,1,.172.137,25.353,25.353,0,0,0-4.737,9.792A.11.11,0,0,1,259,101.575Z" transform="translate(-258.891 -91.52)" fill="#1b4541"/>
        </g>
        <g id="Group_13651" data-name="Group 13651" transform="translate(0 2.987)">
          <path id="Path_10191" data-name="Path 10191" d="M253.614,105.964a.11.11,0,0,1-.109-.1,17.374,17.374,0,0,0-1.2-4.375.11.11,0,0,1,.2-.086,17.609,17.609,0,0,1,1.22,4.43.11.11,0,0,1-.094.124Z" transform="translate(-252.292 -101.341)" fill="#1b4541"/>
        </g>
      </g>
    </g>
    <g id="Group_13660" data-name="Group 13660" transform="translate(187.751 131.854)">
      <g id="Group_13656" data-name="Group 13656" transform="translate(1.223)">
        <g id="Group_13654" data-name="Group 13654" transform="translate(0 9.35)">
          <path id="Path_10192" data-name="Path 10192" d="M526.271,296.041a.907.907,0,0,0,.238-.448.628.628,0,0,0-.427-.605,1.708,1.708,0,0,0-.787-.055,16.138,16.138,0,0,0-10,4.857c-.393.409-1.652,1.491-1.424,2.125.267.744,1.6.382,2.121.279a17.843,17.843,0,0,0,5.379-2.015A17.547,17.547,0,0,0,526.271,296.041Z" transform="translate(-513.841 -294.913)" fill="#00b9a7"/>
        </g>
        <g id="Group_13655" data-name="Group 13655" transform="translate(1.768)">
          <path id="Path_10193" data-name="Path 10193" d="M522.188,273.388a6.788,6.788,0,0,0,.771-1.646,17.631,17.631,0,0,0,.621-4.912,6.643,6.643,0,0,0-.206-2.351c-.044-.129-.113-.272-.246-.3a.4.4,0,0,0-.27.06,3.481,3.481,0,0,0-1.346,1.636,18.955,18.955,0,0,0-1.583,4.56,6.507,6.507,0,0,0-.038,3.523C520.488,275.43,521.617,274.252,522.188,273.388Z" transform="translate(-519.656 -264.168)" fill="#00b9a7"/>
        </g>
      </g>
      <g id="Group_13659" data-name="Group 13659" transform="translate(0 6.725)">
        <g id="Group_13657" data-name="Group 13657">
          <path id="Path_10194" data-name="Path 10194" d="M509.931,296.862a.11.11,0,0,0,.088-.044,26.643,26.643,0,0,0,4.746-10.4.11.11,0,1,0-.215-.046,26.422,26.422,0,0,1-4.707,10.315.11.11,0,0,0,.088.176Z" transform="translate(-509.821 -286.283)" fill="#1b4541"/>
        </g>
        <g id="Group_13658" data-name="Group 13658" transform="translate(2.491 7.414)">
          <path id="Path_10195" data-name="Path 10195" d="M518.122,312.838a.108.108,0,0,0,.058-.016,18.119,18.119,0,0,1,4.312-1.944.11.11,0,0,0-.063-.211,18.322,18.322,0,0,0-4.365,1.967.11.11,0,0,0,.058.2Z" transform="translate(-518.012 -310.662)" fill="#1b4541"/>
        </g>
      </g>
    </g>
    <g id="Group_13661" data-name="Group 13661" transform="translate(120.438 87.47)">
      <rect id="Rectangle_1144" data-name="Rectangle 1144" width="69.425" height="101.413" transform="translate(0 0)" fill="#1b4541"/>
    </g>
    <g id="Group_13662" data-name="Group 13662" transform="translate(118.068 87.47)">
      <rect id="Rectangle_1145" data-name="Rectangle 1145" width="69.425" height="101.413" transform="translate(0 0)" fill="#fff"/>
    </g>
    <g id="Group_13663" data-name="Group 13663" transform="translate(110.012 87.47)">
      <rect id="Rectangle_1146" data-name="Rectangle 1146" width="69.425" height="101.413" transform="translate(0 0)" fill="#007469"/>
      <text id="Research_Paper_Writing_Guide" data-name="Research Paper 
Writing Guide" transform="translate(9.99 32.579)" fill="#fff" font-size="7" font-family="SofiaPro-Bold, Sofia Pro" font-weight="700"><tspan x="0" y="0">Research Paper </tspan><tspan x="0" y="9">Writing Guide</tspan></text>
    </g>
    <g id="Group_13664" data-name="Group 13664" transform="translate(106.384 85.729)">
      <rect id="Rectangle_1147" data-name="Rectangle 1147" width="3.744" height="104.895" fill="#1b4541"/>
    </g>
    <g id="Group_13668" data-name="Group 13668" transform="translate(181.917 88.559)">
      <g id="Group_13665" data-name="Group 13665" transform="translate(0.055 0)">
        <path id="Path_10196" data-name="Path 10196" d="M490.893,178.9a.074.074,0,0,1-.074-.073v-56.95a.073.073,0,0,1,.147,0v56.95A.073.073,0,0,1,490.893,178.9Z" transform="translate(-490.819 -121.8)" fill="#8c3c31"/>
      </g>
      <g id="Group_13666" data-name="Group 13666" transform="translate(0 61.989)">
        <path id="Path_10197" data-name="Path 10197" d="M490.711,339.426a.074.074,0,0,1-.074-.073V325.711a.073.073,0,1,1,.147,0v13.642A.073.073,0,0,1,490.711,339.426Z" transform="translate(-490.637 -325.637)" fill="#8c3c31"/>
      </g>
      <g id="Group_13667" data-name="Group 13667" transform="translate(3.227 42.247)">
        <path id="Path_10198" data-name="Path 10198" d="M501.322,317.815a.074.074,0,0,1-.074-.073v-56.95a.073.073,0,1,1,.147,0v56.95A.073.073,0,0,1,501.322,317.815Z" transform="translate(-501.248 -260.719)" fill="#8c3c31"/>
      </g>
    </g>
    <g id="Group_13669" data-name="Group 13669" transform="translate(179.364 87.397)">
      <path id="Path_10199" data-name="Path 10199" d="M482.315,219.539a.074.074,0,0,1-.073-.073V118.052a.073.073,0,0,1,.147,0V219.465A.074.074,0,0,1,482.315,219.539Z" transform="translate(-482.242 -117.979)" fill="#8c3c31"/>
    </g>
    <g id="Group_13670" data-name="Group 13670" transform="translate(120.642 140.386)">
      <path id="Path_10200" data-name="Path 10200" d="M334.8,292.369H289.22a.073.073,0,0,1,0-.147H334.8a.073.073,0,0,1,0,.147Z" transform="translate(-289.147 -292.222)" fill="#8c3c31"/>
    </g>
    <g id="Group_13671" data-name="Group 13671" transform="translate(120.642 146.587)">
      <path id="Path_10201" data-name="Path 10201" d="M334.8,312.76H289.22a.073.073,0,0,1,0-.147H334.8a.073.073,0,0,1,0,.147Z" transform="translate(-289.147 -312.613)" fill="#8c3c31"/>
    </g>
    <g id="Group_13672" data-name="Group 13672" transform="translate(120.642 152.788)">
      <path id="Path_10202" data-name="Path 10202" d="M334.8,333.152H289.22a.073.073,0,0,1,0-.147H334.8a.073.073,0,0,1,0,.147Z" transform="translate(-289.147 -333.005)" fill="#8c3c31"/>
    </g>
    <g id="Group_13680" data-name="Group 13680" transform="translate(151.533 180.87)">
      <g id="Group_13676" data-name="Group 13676">
        <g id="Group_13674" data-name="Group 13674" transform="translate(2.211 1.762)">
          <path id="Path_10213" data-name="Path 10213" d="M405.465,431.212a.675.675,0,0,1,.384-.064.5.5,0,0,1,.338.477,1.389,1.389,0,0,1-.15.608,12.507,12.507,0,0,1-5.962,6.294c-.394.192-1.487.863-1.895.529-.479-.392.108-1.3.309-1.67a13.968,13.968,0,0,1,2.771-3.538A13.274,13.274,0,0,1,405.465,431.212Z" transform="translate(-397.998 -431.138)" fill="#00b9a7"/>
        </g>
        <g id="Group_13675" data-name="Group 13675">
          <path id="Path_10214" data-name="Path 10214" d="M391.943,425.661a.613.613,0,0,1,.21-.273.431.431,0,0,1,.5.1,1.177,1.177,0,0,1,.259.474,10.984,10.984,0,0,1-.159,7.576c-.142.359-.453,1.445-.912,1.481-.538.043-.694-.888-.778-1.24a12.176,12.176,0,0,1-.285-3.908A11.883,11.883,0,0,1,391.943,425.661Z" transform="translate(-390.728 -425.344)" fill="#00b9a7"/>
        </g>
      </g>
      <g id="Group_13679" data-name="Group 13679" transform="translate(1.108 5.026)">
        <g id="Group_13677" data-name="Group 13677" transform="translate(0.611 2.361)">
          <path id="Path_10215" data-name="Path 10215" d="M396.491,452.7a.11.11,0,0,1-.089-.175,17.054,17.054,0,0,1,2.649-2.86.11.11,0,1,1,.143.167,16.835,16.835,0,0,0-2.615,2.823A.11.11,0,0,1,396.491,452.7Z" transform="translate(-396.381 -449.634)" fill="#1b4541"/>
        </g>
        <g id="Group_13678" data-name="Group 13678">
          <path id="Path_10216" data-name="Path 10216" d="M394.482,445.159h-.018a.11.11,0,0,1-.091-.127,11.637,11.637,0,0,0,.1-3.041.11.11,0,1,1,.219-.022,11.855,11.855,0,0,1-.1,3.1A.11.11,0,0,1,394.482,445.159Z" transform="translate(-394.371 -441.87)" fill="#1b4541"/>
        </g>
      </g>
    </g>
    <g id="Group_13722" data-name="Group 13722" transform="translate(47.003 96.372)">
      <g id="Group_13685" data-name="Group 13685" transform="translate(46.581 0)">
        <g id="Group_13681" data-name="Group 13681" transform="matrix(0.799, 0.602, -0.602, 0.799, 34.03, 5.215)" opacity="0.44">
          <circle id="Ellipse_183" data-name="Ellipse 183" cx="14.667" cy="14.667" r="14.667" fill="#fcfafa"/>
        </g>
        <g id="Group_13733" data-name="Group 13733" transform="matrix(0.799, 0.602, -0.602, 0.799, 31.694, 1.128)">
          <g id="Group_13682" data-name="Group 13682" transform="translate(2.192)">
            <path id="Path_10217" data-name="Path 10217" d="M223.9,180.565a16.568,16.568,0,1,1,5.892-1.092A16.482,16.482,0,0,1,223.9,180.565Zm.012-30.015a13.5,13.5,0,1,0,5.5,1.185A13.476,13.476,0,0,0,223.916,150.549Z" transform="translate(-207.384 -147.493)" fill="#ff7a07"/>
          </g>
          <g id="Group_13683" data-name="Group 13683" transform="translate(0.194 29.587)">
            <rect id="Rectangle_1148" data-name="Rectangle 1148" width="27.555" height="3.055" transform="matrix(0.409, -0.913, 0.913, 0.409, 0, 25.145)" fill="#ff7a07"/>
          </g>
          <g id="Group_13684" data-name="Group 13684" transform="translate(0 39.349)">
            <path id="Rectangle_1149" data-name="Rectangle 1149" d="M1.28,0h0a1.28,1.28,0,0,1,1.28,1.28V16.889a1.28,1.28,0,0,1-1.28,1.28h0A1.28,1.28,0,0,1,0,16.889V1.28A1.28,1.28,0,0,1,1.28,0Z" transform="matrix(0.913, 0.409, -0.409, 0.913, 7.431, 0)" fill="#ff7a07"/>
            <path id="Path_10218" data-name="Path 10218" d="M202.291,294.731a1.419,1.419,0,0,1-.582-.125l-.125-.056a1.432,1.432,0,0,1-.721-1.89l6.44-14.368a1.43,1.43,0,0,1,1.89-.721l.125.056a1.43,1.43,0,0,1,.72,1.89L203.6,293.885A1.432,1.432,0,0,1,202.291,294.731Zm6.318-16.848a.994.994,0,0,0-.908.587l-6.44,14.369a1,1,0,0,0,.5,1.314l.125.056a1,1,0,0,0,1.313-.5l6.439-14.369a.995.995,0,0,0-.5-1.313l-.125-.056A.992.992,0,0,0,208.609,277.883Z" transform="translate(-200.567 -277.275)" fill="#ff7a07"/>
          </g>
        </g>
      </g>
      <g id="Group_13721" data-name="Group 13721" transform="translate(-1 29.045)">
        <g id="Group_13688" data-name="Group 13688" transform="translate(29.713 70.034)">
          <g id="Group_13686" data-name="Group 13686" transform="translate(0.121)">
            <path id="Path_10219" data-name="Path 10219" d="M150.612,487.708a7.829,7.829,0,0,0-.314,1.583c-.072,1.177,1.418,1.8,2.251,2.375.373.256.78.484,1.134.764.207.163.345.432.652.443l-9.229-.338c.024,0,1.194-7.019,1.361-7.548a2.654,2.654,0,0,1,1-1.552,2.922,2.922,0,0,1,1.559-.275c.868.009,1.91.127,2.294.906a2.413,2.413,0,0,1-.093,1.767C151.03,486.445,150.8,487.072,150.612,487.708Z" transform="translate(-145.106 -483.157)" fill="#f7c7cc"/>
          </g>
          <g id="Group_13687" data-name="Group 13687" transform="translate(0 9.156)">
            <path id="Path_10220" data-name="Path 10220" d="M144.743,513.263l-.035,1.223,11.044.667c.584-.294-1.087-1.111-1.867-1.515Z" transform="translate(-144.708 -513.263)" fill="#ff7a07"/>
          </g>
        </g>
        <g id="Group_13691" data-name="Group 13691" transform="translate(0 44.898)">
          <g id="Group_13689" data-name="Group 13689" transform="translate(1.954 0.562)">
            <path id="Path_10221" data-name="Path 10221" d="M60.047,408.9a12.368,12.368,0,0,0-1.226-.821.857.857,0,0,0-1.044.028q-1.248.6-2.466,1.269c-.4.217-.785.476-1.2.665-.24.11-.541.112-.69.38l4.484-8.074c.785.392,1.411,1.019,2.172,1.454l.713.408c1.853,1.06,4.2,1.8,4.51,4.222a1.833,1.833,0,0,1-.249,1.33,1.589,1.589,0,0,1-1.286.563,4.746,4.746,0,0,1-3.161-.968C60.421,409.2,60.235,409.045,60.047,408.9Z" transform="translate(-53.427 -402.349)" fill="#f7c7cc"/>
          </g>
          <g id="Group_13690" data-name="Group 13690">
            <path id="Path_10222" data-name="Path 10222" d="M53.676,401.087,52.6,400.5,47,410.045c0,.654,1.483-.466,2.2-.977Z" transform="translate(-47.003 -400.502)" fill="#ff7a07"/>
          </g>
        </g>
        <g id="Group_13693" data-name="Group 13693" transform="translate(9.491 29.419)">
          <g id="Group_13692" data-name="Group 13692">
            <path id="Path_10223" data-name="Path 10223" d="M104.916,354.569c-.422-.344-.942-.55-1.419-.9-.693-.508-1.317-1.159-2.015-1.686a10.283,10.283,0,0,0-4.92-2.356,2.218,2.218,0,0,0-1.5.264c-.278.191-.478.481-.764.661a13.351,13.351,0,0,1-1.347.461,7.185,7.185,0,0,0-1.963,2.012,19.2,19.2,0,0,0-1.826,2.607,8.357,8.357,0,0,0-1.2,4.368c.042,1.049.308,2.1.445,3.135q.22,1.67.438,3.341c.084.643.168,1.286.284,1.924.083.456.181.91.25,1.369a13.625,13.625,0,0,1,.075,3.113c-.064.759-.111.722-.77.363-.559-.305-1.1-.637-1.658-.953q-1.994-1.138-4-2.248c-.516-.285-1.422-1.241-2.061-1.11-.865.178-3.373,4.935-2.612,5.444l3.278,2.191,8,4.748c3.861,2.251,6.477-.754,7.306-4.378a27.162,27.162,0,0,0,.586-5.451,45.338,45.338,0,0,0,.011-6.719c.272.033.134.076.406.109s2.188,4.732,2.464,5.31q.666,1.394,1.279,2.813c.577,1.333,1.688,2.982,1.588,4.487a4.574,4.574,0,0,1-.314,1.216,75.053,75.053,0,0,0-2.521,8.731c-.338,1.505-.616,3.02-.872,4.542-.144.857.614.64,1.259.712a11.645,11.645,0,0,0,3.331.248c.353-.061,1.019-.042,1.294-.261.372-.3.587-1.45.745-1.9.482-1.362,4.888-12.589,4.983-12.924a2.77,2.77,0,0,0,.055-.891,25.2,25.2,0,0,0-1.9-7.243c-.637-1.806-1.508-3.614-2.295-5.377-.512-1.147-1.069-2.271-1.614-3.4a4.084,4.084,0,0,1,.064-3.159,3.637,3.637,0,0,0,.038-2.426A2.056,2.056,0,0,0,104.916,354.569Z" transform="translate(-78.213 -349.604)" fill="#ff7a07"/>
          </g>
        </g>
        <g id="Group_13694" data-name="Group 13694" transform="translate(20.523 52.944)">
          <path id="Path_10224" data-name="Path 10224" d="M114.888,429.463a4.981,4.981,0,0,1-.368-2.5l.217.024a4.775,4.775,0,0,0,.352,2.394Z" transform="translate(-114.489 -426.96)" fill="#1b3866"/>
        </g>
        <g id="Group_13695" data-name="Group 13695" transform="translate(49.389 11.939)">
          <path id="Path_10225" data-name="Path 10225" d="M211.573,297.152c-.2.245-.361.54-.679.584-.546.077-1.194-.7-1.332-1.239a5.288,5.288,0,0,1-.156-1.068,1.555,1.555,0,0,1,.134-.483c.038-.046.075-.091.109-.134a12.111,12.111,0,0,1,1.39-1.65,2.133,2.133,0,0,1,.172-.2,2.976,2.976,0,0,1,.624-.441q.316-.182.635-.358a.193.193,0,0,1,.172-.031.159.159,0,0,1,.071.168.386.386,0,0,1-.086.165,3.879,3.879,0,0,1-.317.366c-.03.03-.271.2-.184.255a.067.067,0,0,0,.043.006,1.721,1.721,0,0,0,.6-.268l.647-.348c.171-.091.652-.459.608.056s-.478.753-.833.96c-.031.018.043.072.075.055.278-.146.753-.622.945-.069a.471.471,0,0,1-.037.387.039.039,0,0,0-.008.034c.008.02.035.006.052-.006a.14.14,0,0,1,.156-.009c.16.094.168.414.1.567.289.154,0,.53-.181.6-.333.138-.653.345-.973.517a6.016,6.016,0,0,0-.767.464A8.112,8.112,0,0,0,211.573,297.152Z" transform="translate(-209.407 -292.125)" fill="#f7c7cc"/>
        </g>
        <g id="Group_13696" data-name="Group 13696" transform="translate(25.26 43.707)">
          <path id="Path_10226" data-name="Path 10226" d="M136.465,398.136c-2.13-.389-4.283-.839-6.4-1.337l.05-.212c2.112.5,4.261.946,6.388,1.334Z" transform="translate(-130.066 -396.587)" fill="#1b3866"/>
        </g>
        <g id="Group_13706" data-name="Group 13706" transform="translate(17.83 11.817)">
          <g id="Group_13697" data-name="Group 13697">
            <path id="Path_10227" data-name="Path 10227" d="M106.12,312.789a2.839,2.839,0,0,0,1.977.607,1.641,1.641,0,0,0,.294,1.48c.789,1.086,2.086,1.424,3.288,1.846a27.916,27.916,0,0,0,4.288,1.2,12.338,12.338,0,0,0,6.523-.4c2.568-.969,3.064-2.833,3.713-5.264.086-.324.123-.962.385-1.177.212-.174.784-.2,1.057-.323a5.869,5.869,0,0,0,.962-.55,20.017,20.017,0,0,0,3.3-3.245c1.5-1.662,3.157-3.524,4.509-5.237.914-1.158,1.743-2.383,2.69-3.516a2.318,2.318,0,0,0,.506-.8c.338-1.159-1.172-1.562-1.887-2.014a3.687,3.687,0,0,0-.661-.4,1.068,1.068,0,0,0-1.1.387c-1.154,1.114-2.167,2.357-3.213,3.569-.578.671-1.164,1.339-1.8,1.948a7.833,7.833,0,0,1-1.786,1.593.645.645,0,0,1-.655-.021.959.959,0,0,1-.288-.618,35.66,35.66,0,0,0-1.261-5.983,3.838,3.838,0,0,0-.855-1.482,4.1,4.1,0,0,0-1.719-.809l-3.709-1.077-.1-.029a27.237,27.237,0,0,0-8.132-.737,3.779,3.779,0,0,0-1.091.136,2.765,2.765,0,0,0-1.67,1.906,75.874,75.874,0,0,0-2.366,8.544c-.545,2.52-1.054,5.042-1.506,7.579C105.659,310.807,105.386,312.051,106.12,312.789Z" transform="translate(-105.634 -291.723)" fill="#007469"/>
          </g>
          <g id="Group_13704" data-name="Group 13704" transform="translate(22.681 3.09)">
            <g id="Group_13698" data-name="Group 13698" transform="translate(7.783)">
              <path id="Path_10228" data-name="Path 10228" d="M205.916,302.489a.109.109,0,0,1-.1-.157.793.793,0,0,1,1.273-.22.109.109,0,0,1-.154.155.575.575,0,0,0-.922.16A.109.109,0,0,1,205.916,302.489Z" transform="translate(-205.807 -301.883)" fill="#142238"/>
            </g>
            <g id="Group_13699" data-name="Group 13699" transform="translate(0 1.28)">
              <path id="Path_10229" data-name="Path 10229" d="M180.323,313.705a.109.109,0,0,1-.088-.174,16.7,16.7,0,0,1,1.831-1.986c.346-.337.7-.685,1.038-1.043.283-.3.559-.626.826-.937l.2-.227c.945-1.1,1.941-2.18,2.958-3.213a.109.109,0,0,1,.155.153c-1.014,1.03-2.006,2.107-2.948,3.2l-.195.227c-.268.313-.546.637-.832.944-.337.362-.7.712-1.045,1.051a16.529,16.529,0,0,0-1.807,1.96A.11.11,0,0,1,180.323,313.705Z" transform="translate(-180.214 -306.091)" fill="#142238"/>
            </g>
            <g id="Group_13700" data-name="Group 13700" transform="translate(8.764 1.813)">
              <path id="Path_10230" data-name="Path 10230" d="M209.141,311.865a.109.109,0,0,1-.081-.182c.54-.6,1.05-1.234,1.542-1.851l.385-.481a2.1,2.1,0,0,0,.509-.907.5.5,0,0,0-.09-.414.109.109,0,1,1,.155-.153.686.686,0,0,1,.151.6,2.291,2.291,0,0,1-.555,1.008l-.384.48c-.494.62-1.006,1.261-1.551,1.862A.109.109,0,0,1,209.141,311.865Z" transform="translate(-209.032 -307.845)" fill="#142238"/>
            </g>
            <g id="Group_13701" data-name="Group 13701" transform="translate(8.141 5.934)">
              <path id="Path_10231" data-name="Path 10231" d="M207.093,322.2a.108.108,0,0,1-.063-.02.11.11,0,0,1-.026-.152l.416-.586a.109.109,0,0,1,.178.126l-.416.586A.11.11,0,0,1,207.093,322.2Z" transform="translate(-206.984 -321.397)" fill="#142238"/>
            </g>
            <g id="Group_13702" data-name="Group 13702" transform="translate(3.023 7.196)">
              <path id="Path_10232" data-name="Path 10232" d="M190.264,331.024a.107.107,0,0,1-.072-.028.109.109,0,0,1-.009-.154l4.686-5.259a.109.109,0,1,1,.163.145l-4.686,5.259A.108.108,0,0,1,190.264,331.024Z" transform="translate(-190.155 -325.547)" fill="#142238"/>
            </g>
            <g id="Group_13703" data-name="Group 13703" transform="translate(0.06 7.536)">
              <path id="Path_10233" data-name="Path 10233" d="M180.521,327.119a.109.109,0,0,1-.063-.2,1.39,1.39,0,0,1,.9-.252.109.109,0,0,1-.007.218h-.007a1.221,1.221,0,0,0-.755.213A.108.108,0,0,1,180.521,327.119Z" transform="translate(-180.412 -326.665)" fill="#142238"/>
            </g>
          </g>
          <g id="Group_13705" data-name="Group 13705" transform="translate(16.01 9.372)">
            <path id="Path_10234" data-name="Path 10234" d="M163.4,332.507a2.962,2.962,0,0,1-.43-.031,3.354,3.354,0,0,1-2.029-1.142,5.726,5.726,0,0,1-.977-1.833,42.568,42.568,0,0,1-1.68-6.833.109.109,0,0,1,.215-.04,42.44,42.44,0,0,0,1.669,6.8,5.553,5.553,0,0,0,.938,1.765,3.139,3.139,0,0,0,1.9,1.069,2.981,2.981,0,0,0,2.256-.632.109.109,0,0,1,.134.173A3.254,3.254,0,0,1,163.4,332.507Z" transform="translate(-158.28 -322.539)" fill="#142238"/>
          </g>
        </g>
        <g id="Group_13707" data-name="Group 13707" transform="translate(18.937)">
          <path id="Path_10235" data-name="Path 10235" d="M123.057,260.6a4.371,4.371,0,0,0,.127,1.584,6.715,6.715,0,0,1,.215.809,3.643,3.643,0,0,1-.39,1.705,5.2,5.2,0,0,0-.235.832,3.4,3.4,0,0,0-.17.757c.017.311.3.527.546.722a5.313,5.313,0,0,1,1.953,3.717,2.541,2.541,0,0,1-.257,1.459,2.71,2.71,0,0,1-1.909,1.118,12.4,12.4,0,0,0-2.234.443,11.462,11.462,0,0,0-2.546,1.859,2.891,2.891,0,0,1-2.933.626c-.668-.34-1.037-1.057-1.521-1.629a3.317,3.317,0,0,0-1.78-1.238c-.723-.063-1.217.287-1.9-.247a2.045,2.045,0,0,1-.731-1.856,2.4,2.4,0,0,1,1.117-1.684c.644-.4.958-.635,1.116-1.377a5.6,5.6,0,0,0,.108-1.808,2.513,2.513,0,0,1,2.775-2.562c1.725.1,2.509-2.77,1.575-3.412a2.586,2.586,0,0,1-.915-2.327c.094-1.23,1.335-2.021,2.3-2.577q1.249-.721,2.5-1.433c.585-.334,1.675-1.285,2.374-1.216a.9.9,0,0,1,.494.253,2.011,2.011,0,0,1,.612,1.027,4.861,4.861,0,0,1-.217,2.159,4.319,4.319,0,0,0,.141,2.132,5.427,5.427,0,0,1-.2,2.065C123.067,260.538,123.062,260.571,123.057,260.6Z" transform="translate(-109.274 -252.866)" fill="#f6e4ca"/>
        </g>
        <g id="Group_13708" data-name="Group 13708" transform="translate(28.157 0.612)">
          <path id="Path_10236" data-name="Path 10236" d="M142.341,255a.624.624,0,0,1,.691-.041,1.468,1.468,0,0,1,.508.523c.566.869.813,2.061,1.57,2.779a10.038,10.038,0,0,0,1.327,1.059.858.858,0,0,1,.268.237c.184.295-.379.869-.558,1.084.3.71.641,1.284.9,2.01a1.59,1.59,0,0,1,.13.7c-.119,1.013-1.329.782-1.885,1.356a3.65,3.65,0,0,0-.576,1.657,8.868,8.868,0,0,1-.153.986.783.783,0,0,1-.242.41c-.06.04-.529.139-.567.071-.363-.667.143-1.512.136-2.219a1.141,1.141,0,0,0-.525-1.005c-.475-.258-1.038-.043-1.508-.356a.555.555,0,0,1-.2-.734c.035-.084.083-.161.119-.244a1.225,1.225,0,0,0-.2-1.181.165.165,0,0,0-.09-.072.168.168,0,0,0-.066,0,1.432,1.432,0,0,1-1.823-1.3,1.1,1.1,0,0,1,.9-1.137.526.526,0,0,1,.457.145c.346-.109.559-.5.711-.835A7.983,7.983,0,0,0,142.341,255Z" transform="translate(-139.59 -254.878)" fill="#f7c7cc"/>
        </g>
        <g id="Group_13717" data-name="Group 13717" transform="translate(28.709 0.805)">
          <g id="Group_13709" data-name="Group 13709" transform="translate(0.222 3.326)">
            <path id="Path_10237" data-name="Path 10237" d="M142.539,267.566a.054.054,0,0,1-.054-.049,2.175,2.175,0,0,0-.342-.98.054.054,0,1,1,.091-.06,2.279,2.279,0,0,1,.359,1.029.054.054,0,0,1-.049.059Z" transform="translate(-142.134 -266.452)" fill="#f9c08c"/>
          </g>
          <g id="Group_13710" data-name="Group 13710" transform="translate(0.367 3.145)">
            <path id="Path_10238" data-name="Path 10238" d="M143.132,267.3h0a.054.054,0,0,1-.053-.056,1.958,1.958,0,0,0-.453-1.3.054.054,0,1,1,.083-.07,2.067,2.067,0,0,1,.478,1.374A.054.054,0,0,1,143.132,267.3Z" transform="translate(-142.613 -265.854)" fill="#f9c08c"/>
          </g>
          <g id="Group_13711" data-name="Group 13711" transform="translate(1.005)">
            <path id="Path_10239" data-name="Path 10239" d="M144.766,259.752a.056.056,0,0,1-.033-.011.055.055,0,0,1-.011-.077,5.529,5.529,0,0,0,1.048-4.088.055.055,0,0,1,.046-.062.057.057,0,0,1,.062.046,5.569,5.569,0,0,1-1.07,4.171A.054.054,0,0,1,144.766,259.752Z" transform="translate(-144.712 -255.514)" fill="#f9c08c"/>
          </g>
          <g id="Group_13712" data-name="Group 13712" transform="translate(3.633 3.082)">
            <path id="Path_10240" data-name="Path 10240" d="M153.631,266.418a.1.1,0,0,0,.091-.062.254.254,0,0,0,.018-.114c0-.123-.134-.781-.347-.542C153.269,265.839,153.442,266.41,153.631,266.418Z" transform="translate(-153.351 -265.648)" fill="#8c3d31"/>
          </g>
          <g id="Group_13713" data-name="Group 13713" transform="translate(3.051 2.476)">
            <path id="Path_10241" data-name="Path 10241" d="M151.492,264.172a.056.056,0,0,1-.026-.006.055.055,0,0,1-.022-.074.844.844,0,0,1,.653-.433.056.056,0,0,1,.059.049.055.055,0,0,1-.049.06.742.742,0,0,0-.567.376A.055.055,0,0,1,151.492,264.172Z" transform="translate(-151.437 -263.658)" fill="#8c3d31"/>
          </g>
          <g id="Group_13714" data-name="Group 13714" transform="translate(5.538 4.72)">
            <path id="Path_10242" data-name="Path 10242" d="M159.669,271.718l-.013,0a.054.054,0,0,1-.04-.066,2.519,2.519,0,0,1,.23-.588.054.054,0,1,1,.1.052,2.435,2.435,0,0,0-.22.562A.055.055,0,0,1,159.669,271.718Z" transform="translate(-159.615 -271.034)" fill="#8c3d31"/>
          </g>
          <g id="Group_13715" data-name="Group 13715" transform="translate(4.804 6.625)">
            <path id="Path_10243" data-name="Path 10243" d="M158.02,278.254a.924.924,0,0,1-.437-.109.7.7,0,0,1-.15-.106.991.991,0,0,1-.229-.664v-.015a.054.054,0,0,1,.033-.055.052.052,0,0,1,.063.014.664.664,0,0,0,.526.2,1.93,1.93,0,0,0,.579-.149.055.055,0,0,1,.07.032.054.054,0,0,1-.032.07,2.046,2.046,0,0,1-.613.156.793.793,0,0,1-.5-.136.746.746,0,0,0,.182.47.592.592,0,0,0,.126.089.81.81,0,0,0,.731.017.055.055,0,1,1,.048.1A.889.889,0,0,1,158.02,278.254Z" transform="translate(-157.203 -277.3)" fill="#8c3d31"/>
          </g>
          <g id="Group_13716" data-name="Group 13716" transform="translate(0 5.301)">
            <path id="Path_10244" data-name="Path 10244" d="M142.124,273.438a.879.879,0,0,1-.213-.025.752.752,0,0,1-.5-.39.054.054,0,0,1,.1-.048.644.644,0,0,0,.428.332.9.9,0,0,0,.56-.058.055.055,0,0,1,.043.1A1.064,1.064,0,0,1,142.124,273.438Z" transform="translate(-141.406 -272.945)" fill="#8c3d31"/>
          </g>
        </g>
        <g id="Group_13718" data-name="Group 13718" transform="translate(20.925 24.504)">
          <path id="Path_10245" data-name="Path 10245" d="M115.918,338.537l-.019,0a.109.109,0,0,1-.089-.126c.278-1.622.6-3.264.965-4.882a.109.109,0,0,1,.213.048c-.362,1.614-.685,3.253-.963,4.871A.109.109,0,0,1,115.918,338.537Z" transform="translate(-115.809 -333.443)" fill="#142238"/>
        </g>
        <g id="Group_13719" data-name="Group 13719" transform="translate(20.264 30.258)">
          <path id="Path_10246" data-name="Path 10246" d="M113.747,355.025l-.019,0a.108.108,0,0,1-.088-.126l.424-2.444a.105.105,0,0,1,.126-.089.109.109,0,0,1,.088.126l-.424,2.444A.109.109,0,0,1,113.747,355.025Z" transform="translate(-113.638 -352.363)" fill="#142238"/>
        </g>
        <g id="Group_13720" data-name="Group 13720" transform="translate(29.14 7.159)">
          <path id="Path_10247" data-name="Path 10247" d="M143.517,277.791a.693.693,0,1,1,.693-.693A.693.693,0,0,1,143.517,277.791Zm0-.949a.256.256,0,1,0,.256.256A.257.257,0,0,0,143.517,276.842Z" transform="translate(-142.825 -276.406)" fill="#f49e5f"/>
        </g>
      </g>
    </g>
  </g>
</svg>
