<svg xmlns="http://www.w3.org/2000/svg" width="56" height="56" viewBox="0 0 56 56">
  <g id="Group_13769" data-name="Group 13769" transform="translate(-987 -591)">
    <rect id="Rectangle_955" data-name="Rectangle 955" width="56" height="56" rx="8" transform="translate(987 591)" fill="#f0f8fd"/>
    <g id="received" transform="translate(999.246 604.727)">
      <path id="Path_5163" data-name="Path 5163" d="M151.652,3.953l1.313.875V.168h-3.632v4.66l1.313-.875A.906.906,0,0,1,151.652,3.953Zm0,0" transform="translate(-136.619)" fill="#1b4541"/>
      <path id="Path_5164" data-name="Path 5164" d="M19.978,24.687a8.182,8.182,0,0,1,8.173-8.173,8,8,0,0,1,.908.092V1.076a.908.908,0,0,0-.908-.908H18.162V6.524a.908.908,0,0,1-1.412.756L14.53,5.8,12.309,7.28A.908.908,0,0,1,10.9,6.524V.168H.908A.908.908,0,0,0,0,1.076V24.687a.908.908,0,0,0,.908.908H20.07a7.994,7.994,0,0,1-.092-.908Zm0,0" transform="translate(0 0)" fill="#1b4541"/>
      <path id="Path_5165" data-name="Path 5165" d="M262.357,213.5a6.357,6.357,0,1,0,6.356,6.357A6.357,6.357,0,0,0,262.357,213.5Zm2,6.091-1.816,1.816a.907.907,0,0,1-1.284,0l-.908-.908a.908.908,0,0,1,1.284-1.284l.266.266,1.174-1.174a.908.908,0,0,1,1.284,1.284Zm0,0" transform="translate(-234.206 -195.17)" fill="#1b4541"/>
    </g>
  </g>
</svg>
