<svg xmlns="http://www.w3.org/2000/svg" width="142" height="953" viewBox="0 0 142 953">
  <g id="Group_11025" data-name="Group 11025" transform="translate(-604 -752)">
    <path id="Path_5425" data-name="Path 5425" d="M5238.323-10034.615s-116.647,122.6-116.647,276.185S5238.323-9542.4,5238.323-9385.2s-114.709,276.552-114.709,276.552" transform="translate(-4506 10802)" fill="none" stroke="#eee" stroke-width="1"/>
    <g id="Group_11021" data-name="Group 11021" transform="translate(51 42)">
      <g id="Ellipse_166" data-name="Ellipse 166" transform="translate(671 710)" fill="#fff" stroke="#e5e5e5" stroke-width="1">
        <circle cx="12" cy="12" r="12" stroke="none"/>
        <circle cx="12" cy="12" r="11.5" fill="none"/>
      </g>
      <circle id="Ellipse_165" data-name="Ellipse 165" cx="4" cy="4" r="4" transform="translate(679 718)" fill="#1b4541"/>
    </g>
    <g id="Group_11022" data-name="Group 11022" transform="translate(-67 339)">
      <g id="Ellipse_166-2" data-name="Ellipse 166" transform="translate(671 710)" fill="#fff" stroke="#e5e5e5" stroke-width="1">
        <circle cx="12" cy="12" r="12" stroke="none"/>
        <circle cx="12" cy="12" r="11.5" fill="none"/>
      </g>
      <circle id="Ellipse_165-2" data-name="Ellipse 165" cx="4" cy="4" r="4" transform="translate(679 718)" fill="#1b4541"/>
    </g>
    <g id="Group_11023" data-name="Group 11023" transform="translate(49 659)">
      <g id="Ellipse_166-3" data-name="Ellipse 166" transform="translate(671 710)" fill="#fff" stroke="#e5e5e5" stroke-width="1">
        <circle cx="12" cy="12" r="12" stroke="none"/>
        <circle cx="12" cy="12" r="11.5" fill="none"/>
      </g>
      <circle id="Ellipse_165-3" data-name="Ellipse 165" cx="4" cy="4" r="4" transform="translate(679 718)" fill="#1b4541"/>
    </g>
    <g id="Group_11024" data-name="Group 11024" transform="translate(-67 971)">
      <g id="Ellipse_166-4" data-name="Ellipse 166" transform="translate(671 710)" fill="#fff" stroke="#e5e5e5" stroke-width="1">
        <circle cx="12" cy="12" r="12" stroke="none"/>
        <circle cx="12" cy="12" r="11.5" fill="none"/>
      </g>
      <circle id="Ellipse_165-4" data-name="Ellipse 165" cx="4" cy="4" r="4" transform="translate(679 718)" fill="#1b4541"/>
    </g>
  </g>
</svg>
