<svg xmlns="http://www.w3.org/2000/svg" width="148.75" height="121.197" viewBox="0 0 148.75 121.197">
  <g id="Group_13589" data-name="Group 13589" transform="translate(-1499.164 -535.271)">
    <path id="Path_10103" data-name="Path 10103" d="M1606.7,916.669a23.773,23.773,0,0,1-4.467-2.774l-1.622,6.818q3.409-2.257,6.089-4.044Zm89.548-62.113a9.346,9.346,0,0,0-.47.87q1.5.823,3.174,1.763,2.656,1.481,5.031,2.774.47-.071.988-.118a49.319,49.319,0,0,1,5.736,14.388,115.345,115.345,0,0,1,2.563,21.041q.023.329.024.635,6.512-1.223,13.189-1.951a19.106,19.106,0,0,0,1.857-5.619,40.538,40.538,0,0,0,.4-9.592,75.409,75.409,0,0,0-2.186-15.14,44.071,44.071,0,0,0-3.057-8.2,4.254,4.254,0,0,1,.423-.118q1.387-.423,2.821-.87a7.565,7.565,0,0,0-.541-4.067,7.371,7.371,0,0,0-3.691-4.091q-3.2-1.552-7.875-.353a36.28,36.28,0,0,0-3.785,1.317q-2.962,1.175-3.738,1.434-1.34.47-4,1.293a19.781,19.781,0,0,0-3.832,1.716,8.947,8.947,0,0,0-3.033,2.892Z" transform="translate(-87.796 -268.384)" fill="#7e57c2"/>
    <path id="Path_10104" data-name="Path 10104" d="M1627.313,641.4a37.947,37.947,0,0,1-11.825-7.782l-2.821,11.9a23.768,23.768,0,0,0,4.467,2.774Q1627.148,641.631,1627.313,641.4Zm72.6-102.667a4.494,4.494,0,0,0-1.27-2.28,4.332,4.332,0,0,0-2.986-1.175,6.613,6.613,0,0,0-3.291.776,10.935,10.935,0,0,0-2.586,2.045q-.729.752-2.186,2.586l-.047.071a27.354,27.354,0,0,1,2.422,1.316,23.213,23.213,0,0,1,6.7,5.971q.588-.893,1.152-1.834.964-1.646,1.293-2.328a9.087,9.087,0,0,0,.823-2.492,6.065,6.065,0,0,0-.024-2.657Z" transform="translate(-98.23 0)" fill="#fbc02d"/>
    <path id="Path_10105" data-name="Path 10105" d="M1640.357,708.173a3.991,3.991,0,0,1-2.445-.846l-4.279,5.689a37.947,37.947,0,0,0,11.826,7.782q1.975-2.751,4-5.454l.235-.329q5.36-7.1,11.167-13.941a.912.912,0,0,0-.071-.188,56.013,56.013,0,0,1-4.232-16.48,181.383,181.383,0,0,1-10.673,19.536q-2.68,4.138-5.525,4.232Zm61.478-80.873a.068.068,0,0,0-.047-.023q-.753-.141-1.5-.259l-20.406,24.591A48.061,48.061,0,0,1,1694.311,653q3.009-3.6,12.648-15.516,1.27-1.6,2.657-3.315-1.269-1.27-2.21-2.163A59.012,59.012,0,0,0,1701.835,627.3Z" transform="translate(-116.375 -79.402)" fill="#1cceac"/>
    <path id="Path_10106" data-name="Path 10106" d="M1695.177,644.2q1.388-.188,2.8-.259l20.406-24.591q-23.322-3.691-38.532,4.044a43.344,43.344,0,0,0-14.717,12.249,48.654,48.654,0,0,0-8.628,17.185,55.2,55.2,0,0,0-1.787,19.113,62.753,62.753,0,0,0,2.116,12.225q.329-.8.658-1.622,1.763-4.208,2.656-6.324,2.516-5.807,4-8.745a55.55,55.55,0,0,1,5.008-8.182,39.632,39.632,0,0,1,26.025-15.093Zm10.744,60.984a27.413,27.413,0,0,1-2.986-1.1,35.346,35.346,0,0,1-5.854-2.962,18.552,18.552,0,0,1-2.4-1.834q.188.353.376.729a11.887,11.887,0,0,1,1.176,5.548,5.928,5.928,0,0,1-.517,2.539,2.8,2.8,0,0,1-1.763,1.622q-1.716.541-4.114-1.458a39.743,39.743,0,0,1-10.885-14.858q-5.807,6.841-11.167,13.941l-.235.329a110.056,110.056,0,0,0,71.893,13.565,71.657,71.657,0,0,0,18.173-5.125,43.784,43.784,0,0,0,15.14-10.626,37.072,37.072,0,0,0,5.831-8.7q-2.727.211-5.431.517-6.677.729-13.189,1.951-3.691.682-7.312,1.528-3.62.823-10.861,2.539a55.872,55.872,0,0,1-11.05,1.293,29.911,29.911,0,0,1-11.05-2,21.462,21.462,0,0,1-6.042-3.573q.07.188.141.353a4.4,4.4,0,0,1,.141,2.751,4.331,4.331,0,0,1-1.881,2.421,6.024,6.024,0,0,1-3.009.987,10.306,10.306,0,0,1-3.127-.376Zm36.534-46.408a9.313,9.313,0,0,1,.47-.87,8.946,8.946,0,0,1,3.033-2.892,19.779,19.779,0,0,1,3.832-1.716q2.656-.823,4-1.293.776-.259,3.738-1.434a36.307,36.307,0,0,1,3.785-1.317q4.679-1.2,7.876.353a7.371,7.371,0,0,1,3.691,4.091,7.566,7.566,0,0,1,.541,4.067q1.952-.611,3.973-1.27a51.245,51.245,0,0,0-4.749-7.9,66.136,66.136,0,0,0-23.275-19.348,93.037,93.037,0,0,0-18.149-7.1q-1.834,2.281-3.5,4.349-1.387,1.716-2.657,3.315-9.639,11.919-12.648,15.516.235.047.494.118a84.073,84.073,0,0,1,16.9,6.442q3.1,1.552,12.648,6.888Z" transform="translate(-134.473 -71.733)" fill="#b2dfdb"/>
    <path id="Path_10107" data-name="Path 10107" d="M1764.646,824.027a44.06,44.06,0,0,1,3.056,8.2,75.408,75.408,0,0,1,2.186,15.14,40.552,40.552,0,0,1-.4,9.592,19.109,19.109,0,0,1-1.857,5.619q2.7-.306,5.431-.517a42.153,42.153,0,0,0,3.785-19.254,50.11,50.11,0,0,0-4.984-21.041q-2.022.658-3.973,1.269-1.434.447-2.821.87A4.284,4.284,0,0,0,1764.646,824.027Zm-24.544,1.787q-1.669-.94-3.174-1.763-9.545-5.337-12.648-6.888a84.062,84.062,0,0,0-16.9-6.442q-.259-.071-.494-.117a48.057,48.057,0,0,0-14.435-1.387q-1.411.07-2.8.259a39.633,39.633,0,0,0-26.025,15.093,55.537,55.537,0,0,0-5.008,8.181q-1.481,2.939-4,8.746-.893,2.116-2.657,6.324-.329.823-.658,1.622-1.082,2.656-1.857,4.749a25.42,25.42,0,0,0-1.058,3.432,9.216,9.216,0,0,0-.117,3.5,5.958,5.958,0,0,0,1.575,3.221,5.553,5.553,0,0,0,.635.588,3.993,3.993,0,0,0,2.445.846q2.845-.094,5.525-4.232a181.482,181.482,0,0,0,10.673-19.537,56.012,56.012,0,0,0,4.232,16.48.92.92,0,0,1,.071.188,39.742,39.742,0,0,0,10.885,14.858q2.4,2,4.114,1.458a2.8,2.8,0,0,0,1.763-1.622,5.927,5.927,0,0,0,.517-2.539,11.884,11.884,0,0,0-1.175-5.548q-.188-.376-.376-.729a18.55,18.55,0,0,0,2.4,1.834,35.355,35.355,0,0,0,5.854,2.962,27.4,27.4,0,0,0,2.986,1.1,10.311,10.311,0,0,0,3.127.376,6.024,6.024,0,0,0,3.009-.987,4.331,4.331,0,0,0,1.881-2.421,4.4,4.4,0,0,0-.141-2.751q-.07-.165-.141-.353a21.46,21.46,0,0,0,6.042,3.573,29.912,29.912,0,0,0,11.05,2,55.863,55.863,0,0,0,11.05-1.293q7.241-1.716,10.861-2.539,3.621-.846,7.312-1.528,0-.306-.023-.635a115.36,115.36,0,0,0-2.562-21.041,49.319,49.319,0,0,0-5.736-14.388q-.517.047-.987.117-2.375-1.293-5.031-2.774Z" transform="translate(-128.946 -237.009)" fill="#f48fb1"/>
    <path id="Path_10108" data-name="Path 10108" d="M2130.478,623.95q-.541-.4-1.082-.776l-.423.517Q2129.725,623.809,2130.478,623.95Z" transform="translate(-545.065 -76.075)" fill="#29b6f6"/>
    <path id="Path_10109" data-name="Path 10109" d="M2133.2,583.121a.068.068,0,0,1,.047.024,58.94,58.94,0,0,1,5.572,4.7q.94.893,2.21,2.163,1.669-2.069,3.5-4.349l.846-1.034q.423-.658.846-1.34a23.215,23.215,0,0,0-6.7-5.971A27.415,27.415,0,0,0,2137.1,576l-4.984,6.348Q2132.659,582.722,2133.2,583.121Z" transform="translate(-547.787 -35.247)" fill="#1976d2"/>
    <path id="Path_10110" data-name="Path 10110" d="M1631.2,725.962c-.086,0-.166,0-.243-.006a4.181,4.181,0,0,1-2.012-.545l-.033-.021a4.782,4.782,0,0,1-1.2-1.139l-.037-.05c-.3-.412-.469-.635-.565-.752a3.221,3.221,0,0,0-1.93-.919,7.1,7.1,0,0,0-2.731.122c-.187.045-.9.237-3.108.87a16.1,16.1,0,0,1-3.542.693,1.568,1.568,0,0,1-.174-3.132,13.359,13.359,0,0,0,2.844-.574c2.466-.707,3.05-.86,3.275-.914a10.2,10.2,0,0,1,3.939-.162,6.273,6.273,0,0,1,3.762,1.92l.049.056c.177.213.408.517.707.93a2.014,2.014,0,0,0,.363.38,1.234,1.234,0,0,0,.524.1,6.45,6.45,0,0,0,1.111-.081c9.953-1.4,16.182-2.275,18.5-2.586a1.568,1.568,0,1,1,.417,3.109c-2.309.31-8.531,1.18-18.491,2.585A11.21,11.21,0,0,1,1631.2,725.962Zm27.7-19.611a1.565,1.565,0,0,1-1.27-.647,6.148,6.148,0,0,0-1.762-1.825l-.067-.039a2.482,2.482,0,0,0-1.149-.362,2.207,2.207,0,0,0-1.094.238,1.568,1.568,0,1,1-1.4-2.806,5.364,5.364,0,0,1,2.678-.563,5.661,5.661,0,0,1,2.57.8,9.172,9.172,0,0,1,2.764,2.717,1.569,1.569,0,0,1-1.268,2.49Zm10.65-3.408a1.57,1.57,0,0,1-1.526-1.937,3.48,3.48,0,0,1,1.4-2.03,4.27,4.27,0,0,1,2.01-.8,8.948,8.948,0,0,1,3.473.335l2.073.519a1.568,1.568,0,0,1-.753,3.045l-.008,0-2.069-.517a6.1,6.1,0,0,0-2.224-.281l-.07.01a1.145,1.145,0,0,0-.57.216l-.038.027c-.152.107-.168.177-.178.214A1.569,1.569,0,0,1,1669.541,702.943Zm-48.9-7.57a1.569,1.569,0,0,1-1.281-2.471,9.792,9.792,0,0,0,1.658-4.092,4.63,4.63,0,0,0,.011-1.37,1.126,1.126,0,0,0-.41-.665,1.568,1.568,0,0,1,2.022-2.4,4.249,4.249,0,0,1,1.467,2.466,7.7,7.7,0,0,1,.019,2.383q0,.027-.008.054a12.905,12.905,0,0,1-2.193,5.426,1.567,1.567,0,0,1-1.284.666Zm1.929-6.341,69.481-66.938a1.568,1.568,0,0,1-1.21-2.565l2.786-3.385a1.568,1.568,0,1,1,2.425,1.99l0,0-2.786,3.385a1.565,1.565,0,0,1-1.212.572Z" transform="translate(-99.501 -69.495)" fill="#7e57c2"/>
    <path id="Path_10111" data-name="Path 10111" d="M2055.138,621.634a1.569,1.569,0,0,1-1.182-2.6,10.323,10.323,0,0,1,4.962-2.822c.969-.3,2.173-.628,3.564-.963.476-.124,2.022-.627,6.529-2.276a1.568,1.568,0,0,1,1.078,2.946c-3.764,1.378-6,2.154-6.844,2.372q-2.028.49-3.408.92a7.563,7.563,0,0,0-3.516,1.884A1.565,1.565,0,0,1,2055.138,621.634ZM2010.4,606.353a1.568,1.568,0,0,1-1.21-2.565l16.362-19.889a1.568,1.568,0,1,1,2.422,1.993h0l-16.362,19.889A1.565,1.565,0,0,1,2010.4,606.353Zm19.454-23.651a1.569,1.569,0,0,1-1.21-2.565l3.985-4.843a1.568,1.568,0,0,1,2.422,1.993l-3.985,4.843A1.565,1.565,0,0,1,2029.853,582.7Z" transform="translate(-441.09 -34.147)" fill="#fff"/>
    <path id="Path_10112" data-name="Path 10112" d="M1694.851,757a1.568,1.568,0,0,1-1.21-2.565l14.2-17.268a1.568,1.568,0,0,1,2.422,1.992l-14.2,17.268A1.565,1.565,0,0,1,1694.851,757Zm49.064-64.933a1.568,1.568,0,0,1-1.21-2.565l13.059-15.869a1.568,1.568,0,1,1,2.422,1.993L1745.127,691.5a1.565,1.565,0,0,1-1.212.572Z" transform="translate(-168 -119.253)" fill="#0097a7"/>
    <path id="Path_10113" data-name="Path 10113" d="M1829.307,923.186a1.564,1.564,0,0,1-1.126-.476,12.694,12.694,0,0,0-3.455-2.428,33.218,33.218,0,0,0-3.436-1.435,1.569,1.569,0,0,1-.939-1.993c.77-2.187,1.331-3.883,1.666-5.04a18.356,18.356,0,0,0,.518-2.111l-.389-.147a10.6,10.6,0,0,1-4.451-3.563,1.568,1.568,0,0,1,2.443-1.968,7.821,7.821,0,0,0,3.094,2.588l1.545.585.017.006q.922.315,1.5.523a11.9,11.9,0,0,0,5.705.594,13.54,13.54,0,0,0,3.344-1.522c.028-.016.057-.031.086-.046l.051-.025a19.559,19.559,0,0,1,3.954-1.84,1.568,1.568,0,1,1,.854,3.018h0a16.644,16.644,0,0,0-3.3,1.571l-.074.039-.055.027a16.437,16.437,0,0,1-4.169,1.837,14.522,14.522,0,0,1-7.173-.61c-.13.626-.3,1.274-.5,1.938-.267.923-.674,2.182-1.211,3.745.93.37,1.7.71,2.327,1.03a15.77,15.77,0,0,1,4.293,3.045,1.568,1.568,0,0,1-1.125,2.66Zm-19.864-.529a1.568,1.568,0,0,1-1.378-.817,16.824,16.824,0,0,1-1.443-3.708,26.384,26.384,0,0,1-.639-3.3c0-.025-.006-.051-.008-.076-.279-3.388-.536-5.928-.766-7.549a41.98,41.98,0,0,1-.556-5.11,8.142,8.142,0,0,1,1.738-5.366,7.737,7.737,0,0,1,2.535-1.878,23.972,23.972,0,0,1,2.583-.992c5.63-1.85,11.683-3.662,18-5.385a1.568,1.568,0,1,1,.826,3.026c-6.263,1.709-12.264,3.505-17.837,5.337a21.339,21.339,0,0,0-2.218.845,4.625,4.625,0,0,0-1.5,1.089,5.13,5.13,0,0,0-.982,3.337,38.625,38.625,0,0,0,.524,4.647c.239,1.686.5,4.274.784,7.7a23.187,23.187,0,0,0,.555,2.868,13.686,13.686,0,0,0,1.165,3.012,1.569,1.569,0,0,1-1.375,2.321Zm56.75-1.834h-.012c-4.307-.032-7.615-.161-9.832-.384a35.912,35.912,0,0,1-9.738-2.245,25.636,25.636,0,0,1-2.478-1.151,1.568,1.568,0,0,1,1.473-2.77,22.406,22.406,0,0,0,2.175,1.01,32.81,32.81,0,0,0,8.884,2.035c2.119.213,5.329.337,9.539.368a1.568,1.568,0,0,1-.011,3.137Zm-74.409-20.171a1.568,1.568,0,0,1-1.564-1.474,24,24,0,0,1,.055-4.106,11.467,11.467,0,0,1,1.594-4.865,13.145,13.145,0,0,1,6.4-4.869c.326-.135.666-.268,1.018-.4.377-.133.747-.257,1.13-.377a105.542,105.542,0,0,1,15.014-3.18,100.028,100.028,0,0,0,14.537-3.113,1.568,1.568,0,0,1,.988,2.977,102.828,102.828,0,0,1-15.036,3.234,102.769,102.769,0,0,0-14.545,3.068c-.363.114-.7.226-1.022.34-.294.108-.6.226-.888.347a10.16,10.16,0,0,0-4.935,3.637,8.392,8.392,0,0,0-1.135,3.553,20.979,20.979,0,0,0-.04,3.561,1.568,1.568,0,0,1-1.471,1.66l-.1,0Z" transform="translate(-251.839 -296.779)" fill="#ec407a"/>
    <path id="Path_10114" data-name="Path 10114" d="M2400.925,983.476a1.568,1.568,0,0,1-1.567-1.532,75.129,75.129,0,0,0-2.142-16,143.452,143.452,0,0,0-4.6-14.363,1.568,1.568,0,1,1,2.948-1.072h0a146.371,146.371,0,0,1,4.706,14.7,78.247,78.247,0,0,1,2.229,16.666,1.569,1.569,0,0,1-1.532,1.6Z" transform="translate(-773.147 -358.468)" fill="#fbc02d"/>
    <path id="Path_10115" data-name="Path 10115" d="M1508.75,856.831a1.569,1.569,0,0,1-1.436-.937l-8.017-18.2a1.568,1.568,0,0,1,1.772-2.164l11.688,2.566-1.013-18.038a1.568,1.568,0,1,1,3.131-.183v.008l1.128,20.1a1.568,1.568,0,0,1-1.9,1.62l-10.689-2.347,6.771,15.37a1.569,1.569,0,0,1-1.434,2.2Z" transform="translate(0 -245.035)" fill="#ffca28"/>
  </g>
</svg>
