<svg id="price-down" xmlns="http://www.w3.org/2000/svg" width="17.445" height="28.811" viewBox="0 0 17.445 28.811">
  <path id="Path_5390" data-name="Path 5390" d="M118.445,8.723a8.723,8.723,0,1,0-8.723,8.723,8.723,8.723,0,0,0,8.723-8.723Zm-7.879,4.136v1.1h-1.688v-1.1a2.48,2.48,0,0,1-2.1-2.448h1.688a.789.789,0,0,0,.788.788h.929a.817.817,0,0,0,0-1.634h-.913a2.505,2.505,0,0,1-.388-4.98v-1.1h1.688v1.1a2.51,2.51,0,0,1,2.1,2.472h-1.688a.819.819,0,0,0-.818-.818h-.892a.817.817,0,0,0,0,1.634h.913a2.505,2.505,0,0,1,.388,4.98Z" transform="translate(-101)" fill="#1b4541"/>
  <path id="Path_5391" data-name="Path 5391" d="M262.858,295.483a10.371,10.371,0,0,1-5.078,2.369V301.9h-1.7v1.531l4.234,4.234,4.234-4.234V301.9h-1.7Z" transform="translate(-247.359 -278.857)" fill="#1b4541"/>
  <path id="Path_5392" data-name="Path 5392" d="M112.233,297.852a10.371,10.371,0,0,1-5.078-2.369v3.72h-1.7v1.531l4.234,4.234,4.234-4.234V299.2h-1.7Z" transform="translate(-105.209 -278.857)" fill="#1b4541"/>
</svg>
