<svg xmlns="http://www.w3.org/2000/svg" xmlns:xlink="http://www.w3.org/1999/xlink" width="30" height="30" viewBox="0 0 30 30">
  <defs>
    <clipPath id="clip-path">
      <rect id="Rectangle_1096" data-name="Rectangle 1096" width="30" height="30" transform="translate(-325 -8926)" fill="#1b4541" stroke="#707070" stroke-width="1"/>
    </clipPath>
  </defs>
  <g id="_100_Anonymity" data-name="100%Anonymity" transform="translate(325 8926)" clip-path="url(#clip-path)">
    <g id="anonymous-message" transform="translate(-323.027 -8922.476)">
      <path id="Path_5399" data-name="Path 5399" d="M79.39.5H73.26a5.3,5.3,0,0,0-3.065,1.274A5.3,5.3,0,0,0,67.13.5H61a.765.765,0,0,0-.766.763V5.334a5.87,5.87,0,0,0,5.875,5.852H67.13a4.5,4.5,0,0,1,2.523,1.3.768.768,0,0,0,1.084,0,4.54,4.54,0,0,1,2.523-1.3h1.022a5.87,5.87,0,0,0,5.875-5.852V1.263A.764.764,0,0,0,79.39.5ZM66.364,8.133c-1.719,0-3.065-1.006-3.065-2.29s1.346-2.29,3.065-2.29,3.065,1.006,3.065,2.29S68.082,8.133,66.364,8.133Zm7.662,0c-1.719,0-3.065-1.006-3.065-2.29s1.346-2.29,3.065-2.29,3.065,1.006,3.065,2.29S75.745,8.133,74.026,8.133Zm0,0" transform="translate(-57.168)" fill="#1b4541"/>
      <path id="Path_5400" data-name="Path 5400" d="M302.708,90.5c-.935,0-1.532.452-1.532.763s.6.763,1.532.763,1.532-.452,1.532-.763S303.644,90.5,302.708,90.5Zm0,0" transform="translate(-285.85 -85.42)" fill="#1b4541"/>
      <path id="Path_5401" data-name="Path 5401" d="M152.122,90.5c-.936,0-1.532.452-1.532.763s.6.763,1.532.763,1.532-.452,1.532-.763S153.058,90.5,152.122,90.5Zm0,0" transform="translate(-142.926 -85.42)" fill="#1b4541"/>
      <path id="Path_5402" data-name="Path 5402" d="M24.521,63.078v1.65a7.4,7.4,0,0,1-7.407,7.378H16.092a3.4,3.4,0,0,0-1.439.856,2.3,2.3,0,0,1-3.248,0,3.342,3.342,0,0,0-1.442-.859H8.94a7.4,7.4,0,0,1-7.407-7.378v-1.65A2.294,2.294,0,0,0,0,65.237V78.975a2.3,2.3,0,0,0,2.3,2.29H6.131v3.816a.767.767,0,0,0,1.191.635l6.7-4.451h9.729a2.3,2.3,0,0,0,2.3-2.29V65.237a2.294,2.294,0,0,0-1.532-2.159ZM13.027,74.141H14.56a.763.763,0,1,1,0,1.527H13.027a.763.763,0,1,1,0-1.527Zm-4.6,4.58H5.364a.763.763,0,1,1,0-1.527H8.43a.763.763,0,1,1,0,1.527Zm1.532-3.053h-4.6a.763.763,0,1,1,0-1.527h4.6a.763.763,0,1,1,0,1.527Zm6.13,3.053h-4.6a.763.763,0,1,1,0-1.527h4.6a.763.763,0,1,1,0,1.527Zm4.6-3.053H17.625a.763.763,0,1,1,0-1.527H20.69a.763.763,0,1,1,0,1.527Zm0,0" transform="translate(0 -59.394)" fill="#1b4541"/>
    </g>
  </g>
</svg>
