<svg xmlns="http://www.w3.org/2000/svg" width="20.921" height="20.921" viewBox="0 0 20.921 20.921">
  <path id="arrow-right" d="M15.05,11.031l-3.221,3.222A.817.817,0,0,1,10.673,13.1l1.819-1.819H6.429a.817.817,0,1,1,0-1.634h6.063L10.673,7.824a.817.817,0,0,1,1.156-1.156l3.221,3.221A.817.817,0,0,1,15.05,11.031Zm5.871-4.969v8.8A5.891,5.891,0,0,1,18.9,19.245a5.683,5.683,0,0,1-4.045,1.676h-8.8a5.683,5.683,0,0,1-4.045-1.676A5.891,5.891,0,0,1,0,14.858v-8.8A5.891,5.891,0,0,1,2.018,1.676,5.683,5.683,0,0,1,6.063,0h8.8A5.683,5.683,0,0,1,18.9,1.676a5.891,5.891,0,0,1,2.018,4.387Zm-1.634,0a4.318,4.318,0,0,0-1.539-3.231h0a4.059,4.059,0,0,0-2.889-1.2h-8.8a4.059,4.059,0,0,0-2.889,1.2A4.291,4.291,0,0,0,1.634,6.063v8.8A4.318,4.318,0,0,0,3.173,18.09a4.059,4.059,0,0,0,2.889,1.2h8.8a4.059,4.059,0,0,0,2.889-1.2,4.291,4.291,0,0,0,1.539-3.231Z" transform="translate(0 0)" fill="#fff"/>
</svg>
