<svg xmlns="http://www.w3.org/2000/svg" xmlns:xlink="http://www.w3.org/1999/xlink" width="30" height="30" viewBox="0 0 30 30">
  <defs>
    <clipPath id="clip-path">
      <rect id="Rectangle_120" data-name="Rectangle 120" width="30" height="30" fill="#1b4541" stroke="#707070" stroke-width="1"/>
    </clipPath>
  </defs>
  <g id="AuthenticWriting" clip-path="url(#clip-path)">
    <g id="Group_649" data-name="Group 649" transform="translate(2.132 1.86)">
      <g id="Group_648" data-name="Group 648">
        <path id="Path_1378" data-name="Path 1378" d="M770.281,468.469a5.343,5.343,0,0,0,1.059,1.453c.625.535,1.208,1.121,1.8,1.691a.661.661,0,0,0,.847.192.648.648,0,0,0,.273-.821c-.234-.973-.434-1.954-.7-2.918a9.083,9.083,0,0,0-.885-1.655,3.435,3.435,0,0,1-2.287,1.783C770.185,468.241,770.191,468.315,770.281,468.469Z" transform="translate(-748.758 -446.714)" fill="#1b4541"/>
        <path id="Path_1379" data-name="Path 1379" d="M775.061,425.628a1.7,1.7,0,0,0,.292-1,1.652,1.652,0,0,0-.25-.914q-1.4-2.518-2.8-5.036a5.68,5.68,0,0,0-1.566-1.784c-.7-.53-1.408-1.055-2.112-1.581a2.079,2.079,0,0,0-1.34-.448c-.423.012-.443.04-.237.4q1.8,3.122,3.6,6.241c.79,1.367,1.611,2.716,2.358,4.106C773.58,426.682,774.515,426.465,775.061,425.628Z" transform="translate(-748.941 -408.718)" fill="#1b4541"/>
        <path id="Path_1380" data-name="Path 1380" d="M789.042,474.312a1.8,1.8,0,0,0,3.395.567c.067-.133.122-.272.183-.409.145.085.133.244.191.363a1.809,1.809,0,0,0,2.726.666c.156-.12.21-.216.094-.4q-.411-.665-.786-1.352a.354.354,0,0,0-.363-.2c-1.5.005-3,0-4.495,0a1.991,1.991,0,0,0-.866.351C788.95,473.984,789.025,474.173,789.042,474.312Z" transform="translate(-775.086 -451.974)" fill="#1b4541"/>
        <path id="Path_1381" data-name="Path 1381" d="M793.98,414.231c-1.248-2.162-2.505-4.319-3.736-6.491-.208-.366-.36-.4-.7-.174-.632.409-1.295.775-1.956,1.138-.218.119-.264.213-.134.438q2.529,4.36,5.041,8.732a.42.42,0,0,0,.432.23c.495-.01.99,0,1.485,0,.467,0,.936-.015,1.4.006.327.014.384-.056.211-.349C795.334,416.587,794.66,415.407,793.98,414.231Z" transform="translate(-775.082 -403.234)" fill="#1b4541"/>
        <path id="Path_1382" data-name="Path 1382" d="M817.876,393.949c-.376-.623-.725-1.261-1.1-1.887a1.025,1.025,0,0,0-1.513-.405c-.289.157-.572.326-.855.5a1.079,1.079,0,0,0-.5.862,1.268,1.268,0,0,0,.158.544c.376.655.76,1.3,1.127,1.965.11.2.195.248.408.119q1.075-.648,2.176-1.254C818.014,394.258,818,394.151,817.876,393.949Z" transform="translate(-803.899 -391.479)" fill="#1b4541"/>
        <path id="Path_1383" data-name="Path 1383" d="M781.035,424.677c.024,1.539.01,3.079.01,4.62s.008,3.08-.007,4.62a.46.46,0,0,0,.367.526,10.676,10.676,0,0,0,8.73-.643,2.409,2.409,0,0,1,1.176-.28c1.925.016,3.849.008,5.774.007a1.791,1.791,0,0,0,1.921-1.809,1.816,1.816,0,0,0-1.932-1.813c-2.008-.006-4.016,0-6.023,0a1.649,1.649,0,0,1-.448-.035.739.739,0,0,1-.509-.8.712.712,0,0,1,.669-.671,5.425,5.425,0,0,1,.906-.013c.327.018.384-.062.211-.353-.711-1.206-1.408-2.42-2.108-3.632-.535-.926-1.078-1.85-1.6-2.786-.155-.283-.282-.3-.564-.154-1.538.819-3.094,1.6-4.631,2.421a2.358,2.358,0,0,1-1.482.364C781.149,424.186,781.03,424.3,781.035,424.677Z" transform="translate(-776.303 -413.506)" fill="#1b4541"/>
        <path id="Path_1384" data-name="Path 1384" d="M855.185,432.9q0,2.741,0,5.482c0,.679.27.95.943.954.453,0,.906,0,1.36,0a.813.813,0,0,0,.906-.92c.005-1.016,0-2.033,0-3.05v-7.872c0-.8-.246-1.045-1.06-1.046-.44,0-.88-.005-1.32,0a.753.753,0,0,0-.832.846Q855.181,430.094,855.185,432.9Z" transform="translate(-855.184 -417.25)" fill="#1b4541"/>
        <path id="Path_1385" data-name="Path 1385" d="M781.039,433.916a.46.46,0,0,0,.367.526,10.676,10.676,0,0,0,8.73-.643,2.409,2.409,0,0,1,1.176-.28c1.925.016,3.849.008,5.774.007a1.791,1.791,0,0,0,1.921-1.809,1.816,1.816,0,0,0-1.932-1.813c-2.008-.006-4.016,0-6.023,0a1.649,1.649,0,0,1-.448-.035.739.739,0,0,1-.509-.8.712.712,0,0,1,.669-.671,5.425,5.425,0,0,1,.906-.013c.327.018.384-.062.211-.353-.711-1.206-1.408-2.42-2.108-3.632-.535-.926-1.078-1.85-1.6-2.786-.155-.283-.282-.3-.564-.154-1.538.819-3.094,1.6-4.631,2.421a2.358,2.358,0,0,1-1.482.364c-.35-.052-.47.059-.464.438.024,1.539.01,3.079.01,4.62S781.053,432.376,781.039,433.916Z" transform="translate(-776.303 -413.506)" fill="#1b4541"/>
        <path id="Path_1386" data-name="Path 1386" d="M855.185,432.9q0,2.741,0,5.482c0,.679.27.95.943.954.453,0,.906,0,1.36,0a.813.813,0,0,0,.906-.92c.005-1.016,0-2.033,0-3.05v-7.872c0-.8-.246-1.045-1.06-1.046-.44,0-.88-.005-1.32,0a.753.753,0,0,0-.832.846Q855.181,430.094,855.185,432.9Z" transform="translate(-855.184 -417.25)" fill="#1b4541"/>
        <path id="Path_1387" data-name="Path 1387" d="M787.453,409.141q2.529,4.36,5.041,8.732a.42.42,0,0,0,.432.23c.495-.01.99,0,1.485,0,.467,0,.936-.015,1.4.006.327.014.384-.056.211-.349-.69-1.17-1.363-2.349-2.043-3.526-1.248-2.162-2.505-4.319-3.736-6.491-.208-.366-.36-.4-.7-.174-.632.409-1.295.775-1.956,1.138C787.369,408.822,787.322,408.916,787.453,409.141Z" transform="translate(-775.082 -403.234)" fill="#1b4541"/>
        <path id="Path_1388" data-name="Path 1388" d="M767.046,415.263q1.8,3.122,3.6,6.241c.79,1.367,1.611,2.716,2.358,4.106.576,1.071,1.51.855,2.056.017a1.7,1.7,0,0,0,.292-1,1.652,1.652,0,0,0-.25-.914q-1.4-2.518-2.8-5.036a5.68,5.68,0,0,0-1.566-1.784c-.7-.53-1.408-1.055-2.112-1.581a2.079,2.079,0,0,0-1.34-.448C766.86,414.877,766.84,414.905,767.046,415.263Z" transform="translate(-748.941 -408.718)" fill="#1b4541"/>
        <path id="Path_1389" data-name="Path 1389" d="M789.042,474.312a1.8,1.8,0,0,0,3.395.567c.067-.133.122-.272.183-.409.145.085.133.244.191.363a1.809,1.809,0,0,0,2.726.666c.156-.12.21-.216.094-.4q-.411-.665-.786-1.352a.354.354,0,0,0-.363-.2c-1.5.005-3,0-4.495,0a1.991,1.991,0,0,0-.866.351C788.95,473.984,789.025,474.173,789.042,474.312Z" transform="translate(-775.086 -451.974)" fill="#1b4541"/>
        <path id="Path_1390" data-name="Path 1390" d="M770.281,468.469a5.343,5.343,0,0,0,1.059,1.453c.625.535,1.208,1.121,1.8,1.691a.661.661,0,0,0,.847.192.648.648,0,0,0,.273-.821c-.234-.973-.434-1.954-.7-2.918a9.083,9.083,0,0,0-.885-1.655,3.435,3.435,0,0,1-2.287,1.783C770.185,468.241,770.191,468.315,770.281,468.469Z" transform="translate(-748.758 -446.714)" fill="#1b4541"/>
        <path id="Path_1391" data-name="Path 1391" d="M813.909,393.015a1.268,1.268,0,0,0,.158.544c.376.655.76,1.3,1.127,1.965.11.2.195.248.408.119q1.075-.648,2.176-1.254c.236-.13.22-.237.1-.439-.376-.623-.725-1.261-1.1-1.887a1.025,1.025,0,0,0-1.513-.405c-.289.157-.572.326-.855.5A1.079,1.079,0,0,0,813.909,393.015Z" transform="translate(-803.899 -391.479)" fill="#1b4541"/>
      </g>
    </g>
  </g>
</svg>
