<svg xmlns="http://www.w3.org/2000/svg" width="15.307" height="18.368" viewBox="0 0 15.307 18.368">
  <path id="balance-sheet" d="M15.2,0H4.1A2.106,2.106,0,0,0,2,2.1V16.263a2.106,2.106,0,0,0,2.1,2.1H15.2a2.106,2.106,0,0,0,2.1-2.1V2.1A2.106,2.106,0,0,0,15.2,0ZM7.954,14.327a.574.574,0,1,1-.811.811l-.551-.55-.551.551a.574.574,0,0,1-.811-.813l.55-.55-.551-.551a.574.574,0,0,1,.812-.812l.551.551.551-.551a.574.574,0,0,1,.812.812l-.551.551ZM7.549,9.758H7.166v.383a.574.574,0,0,1-1.148,0V9.758H5.635a.574.574,0,1,1,0-1.148h.383V8.227a.574.574,0,0,1,1.148,0V8.61h.383a.574.574,0,0,1,0,1.148Zm6.123,5.549H11.758a.574.574,0,0,1,0-1.148h1.913a.574.574,0,1,1,0,1.148Zm0-1.913H11.758a.574.574,0,1,1,0-1.148h1.913a.574.574,0,1,1,0,1.148Zm0-3.444H11.758a.574.574,0,0,1,0-1.148h1.913a.574.574,0,0,1,0,1.148Zm1.339-5.166a1.341,1.341,0,0,1-1.339,1.339H5.635A1.341,1.341,0,0,1,4.3,4.783V3.635A1.341,1.341,0,0,1,5.635,2.3h8.036a1.341,1.341,0,0,1,1.339,1.339Z" transform="translate(-2)" fill="#272727"/>
</svg>
