<svg id="Group_13772" data-name="Group 13772" xmlns="http://www.w3.org/2000/svg" width="58" height="55" viewBox="0 0 58 55">
  <path id="Rectangle_992" data-name="Rectangle 992" d="M15,0H58a0,0,0,0,1,0,0V55a0,0,0,0,1,0,0H0a0,0,0,0,1,0,0V15A15,15,0,0,1,15,0Z" fill="#1b4541"/>
  <g id="copy" transform="translate(16.972 14.379)">
    <path id="Path_5234" data-name="Path 5234" d="M4.28,7.381A5.2,5.2,0,0,1,9.474,2.187H19.46A3,3,0,0,0,16.581,0H4.007A3.009,3.009,0,0,0,1,3.007V19.955a3.009,3.009,0,0,0,3.007,3.007H4.28Z" transform="translate(-1)" fill="#fff"/>
    <path id="Path_5235" data-name="Path 5235" d="M21.581,4H9.007A3.009,3.009,0,0,0,6,7.007V22.862a3.009,3.009,0,0,0,3.007,3.007H21.581a3.009,3.009,0,0,0,3.007-3.007V7.007A3.009,3.009,0,0,0,21.581,4ZM19.394,22.588h-8.2a.82.82,0,1,1,0-1.64h8.2a.82.82,0,0,1,0,1.64Zm0-4.374h-8.2a.82.82,0,1,1,0-1.64h8.2a.82.82,0,0,1,0,1.64Zm0-3.827h-8.2a.82.82,0,1,1,0-1.64h8.2a.82.82,0,1,1,0,1.64Zm0-4.374h-8.2a.82.82,0,0,1,0-1.64h8.2a.82.82,0,0,1,0,1.64Z" transform="translate(-0.533 0.374)" fill="#fff"/>
  </g>
</svg>
