<svg xmlns="http://www.w3.org/2000/svg" width="14.244" height="11.079" viewBox="0 0 14.244 11.079">
  <path id="Icon_awesome-credit-card" data-name="Icon awesome-credit-card" d="M0,12.142a1.187,1.187,0,0,0,1.187,1.187h11.87a1.187,1.187,0,0,0,1.187-1.187V7.789H0ZM4.748,10.46a.3.3,0,0,1,.3-.3H8.408a.3.3,0,0,1,.3.3v.989a.3.3,0,0,1-.3.3H5.045a.3.3,0,0,1-.3-.3Zm-3.165,0a.3.3,0,0,1,.3-.3H3.66a.3.3,0,0,1,.3.3v.989a.3.3,0,0,1-.3.3H1.879a.3.3,0,0,1-.3-.3ZM14.244,3.437V4.624H0V3.437A1.187,1.187,0,0,1,1.187,2.25h11.87A1.187,1.187,0,0,1,14.244,3.437Z" transform="translate(0 -2.25)" fill="#fffcfc"/>
</svg>
