<svg xmlns="http://www.w3.org/2000/svg" width="21.972" height="21.972" viewBox="0 0 21.972 21.972">
  <g id="Group_13769" data-name="Group 13769" transform="translate(-5.086 -2.039)">
    <g id="Degree" transform="translate(5.086 2.039)">
      <path id="Path_5298" data-name="Path 5298" d="M6.278,0h9.417a6.278,6.278,0,0,1,6.278,6.278v9.417a6.278,6.278,0,0,1-6.278,6.278H6.278A6.278,6.278,0,0,1,0,15.694V6.278A6.278,6.278,0,0,1,6.278,0Z" transform="translate(0 0)" fill="#ff7a07"/>
    </g>
    <g id="_x30_1_toga_hat" transform="translate(9.941 8.681)">
      <path id="Path_5279" data-name="Path 5279" d="M10.666,9.577v2.477a.416.416,0,0,1-.117.286,5.306,5.306,0,0,1-7.016,0,.416.416,0,0,1-.117-.286V9.577L6.5,11.12a1.194,1.194,0,0,0,1.079,0Zm2.014.978V7.672l.18-.09a.4.4,0,0,0,0-.72L7.221,4.042a.4.4,0,0,0-.36,0L1.222,6.861a.4.4,0,0,0,0,.721L6.861,10.4a.4.4,0,0,0,.36,0l4.653-2.327v2.481a.805.805,0,1,0,.805,0Z" transform="translate(-1 -3.999)" fill="#fff"/>
    </g>
  </g>
</svg>
