<svg id="Group_13774" data-name="Group 13774" xmlns="http://www.w3.org/2000/svg" width="58" height="55" viewBox="0 0 58 55">
  <path id="Rectangle_992" data-name="Rectangle 992" d="M15,0H58a0,0,0,0,1,0,0V55a0,0,0,0,1,0,0H0a0,0,0,0,1,0,0V15A15,15,0,0,1,15,0Z" fill="#1b4541"/>
  <g id="Group_13773" data-name="Group 13773">
    <g id="Layer_53" data-name="Layer 53" transform="translate(13.151 11.79)">
      <path id="Path_5236" data-name="Path 5236" d="M36.09,26.328l-4.339-2.5,4.339-2.507a.727.727,0,0,0,0-1.256l-4.333-2.507,4.31-2.489a.71.71,0,0,0,.291-.279.727.727,0,0,0-.262-.995L20.974,5.071a.739.739,0,0,0-.727,0L5.126,13.795a.727.727,0,0,0,0,1.262l4.333,2.5L5.12,20.064a.727.727,0,0,0,0,1.256l4.339,2.507-4.333,2.5a.727.727,0,0,0,0,1.262l15.121,8.724a.715.715,0,0,0,.355.081.75.75,0,0,0,.366-.1L36.09,27.573a.733.733,0,0,0,0-1.262ZM6.935,20.693,10.907,18.4l9.305,5.385a.715.715,0,0,0,.361.1.75.75,0,0,0,.366-.1L30.245,18.4l4.025,2.291L20.6,28.585ZM20.6,34.848,6.935,26.962l3.972-2.326,9.305,5.385a.71.71,0,0,0,.721,0l9.334-5.385,3.972,2.326Z" transform="translate(-4.759 -4.976)" fill="#fff"/>
    </g>
  </g>
</svg>
