<svg id="Group_13771" data-name="Group 13771" xmlns="http://www.w3.org/2000/svg" width="58" height="55" viewBox="0 0 58 55">
  <path id="Rectangle_992" data-name="Rectangle 992" d="M15,0H58a0,0,0,0,1,0,0V55a0,0,0,0,1,0,0H0a0,0,0,0,1,0,0V15A15,15,0,0,1,15,0Z" fill="#1b4541"/>
  <g id="order-tracking" transform="translate(14.078 12.173)">
    <path id="Path_5232" data-name="Path 5232" d="M37.462,70.639a3.191,3.191,0,0,0-2.924,1.916H28.925a3.81,3.81,0,0,0-7.195,0H16.117a3.193,3.193,0,1,0,0,2.554H21.73a3.81,3.81,0,0,0,7.195,0h5.613a3.192,3.192,0,1,0,2.924-4.47Zm-12.134,4.47A1.277,1.277,0,1,1,26.6,73.832,1.276,1.276,0,0,1,25.327,75.109Z" transform="translate(-10 -47.009)" fill="#fff"/>
    <path id="Path_5233" data-name="Path 5233" d="M35.608,10a8.94,8.94,0,0,0-6.321,15.263l6.321,5.813,6.323-5.815A8.939,8.939,0,0,0,35.608,10Zm0,12.773a3.832,3.832,0,1,1,3.832-3.832A3.833,3.833,0,0,1,35.608,22.773Z" transform="translate(-20.28 -10)" fill="#fff"/>
  </g>
</svg>
