<svg xmlns="http://www.w3.org/2000/svg" width="56" height="56" viewBox="0 0 56 56">
  <g id="Group_13768" data-name="Group 13768" transform="translate(-987 -591)">
    <g id="Group_10580" data-name="Group 10580">
      <rect id="Rectangle_955" data-name="Rectangle 955" width="56" height="56" rx="8" transform="translate(987 591)" fill="#f0f8fd"/>
    </g>
    <g id="edit" transform="translate(1000.436 604.378)">
      <path id="Union_14" data-name="Union 14" d="M-3138.122,10121.755a7.277,7.277,0,0,1-5.169-2.144,7.283,7.283,0,0,1-2.144-5.169v-13.616a7.283,7.283,0,0,1,2.144-5.169,7.276,7.276,0,0,1,5.167-2.145h7.76c.038,0,.076,0,.114,0a1.467,1.467,0,0,1,1.255.7,1.471,1.471,0,0,1,0,1.557,1.467,1.467,0,0,1-1.255.7c-.038,0-.076,0-.114,0h-7.758a4.375,4.375,0,0,0-4.372,4.369v13.616a4.379,4.379,0,0,0,4.362,4.361h13.626a4.379,4.379,0,0,0,4.362-4.361v-7.758a1.463,1.463,0,0,1,.691-1.369,1.472,1.472,0,0,1,.78-.222,1.47,1.47,0,0,1,.777.222,1.47,1.47,0,0,1,.694,1.369v7.758a7.271,7.271,0,0,1-2.141,5.164,7.277,7.277,0,0,1-5.162,2.148Zm5.416-9.319h0a3.412,3.412,0,0,1-2.614-1.24,3.4,3.4,0,0,1-.729-2.8v0l.338-1.707a9.2,9.2,0,0,1,2.538-4.735l9.351-9.386a3.469,3.469,0,0,1,2.383-.94,3.479,3.479,0,0,1,2.385.94l.013.013,2.736,2.735a3.4,3.4,0,0,1,1,2.418,3.392,3.392,0,0,1-1.006,2.419l-9.282,9.348a9.219,9.219,0,0,1-4.735,2.538l-1.742.338a3.578,3.578,0,0,1-.63.063Zm10.951-17.784-9.338,9.348a6.256,6.256,0,0,0-1.687,3.224l-.34,1.725a.468.468,0,0,0,.127.442l.008.008a.466.466,0,0,0,.437.127l.02,0,1.715-.336a6.294,6.294,0,0,0,3.219-1.689l9.262-9.391a.475.475,0,0,0,0-.674l-2.756-2.756a.478.478,0,0,0-.343-.16A.461.461,0,0,0-3121.755,10094.651Z" transform="translate(3144.936 -10092.066)" fill="#1b4541"/>
    </g>
  </g>
</svg>
