<svg xmlns="http://www.w3.org/2000/svg" width="36.246" height="30.076" viewBox="0 0 36.246 30.076">
  <g id="mail" transform="translate(-0.79 -2.746)">
    <path id="Path_10095" data-name="Path 10095" d="M5.016,4.892A7.326,7.326,0,0,1,10.2,2.746H28.705a7.326,7.326,0,0,1,7.326,7.326V25.5a7.327,7.327,0,0,1-7.326,7.326H13.281a1.157,1.157,0,0,1,0-2.314H28.705A5.013,5.013,0,0,0,33.718,25.5V10.072A5.013,5.013,0,0,0,28.705,5.06H10.2a5.013,5.013,0,0,0-5.013,5.013v7.712a1.157,1.157,0,0,1-2.314,0V10.072A7.327,7.327,0,0,1,5.016,4.892Z" transform="translate(1.005 0)" fill="#ff7a07" fill-rule="evenodd"/>
    <path id="Path_10096" data-name="Path 10096" d="M.79,19.5a1.157,1.157,0,0,1,1.157-1.157H17.371a1.157,1.157,0,1,1,0,2.314H1.947A1.157,1.157,0,0,1,.79,19.5Z" transform="translate(0 7.536)" fill="#ff7a07" fill-rule="evenodd"/>
    <path id="Path_10097" data-name="Path 10097" d="M.79,16.383a1.157,1.157,0,0,1,1.157-1.157h6.17a1.157,1.157,0,0,1,0,2.314H1.947A1.157,1.157,0,0,1,.79,16.383Z" transform="translate(0 6.029)" fill="#ff7a07" fill-rule="evenodd"/>
    <path id="Path_10098" data-name="Path 10098" d="M33.789,4.991a1.157,1.157,0,0,1,.484,1.563c-4.369,8.286-9.6,12.922-15.229,12.92S8.184,14.832,3.815,6.554a1.157,1.157,0,0,1,2.046-1.08c4.284,8.117,8.928,11.684,13.183,11.685s8.9-3.56,13.181-11.685a1.157,1.157,0,0,1,1.563-.484Z" transform="translate(1.397 1.02)" fill="#ff7a07" fill-rule="evenodd"/>
  </g>
</svg>
