<svg xmlns="http://www.w3.org/2000/svg" width="56" height="56" viewBox="0 0 56 56">
  <g id="Group_13767" data-name="Group 13767" transform="translate(-711 -591)">
    <rect id="Rectangle_954" data-name="Rectangle 954" width="56" height="56" rx="8" transform="translate(711 591)" fill="#f0f8fd"/>
    <g id="draft" transform="translate(662.801 602.733)">
      <path id="Path_5406" data-name="Path 5406" d="M84.332,3.285V1.355a1.355,1.355,0,1,0-2.711,0V2.711H77.555V1.355a1.355,1.355,0,0,0-2.711,0V2.711H70.777V1.355a1.355,1.355,0,0,0-2.711,0v1.93A6.782,6.782,0,0,0,64,9.488V25.754a6.785,6.785,0,0,0,6.777,6.777H81.621A6.785,6.785,0,0,0,88.4,25.754V9.488a6.782,6.782,0,0,0-4.067-6.2Zm1.355,22.469a4.071,4.071,0,0,1-4.066,4.066H70.777a4.071,4.071,0,0,1-4.066-4.066V9.488a4.071,4.071,0,0,1,4.066-4.066H81.621a4.071,4.071,0,0,1,4.066,4.066V25.754Z" transform="translate(0)" fill="#1b4541"/>
      <path id="Path_5407" data-name="Path 5407" d="M150.689,130.711h5.422a1.356,1.356,0,0,0,0-2.711h-5.422a1.356,1.356,0,0,0,0,2.711Z" transform="translate(-79.912 -117.867)" fill="#1b4541"/>
      <path id="Path_5408" data-name="Path 5408" d="M158.822,213.333h-8.133a1.355,1.355,0,0,0,0,2.711h8.133a1.355,1.355,0,0,0,0-2.711Z" transform="translate(-79.912 -197.778)" fill="#1b4541"/>
      <path id="Path_5409" data-name="Path 5409" d="M158.822,213.333h-8.133a1.355,1.355,0,0,0,0,2.711h8.133a1.355,1.355,0,0,0,0-2.711Z" transform="translate(-79.912 -192.356)" fill="#1b4541"/>
    </g>
  </g>
</svg>
