<svg xmlns="http://www.w3.org/2000/svg" width="50" height="50" viewBox="0 0 50 50">
  <g id="ExcusiveWorkload" transform="translate(-599 -1558)">
    <path id="Rectangle_970" data-name="Rectangle 970" d="M0,0H39A11,11,0,0,1,50,11V39A11,11,0,0,1,39,50H11A11,11,0,0,1,0,39V0A0,0,0,0,1,0,0Z" transform="translate(599 1558)" fill="#ff7a07"/>
    <g id="overload" transform="translate(610.493 1569.492)">
      <ellipse id="Ellipse_141" data-name="Ellipse 141" cx="3" cy="3.5" rx="3" ry="3.5" transform="translate(17.507 9.507)" fill="#fff"/>
      <path id="Path_5197" data-name="Path 5197" d="M383.493,4.138a1.111,1.111,0,0,1,.618,1v.4a.791.791,0,0,0,1.583,0v-.4A2.686,2.686,0,0,0,384.2,2.722a1.111,1.111,0,0,1-.618-1V.791a.791.791,0,0,0-1.583,0v.931A2.686,2.686,0,0,0,383.493,4.138Z" transform="translate(-361.844)" fill="#fff"/>
      <path id="Path_5198" data-name="Path 5198" d="M313.493,34.138a1.112,1.112,0,0,1,.618,1v.4a.791.791,0,1,0,1.583,0v-.4a2.686,2.686,0,0,0-1.493-2.415,1.111,1.111,0,0,1-.618-1v-.931a.791.791,0,0,0-1.583,0v.931A2.686,2.686,0,0,0,313.493,34.138Z" transform="translate(-295.538 -28.417)" fill="#fff"/>
      <path id="Path_5199" data-name="Path 5199" d="M.791,450a.792.792,0,0,0-.791.791v1.688a.791.791,0,0,0,.791.791H26.223a.791.791,0,0,0,.791-.791V450Z" transform="translate(0 -426.256)" fill="#fff"/>
      <path id="Path_5200" data-name="Path 5200" d="M276.118,314.194a5.011,5.011,0,0,0-2.742-4.062,5,5,0,0,1-7.291,0,5.011,5.011,0,0,0-2.742,4.062l-.145,1.735h13.064Z" transform="translate(-249.311 -293.768)" fill="#fff"/>
      <path id="Path_5201" data-name="Path 5201" d="M30.289,375H20v2.374H31.08v-1.583A.791.791,0,0,0,30.289,375Z" transform="translate(-18.945 -355.214)" fill="#fff"/>
      <path id="Path_5202" data-name="Path 5202" d="M31.08,225.791a.791.791,0,0,0-.791-.791H20v2.374H30.289a.791.791,0,0,0,.791-.791Z" transform="translate(-18.945 -213.128)" fill="#fff"/>
      <path id="Path_5203" data-name="Path 5203" d="M20,77.374H30.289a.791.791,0,0,0,.791-.791v-.791A.791.791,0,0,0,30.289,75H20Z" transform="translate(-18.945 -71.043)" fill="#fff"/>
      <path id="Path_5204" data-name="Path 5204" d="M.791,302.374H11.08V300H.791a.791.791,0,0,0-.791.791v.791A.791.791,0,0,0,.791,302.374Z" transform="translate(0 -284.171)" fill="#fff"/>
      <path id="Path_5205" data-name="Path 5205" d="M.791,152.374H11.08V150H.791a.791.791,0,0,0-.791.791v.791A.791.791,0,0,0,.791,152.374Z" transform="translate(0 -142.085)" fill="#fff"/>
      <path id="Path_5206" data-name="Path 5206" d="M.791,2.374H11.08V.791A.791.791,0,0,0,10.289,0H.791A.791.791,0,0,0,0,.791v.791A.791.791,0,0,0,.791,2.374Z" fill="#fff"/>
    </g>
  </g>
</svg>
