<svg id="Group_13769" data-name="Group 13769" xmlns="http://www.w3.org/2000/svg" width="58" height="55" viewBox="0 0 58 55">
  <path id="Rectangle_992" data-name="Rectangle 992" d="M15,0H58a0,0,0,0,1,0,0V55a0,0,0,0,1,0,0H0a0,0,0,0,1,0,0V15A15,15,0,0,1,15,0Z" fill="#1b4541"/>
  <g id="discount-Filled" transform="translate(14.223 12.549)">
    <path id="discount-Filled-2" data-name="discount-Filled" d="M31.021,14.1l-.913-.913a2.361,2.361,0,0,1-.693-1.668V10.225a4.743,4.743,0,0,0-4.738-4.736H23.387A2.3,2.3,0,0,1,21.719,4.8l-.913-.913a4.76,4.76,0,0,0-6.705,0l-.913.913a2.3,2.3,0,0,1-1.668.693H10.228a4.743,4.743,0,0,0-4.738,4.736v1.291A2.3,2.3,0,0,1,4.8,13.185l-.913.913a4.75,4.75,0,0,0,0,6.705l.913.913a2.3,2.3,0,0,1,.693,1.668v1.291a4.743,4.743,0,0,0,4.738,4.739h1.291a2.3,2.3,0,0,1,1.668.693l.913.913a4.75,4.75,0,0,0,6.705,0l.913-.913a2.3,2.3,0,0,1,1.668-.693h1.291a4.743,4.743,0,0,0,4.738-4.738V23.386a2.361,2.361,0,0,1,.693-1.668l.913-.913a4.75,4.75,0,0,0,0-6.705Zm-17.5-2.55a1.968,1.968,0,1,1-1.968,1.969A1.968,1.968,0,0,1,13.518,11.548Zm7.87,11.805a1.968,1.968,0,1,1,1.968-1.968,1.968,1.968,0,0,1-1.968,1.968Zm1.9-9.507L13.849,23.29a1.612,1.612,0,0,1-1.118.458,1.64,1.64,0,0,1-1.118-.456,1.587,1.587,0,0,1,0-2.235l9.444-9.444a1.58,1.58,0,0,1,2.235,2.235Z" transform="translate(-2.5 -2.503)" fill="#fff"/>
  </g>
</svg>
