<svg xmlns="http://www.w3.org/2000/svg" width="56" height="56" viewBox="0 0 56 56">
  <g id="Group_13765" data-name="Group 13765" transform="translate(-159 -591)">
    <rect id="Rectangle_952" data-name="Rectangle 952" width="56" height="56" rx="8" transform="translate(159 591)" fill="#f0f8fd"/>
    <g id="writing" transform="translate(147.028 604.046)">
      <g id="Group_11017" data-name="Group 11017" transform="translate(26.57)">
        <g id="Group_11016" data-name="Group 11016" transform="translate(0)">
          <path id="Path_5420" data-name="Path 5420" d="M120.829,201.168A1.168,1.168,0,0,0,119.661,200H107.627a1.168,1.168,0,1,0,0,2.337h12.034A1.168,1.168,0,0,0,120.829,201.168Z" transform="translate(-101.792 -188.317)" fill="#1b4541"/>
          <path id="Path_5421" data-name="Path 5421" d="M107.627,280a1.168,1.168,0,1,0,0,2.337h7.308a1.168,1.168,0,1,0,0-2.337Z" transform="translate(-101.792 -263.644)" fill="#1b4541"/>
          <path id="Path_5422" data-name="Path 5422" d="M35.151,27.572H31.243a2.339,2.339,0,0,1-2.337-2.337V4.673a2.339,2.339,0,0,1,2.337-2.337H45.607a2.339,2.339,0,0,1,2.337,2.337v7.185a1.168,1.168,0,0,0,2.337,0V4.673A4.679,4.679,0,0,0,45.607,0H31.243A4.679,4.679,0,0,0,26.57,4.673V25.236a4.679,4.679,0,0,0,4.673,4.673h3.907a1.168,1.168,0,0,0,0-2.337Z" transform="translate(-26.57)" fill="#1b4541"/>
          <path id="Path_5423" data-name="Path 5423" d="M256.567,273.049a3.509,3.509,0,0,0-4.956,0l-6.414,6.4a1.169,1.169,0,0,0-.293.487l-1.4,4.6a1.168,1.168,0,0,0,1.43,1.465l4.716-1.306a1.168,1.168,0,0,0,.513-.3l6.4-6.389A3.509,3.509,0,0,0,256.567,273.049Zm-7.834,9.475-2.372.657.694-2.286,4.328-4.318,1.653,1.653Zm6.183-6.171-.226.226-1.652-1.652.226-.225a1.168,1.168,0,0,1,1.653,1.652Z" transform="translate(-230.787 -256.134)" fill="#1b4541"/>
          <path id="Path_5424" data-name="Path 5424" d="M119.661,120H107.627a1.168,1.168,0,1,0,0,2.337h12.034a1.168,1.168,0,0,0,0-2.337Z" transform="translate(-101.792 -112.99)" fill="#1b4541"/>
        </g>
      </g>
    </g>
  </g>
</svg>
