<svg id="Group_13770" data-name="Group 13770" xmlns="http://www.w3.org/2000/svg" width="56" height="53" viewBox="0 0 56 53">
  <path id="Rectangle_992" data-name="Rectangle 992" d="M15,0H56a0,0,0,0,1,0,0V53a0,0,0,0,1,0,0H0a0,0,0,0,1,0,0V15A15,15,0,0,1,15,0Z" fill="#1b4541"/>
  <path id="Gift_1_" d="M17.459,21.5v13.5H10.374A2.026,2.026,0,0,1,8.35,32.966V21.427a3.368,3.368,0,0,0,.675.068Zm1.35,0v13.5h4.049V21.5Zm13.833,0H24.206v13.5h7.085a2.026,2.026,0,0,0,2.024-2.024V21.427A3.368,3.368,0,0,1,32.641,21.5Zm2.024-6.073v2.7a2.026,2.026,0,0,1-2.024,2.024H9.024A2.026,2.026,0,0,1,7,18.121v-2.7A2.026,2.026,0,0,1,9.024,13.4h6.417a3.369,3.369,0,1,1,5.392-4.04,3.369,3.369,0,1,1,5.392,4.04h6.417A2.026,2.026,0,0,1,34.665,15.422ZM21.507,11.374V13.4h2.024a2.024,2.024,0,1,0-2.024-2.024ZM18.133,13.4h2.024V11.374A2.024,2.024,0,1,0,18.133,13.4Z" transform="translate(7.167 3.505)" fill="#fff"/>
</svg>
