<svg id="FullyConfidential" xmlns="http://www.w3.org/2000/svg" width="22.177" height="22.384" viewBox="0 0 22.177 22.384">
  <path id="Path_5393" data-name="Path 5393" d="M15.521,10.036v2.821a3.341,3.341,0,0,1-3.55,3.685H9.185l0,13.21c0,1.941.679,2.668,2.559,2.668h8.08a5.577,5.577,0,0,1-1.719-4.02V24.335a2.443,2.443,0,0,1,1.486-2.145v-.521a5.326,5.326,0,0,1,5.3-5.3h1.174a5.176,5.176,0,0,1,1.3.172V12.7c0-1.939-.68-2.668-2.559-2.668Z" transform="translate(-9.185 -10.036)" fill="#1b4541"/>
  <path id="Path_5394" data-name="Path 5394" d="M14.008,10.036v2.639a2.748,2.748,0,0,1-.459,1.893,2.357,2.357,0,0,1-1.772.47H9.184c0-.452.273-.659.554-.947l3.531-3.633a1.088,1.088,0,0,1,.739-.422Z" transform="translate(-9.184 -10.036)" fill="#1b4541"/>
  <path id="Path_5395" data-name="Path 5395" d="M47.605,42.4a1.075,1.075,0,0,1,1.079,1.079v1.332a1.078,1.078,0,0,1-2.156,0V43.481A1.075,1.075,0,0,1,47.605,42.4Zm-.588-5.982h1.177a1.562,1.562,0,0,1,1.589,1.589v1.5H45.429v-1.5A1.561,1.561,0,0,1,47.017,36.42Zm0-2.218a3.823,3.823,0,0,0-3.807,3.807v1.5h-.165a1.283,1.283,0,0,0-1.319,1.164V44.74a4.1,4.1,0,0,0,4.108,4.11h3.543a4.1,4.1,0,0,0,4.108-4.11V40.675a1.283,1.283,0,0,0-1.319-1.164H52v-1.5A3.823,3.823,0,0,0,48.194,34.2H47.017Z" transform="translate(-31.308 -26.466)" fill="#1b4541"/>
</svg>
