<svg xmlns="http://www.w3.org/2000/svg" width="8.528" height="14.708" viewBox="0 0 8.528 14.708">
  <g id="Group_13766" data-name="Group 13766" transform="translate(-1104.63 -774)">
    <path id="Line_36" data-name="Line 36" d="M7.354,8.528a1.171,1.171,0,0,1-.83-.344L.344,2A1.174,1.174,0,0,1,2,.344l6.18,6.18a1.174,1.174,0,0,1-.83,2Z" transform="translate(1104.63 788.708) rotate(-90)" fill="#272727"/>
    <path id="Line_37" data-name="Line 37" d="M1.174,8.528a1.174,1.174,0,0,1-.83-2L6.524.344A1.174,1.174,0,0,1,8.184,2L2,8.184A1.171,1.171,0,0,1,1.174,8.528Z" transform="translate(1104.63 782.528) rotate(-90)" fill="#272727"/>
  </g>
</svg>
