<svg xmlns="http://www.w3.org/2000/svg" width="13.056" height="13.056" viewBox="0 0 13.056 13.056">
  <path id="Icon_awesome-linkedin" data-name="Icon awesome-linkedin" d="M12.123,2.25H.93A.937.937,0,0,0,0,3.191V14.365a.937.937,0,0,0,.93.941H12.123a.939.939,0,0,0,.933-.941V3.191A.939.939,0,0,0,12.123,2.25ZM3.946,13.441H2.011V7.21H3.949v6.231ZM2.978,6.359A1.122,1.122,0,1,1,4.1,5.237,1.122,1.122,0,0,1,2.978,6.359ZM11.2,13.441H9.264V10.41c0-.723-.015-1.652-1.005-1.652-1.008,0-1.163.787-1.163,1.6v3.083H5.161V7.21H7.018v.851h.026A2.038,2.038,0,0,1,8.877,7.056c1.958,0,2.323,1.291,2.323,2.97Z" transform="translate(0 -2.25)" fill="#1b4541"/>
</svg>
