<svg xmlns="http://www.w3.org/2000/svg" width="50" height="50" viewBox="0 0 50 50">
  <g id="LackofSkills" transform="translate(-933 -1558)">
    <path id="Rectangle_971" data-name="Rectangle 971" d="M0,0H39A11,11,0,0,1,50,11V39A11,11,0,0,1,39,50H11A11,11,0,0,1,0,39V0A0,0,0,0,1,0,0Z" transform="translate(933 1558)" fill="#1b4541"/>
    <g id="sale" transform="translate(939.021 1566.832)">
      <g id="skill-development" transform="translate(5.172 2.361)">
        <path id="Path_5208" data-name="Path 5208" d="M11.38,255.616v-2.481a3.236,3.236,0,1,1,0-6.472v-2.427H6.858l.385-1.081a1.583,1.583,0,0,0,.092-.537,1.618,1.618,0,1,0-3.236,0,1.583,1.583,0,0,0,.092.537l.385,1.081H0A12.313,12.313,0,0,0,11.38,255.616Z" transform="translate(0 -228.002)" fill="#fff"/>
        <path id="Path_5209" data-name="Path 5209" d="M5.717,69.809a3.239,3.239,0,0,1,3.236,3.236H11.38V68.523l1.081.385a1.618,1.618,0,1,0,0-3.051l-1.081.385V61.76A12.223,12.223,0,0,0,0,73.045H2.481A3.239,3.239,0,0,1,5.717,69.809Z" transform="translate(0 -58.429)" fill="#fff"/>
        <path id="Path_5210" data-name="Path 5210" d="M195.521,301h-2.386a3.236,3.236,0,0,1-6.472,0h-2.427v4.522l-1.081-.385a1.618,1.618,0,1,0,0,3.051l1.081-.385v4.576A12.223,12.223,0,0,0,195.521,301Z" transform="translate(-171.238 -284.766)" fill="#fff"/>
        <path id="Path_5211" data-name="Path 5211" d="M252.326,6.526V3.29H249.09a3.236,3.236,0,1,0-6.472,0H241V5.717a3.236,3.236,0,0,1,0,6.472v2.427h4.522l-.385,1.081a1.584,1.584,0,0,0-.092.537,1.618,1.618,0,1,0,3.236,0,1.583,1.583,0,0,0-.092-.537l-.385-1.081h4.522V13a3.286,3.286,0,0,0,3.29-3.236A3.286,3.286,0,0,0,252.326,6.526Z" transform="translate(-228.002 0)" fill="#fff"/>
      </g>
    </g>
  </g>
</svg>
