<svg xmlns="http://www.w3.org/2000/svg" xmlns:xlink="http://www.w3.org/1999/xlink" width="28" height="28" viewBox="0 0 28 28">
  <defs>
    <clipPath id="clip-path">
      <rect id="Rectangle_355" data-name="Rectangle 355" width="18" height="18" transform="translate(0.282 -0.453)" fill="#fff"/>
    </clipPath>
  </defs>
  <g id="Group_10860" data-name="Group 10860" transform="translate(-975 -4908)">
    <rect id="Rectangle_1050" data-name="Rectangle 1050" width="28" height="28" rx="5" transform="translate(975 4908)" fill="#ff7a07"/>
    <g id="Mask_Group_41" data-name="Mask Group 41" transform="translate(979.718 4913.453)" clip-path="url(#clip-path)">
      <g id="Group_10855" data-name="Group 10855" transform="translate(0.597 0.261)">
        <path id="Path_3949" data-name="Path 3949" d="M19.641,19.388h0V13.057c0-3.1-.667-5.483-4.287-5.483a3.759,3.759,0,0,0-3.386,1.861h-.05V7.863H8.489V19.388h3.575V13.681c0-1.5.285-2.955,2.146-2.955,1.833,0,1.861,1.715,1.861,3.052v5.611Z" transform="translate(-2.675 -2.419)" fill="#fff"/>
        <path id="Path_3950" data-name="Path 3950" d="M.4,7.977H3.975V19.5H.4Z" transform="translate(-0.111 -2.532)" fill="#fff"/>
        <path id="Path_3951" data-name="Path 3951" d="M2.073,0A2.083,2.083,0,1,0,4.146,2.073,2.074,2.074,0,0,0,2.073,0Z" fill="#fff"/>
      </g>
    </g>
  </g>
</svg>
