<svg xmlns="http://www.w3.org/2000/svg" width="32.546" height="32.546" viewBox="0 0 32.546 32.546">
  <g id="Group_13576" data-name="Group 13576" transform="translate(-149.85 -685.727)">
    <g id="online-chat" transform="translate(150 685.877)">
      <path id="Path_10099" data-name="Path 10099" d="M245.856,0H235.779A3.783,3.783,0,0,0,232,3.779V13.856a1.26,1.26,0,0,0,2.15.891l2.15-2.15h9.555a3.783,3.783,0,0,0,3.779-3.779V3.779A3.783,3.783,0,0,0,245.856,0Zm1.26,8.817a1.261,1.261,0,0,1-1.26,1.26H235.779a1.26,1.26,0,0,0-.891.369l-.369.369V3.779a1.261,1.261,0,0,1,1.26-1.26h10.077a1.261,1.261,0,0,1,1.26,1.26Z" transform="translate(-217.388)" fill="#ff7a07"/>
      <path id="Path_10099_-_Outline" data-name="Path 10099 - Outline" d="M235.779-.15h10.077a3.933,3.933,0,0,1,3.929,3.929V8.817a3.933,3.933,0,0,1-3.929,3.929h-9.493l-2.106,2.106a1.41,1.41,0,0,1-2.406-1V3.779A3.933,3.933,0,0,1,235.779-.15Zm10.077,12.6a3.633,3.633,0,0,0,3.629-3.629V3.779A3.633,3.633,0,0,0,245.856.15H235.779a3.633,3.633,0,0,0-3.629,3.629V13.856a1.11,1.11,0,0,0,1.894.785l2.194-2.194ZM235.779,2.369h10.077a1.411,1.411,0,0,1,1.41,1.41V8.817a1.411,1.411,0,0,1-1.41,1.41H235.779a1.1,1.1,0,0,0-.785.325l-.625.625v-7.4A1.411,1.411,0,0,1,235.779,2.369Zm10.077,7.558a1.111,1.111,0,0,0,1.11-1.11V3.779a1.111,1.111,0,0,0-1.11-1.11H235.779a1.111,1.111,0,0,0-1.11,1.11v6.674l.113-.113a1.4,1.4,0,0,1,1-.413Z" transform="translate(-217.388)" fill="#fff"/>
      <circle id="Ellipse_177" data-name="Ellipse 177" cx="1.5" cy="1.5" r="1.5" transform="translate(25 4)" fill="#ff7a07"/>
      <path id="Ellipse_177_-_Outline" data-name="Ellipse 177 - Outline" d="M1.5-.15A1.65,1.65,0,1,1-.15,1.5,1.652,1.652,0,0,1,1.5-.15Zm0,3A1.35,1.35,0,1,0,.15,1.5,1.352,1.352,0,0,0,1.5,2.85Z" transform="translate(25 4)" fill="#fff"/>
      <circle id="Ellipse_178" data-name="Ellipse 178" cx="1.5" cy="1.5" r="1.5" transform="translate(19 4)" fill="#ff7a07"/>
      <path id="Ellipse_178_-_Outline" data-name="Ellipse 178 - Outline" d="M1.5-.15A1.65,1.65,0,1,1-.15,1.5,1.652,1.652,0,0,1,1.5-.15Zm0,3A1.35,1.35,0,1,0,.15,1.5,1.352,1.352,0,0,0,1.5,2.85Z" transform="translate(19 4)" fill="#fff"/>
      <path id="Path_10100" data-name="Path 10100" d="M29.727,99.867V90.841a1.26,1.26,0,0,0-2.519,0V99.65H5.038V85.038a2.522,2.522,0,0,1,2.519-2.519H10.9A1.26,1.26,0,1,0,10.9,80H7.558a5.044,5.044,0,0,0-5.038,5.038V99.867a3.779,3.779,0,0,0,1.26,7.341H28.467a3.779,3.779,0,0,0,1.26-7.341Zm-1.26,4.822H3.779a1.26,1.26,0,1,1,0-2.519H28.467a1.26,1.26,0,1,1,0,2.519Z" transform="translate(0 -74.962)" fill="#ff7a07"/>
      <path id="Path_10100_-_Outline" data-name="Path 10100 - Outline" d="M28.467,107.358H3.779a3.928,3.928,0,0,1-1.41-7.6V85.038A5.194,5.194,0,0,1,7.558,79.85H10.9a1.41,1.41,0,0,1,0,2.819H7.558a2.372,2.372,0,0,0-2.369,2.369V99.5H27.058V90.841a1.41,1.41,0,0,1,2.819,0v8.922a3.928,3.928,0,0,1-1.41,7.6ZM7.558,80.15a4.894,4.894,0,0,0-4.888,4.888V99.973l-.1.035a3.629,3.629,0,0,0,1.209,7.05H28.467a3.629,3.629,0,0,0,1.209-7.05l-.1-.035V90.841a1.11,1.11,0,1,0-2.219,0V99.8H4.888V85.038a2.672,2.672,0,0,1,2.669-2.669H10.9a1.11,1.11,0,0,0,0-2.219Zm20.91,24.688H3.779a1.41,1.41,0,0,1,0-2.819H28.467a1.41,1.41,0,0,1,0,2.819ZM3.779,102.319a1.11,1.11,0,0,0,0,2.219H28.467a1.11,1.11,0,0,0,0-2.219Z" transform="translate(0 -74.962)" fill="#fff"/>
      <path id="Path_10101" data-name="Path 10101" d="M120,243.779A3.779,3.779,0,1,0,123.779,240,3.783,3.783,0,0,0,120,243.779Zm5.038,0a1.26,1.26,0,1,1-1.26-1.26A1.261,1.261,0,0,1,125.038,243.779Z" transform="translate(-112.442 -224.885)" fill="#ff7a07"/>
      <path id="Path_10101_-_Outline" data-name="Path 10101 - Outline" d="M123.779,239.85a3.929,3.929,0,1,1-3.929,3.929A3.933,3.933,0,0,1,123.779,239.85Zm0,7.558a3.629,3.629,0,1,0-3.629-3.629A3.633,3.633,0,0,0,123.779,247.408Zm0-5.038a1.41,1.41,0,1,1-1.41,1.41A1.411,1.411,0,0,1,123.779,242.369Zm0,2.519a1.11,1.11,0,1,0-1.11-1.11A1.111,1.111,0,0,0,123.779,244.888Z" transform="translate(-112.442 -224.885)" fill="#fff"/>
    </g>
  </g>
</svg>
