<svg xmlns="http://www.w3.org/2000/svg" width="11.524" height="16.406" viewBox="0 0 11.524 16.406">
  <g id="tracking" transform="translate(-76.249)">
    <g id="Group_13620" data-name="Group 13620" transform="translate(76.249)">
      <path id="Path_10177" data-name="Path 10177" d="M82.011,3.841a1.921,1.921,0,1,0,1.921,1.921A1.923,1.923,0,0,0,82.011,3.841Zm0,0a1.921,1.921,0,1,0,1.921,1.921A1.923,1.923,0,0,0,82.011,3.841Zm0-3.841a5.769,5.769,0,0,0-5.762,5.762c0,3.97,5.173,10.208,5.394,10.471a.48.48,0,0,0,.737,0c.22-.264,5.394-6.5,5.394-10.471A5.769,5.769,0,0,0,82.011,0Zm3.361,6.242h-.521a2.887,2.887,0,0,1-2.36,2.36v.52a.48.48,0,1,1-.96,0V8.6a2.887,2.887,0,0,1-2.36-2.36h-.52a.48.48,0,1,1,0-.96h.52a2.887,2.887,0,0,1,2.36-2.36V2.4a.48.48,0,1,1,.96,0v.52a2.887,2.887,0,0,1,2.36,2.36h.521a.48.48,0,1,1,0,.96Zm-3.361-2.4a1.921,1.921,0,1,0,1.921,1.921A1.923,1.923,0,0,0,82.011,3.841Zm0,0a1.921,1.921,0,1,0,1.921,1.921A1.923,1.923,0,0,0,82.011,3.841Zm0,0a1.921,1.921,0,1,0,1.921,1.921A1.923,1.923,0,0,0,82.011,3.841Z" transform="translate(-76.249)" fill="#fff"/>
    </g>
  </g>
</svg>
