<svg id="Login" xmlns="http://www.w3.org/2000/svg" width="13.594" height="14.309" viewBox="0 0 13.594 14.309">
  <path id="Login-2" data-name="Login" d="M6.708,14.309A3.235,3.235,0,0,1,3.428,11.14V7.706H.559a.551.551,0,1,1,0-1.1H3.428V3.184A3.244,3.244,0,0,1,6.715,0h3.605a3.234,3.234,0,0,1,3.273,3.176v7.956a3.233,3.233,0,0,1-3.288,3.176Zm1.3-6.6L6.826,8.85a.541.541,0,0,0,0,.78.595.595,0,0,0,.806,0L9.789,7.548a.532.532,0,0,0,0-.78L7.632,4.686a.584.584,0,0,0-.806,0,.541.541,0,0,0,0,.78L8.008,6.6H3.428v1.1Z" fill="#fff"/>
</svg>
