<svg xmlns="http://www.w3.org/2000/svg" xmlns:xlink="http://www.w3.org/1999/xlink" width="28" height="28" viewBox="0 0 28 28">
  <defs>
    <clipPath id="clip-path">
      <rect id="Rectangle_122" data-name="Rectangle 122" width="28" height="28" fill="#1b4541" stroke="#707070" stroke-width="1"/>
    </clipPath>
  </defs>
  <g id="MoneyBack_" data-name="MoneyBack " clip-path="url(#clip-path)">
    <g id="Group_652" data-name="Group 652" transform="translate(1.195 4.064)">
      <path id="Path_1395" data-name="Path 1395" d="M-379.772,591.347c.006,1.444,0,2.886,0,4.329,0,1.4,0,2.807,0,4.212,0,.688-.03.714-.739.717s-1.442.008-2.163,0c-.513-.007-.624-.115-.625-.619q-.007-4.3,0-8.6c0-.527.083-.6.617-.606q1.169-.009,2.339,0C-379.823,590.782-379.774,590.827-379.772,591.347Z" transform="translate(383.301 -580.737)" fill="#1b4541"/>
      <path id="Path_1396" data-name="Path 1396" d="M-280.229,545.659a.564.564,0,0,0-.53-.59,5.121,5.121,0,0,0-.643-.015c-.2,0-.391.006-.585,0a1.629,1.629,0,0,1-1.563-1.465,1.611,1.611,0,0,1,1.3-1.751c.094-.022.188-.048.308-.078.1-.368-.05-.925.589-.949.357-.013.464.177.557.92,1.215.389,1.561.74,1.59,1.646a4.725,4.725,0,0,1-.988.029c-.108-.485-.446-.575-.85-.564-.292.008-.587-.015-.877.013a.568.568,0,0,0-.571.611.552.552,0,0,0,.589.524c.37.02.742-.01,1.111.012a1.639,1.639,0,0,1,1.364,2.536,1.656,1.656,0,0,1-.972.7c-.128.037-.276,0-.386.1-.107.739-.259.969-.618.937-.327-.029-.465-.274-.521-.952a1.719,1.719,0,0,1-1.632-1.618,2.719,2.719,0,0,1,1.026-.066c.1.569.519.6.978.581.253-.013.507.007.76-.011A.553.553,0,0,0-280.229,545.659Z" transform="translate(295.237 -536.619)" fill="#1b4541"/>
      <path id="Path_1397" data-name="Path 1397" d="M-336.449,514.664a8.363,8.363,0,0,1,6.355-9.375,8.485,8.485,0,0,1,10.409,7.852c.259,0,.473-.018.684,0,.439.043.564.335.277.686q-.924,1.136-1.882,2.243c-.231.268-.392.269-.633,0-.366-.4-.706-.833-1.057-1.253-.288-.344-.59-.679-.862-1.035-.247-.323-.112-.6.3-.646.116-.013.234,0,.351,0,.1,0,.193-.01.368-.021a5.833,5.833,0,0,0-2.495-4.49,5.765,5.765,0,0,0-6.352-.434c-2.209,1.148-3.285,3.292-3.166,6.216A7.466,7.466,0,0,0-336.449,514.664Z" transform="translate(342.028 -505.054)" fill="#1b4541"/>
      <path id="Path_1398" data-name="Path 1398" d="M-323.582,597.812a5.18,5.18,0,0,1-.853.711,24.479,24.479,0,0,1-10.182,4.164,23.09,23.09,0,0,1-6.42-.1,13.5,13.5,0,0,1-2.505-.548c-.517-.17-.578-.248-.58-.8,0-2.031.007-4.062-.008-6.094a.863.863,0,0,1,.485-.848,4.61,4.61,0,0,1,3.168-.515,7.439,7.439,0,0,1,3.14,1.2,5.151,5.151,0,0,0,3.136.927,2.572,2.572,0,0,1,.812.077,1.775,1.775,0,0,1,1.2,1.873,1.716,1.716,0,0,1-1.465,1.595,12.818,12.818,0,0,1-5.159-.372,9.409,9.409,0,0,1-1.141-.5,1.061,1.061,0,0,0,.781,1.115,9.852,9.852,0,0,0,2.285.455,21.273,21.273,0,0,0,2.979.034,2.479,2.479,0,0,0,2.418-2.556c0-.1,0-.193,0-.267.1-.159.253-.135.383-.156a15.564,15.564,0,0,0,5.348-1.943,1.826,1.826,0,0,1,1.1-.325,1.608,1.608,0,0,1,1.418,1.067A1.6,1.6,0,0,1-323.582,597.812Z" transform="translate(348.716 -583.329)" fill="#1b4541"/>
      <path id="Path_1399" data-name="Path 1399" d="M-323.582,597.812a5.18,5.18,0,0,1-.853.711,24.479,24.479,0,0,1-10.182,4.164,23.09,23.09,0,0,1-6.42-.1,13.5,13.5,0,0,1-2.505-.548c-.517-.17-.578-.248-.58-.8,0-2.031.007-4.062-.008-6.094a.863.863,0,0,1,.485-.848,4.61,4.61,0,0,1,3.168-.515,7.439,7.439,0,0,1,3.14,1.2,5.151,5.151,0,0,0,3.136.927,2.572,2.572,0,0,1,.812.077,1.775,1.775,0,0,1,1.2,1.873,1.716,1.716,0,0,1-1.465,1.595,12.818,12.818,0,0,1-5.159-.372,9.409,9.409,0,0,1-1.141-.5,1.061,1.061,0,0,0,.781,1.115,9.852,9.852,0,0,0,2.285.455,21.273,21.273,0,0,0,2.979.034,2.479,2.479,0,0,0,2.418-2.556c0-.1,0-.193,0-.267.1-.159.253-.135.383-.156a15.564,15.564,0,0,0,5.348-1.943,1.826,1.826,0,0,1,1.1-.325,1.608,1.608,0,0,1,1.418,1.067A1.6,1.6,0,0,1-323.582,597.812Z" transform="translate(348.716 -583.329)" fill="#1b4541"/>
      <path id="Path_1400" data-name="Path 1400" d="M-318.725,513.83q-.924,1.136-1.882,2.243c-.231.268-.392.269-.633,0-.366-.4-.706-.833-1.057-1.253-.288-.344-.59-.679-.862-1.035-.247-.323-.112-.6.3-.646.116-.013.234,0,.351,0,.1,0,.193-.01.368-.021a5.833,5.833,0,0,0-2.495-4.49,5.765,5.765,0,0,0-6.352-.434c-2.209,1.148-3.285,3.292-3.166,6.216a7.466,7.466,0,0,0-2.292.253,8.363,8.363,0,0,1,6.355-9.375,8.485,8.485,0,0,1,10.409,7.852c.259,0,.473-.018.684,0C-318.563,513.187-318.438,513.479-318.725,513.83Z" transform="translate(342.028 -505.054)" fill="#1b4541"/>
      <path id="Path_1401" data-name="Path 1401" d="M-379.769,595.676c0,1.4,0,2.807,0,4.212,0,.688-.03.714-.739.717s-1.442.008-2.163,0c-.513-.007-.624-.115-.625-.619q-.007-4.3,0-8.6c0-.527.083-.6.617-.606q1.169-.009,2.339,0c.52,0,.569.05.571.57C-379.766,592.791-379.769,594.233-379.769,595.676Z" transform="translate(383.301 -580.737)" fill="#1b4541"/>
      <path id="Path_1402" data-name="Path 1402" d="M-279.431,546.533a1.656,1.656,0,0,1-.972.7c-.128.037-.276,0-.386.1-.107.739-.259.969-.618.937-.327-.029-.465-.274-.521-.952a1.719,1.719,0,0,1-1.632-1.618,2.719,2.719,0,0,1,1.026-.066c.1.569.519.6.978.581.253-.013.507.007.76-.011a.553.553,0,0,0,.568-.544.564.564,0,0,0-.53-.59,5.121,5.121,0,0,0-.643-.015c-.2,0-.391.006-.585,0a1.629,1.629,0,0,1-1.563-1.465,1.611,1.611,0,0,1,1.3-1.751c.094-.022.188-.048.308-.078.1-.368-.05-.925.589-.949.357-.013.464.177.557.92,1.215.389,1.561.74,1.59,1.646a4.725,4.725,0,0,1-.988.029c-.108-.485-.446-.575-.85-.564-.292.008-.587-.015-.877.013a.568.568,0,0,0-.571.611.552.552,0,0,0,.589.524c.37.02.742-.01,1.111.012A1.639,1.639,0,0,1-279.431,546.533Z" transform="translate(295.237 -536.619)" fill="#1b4541"/>
    </g>
  </g>
</svg>
