<svg xmlns="http://www.w3.org/2000/svg" width="19.564" height="14.659" viewBox="0 0 19.564 14.659">
  <g id="up-left" transform="translate(20.978 7.401) rotate(135)">
    <path id="Path_10148" data-name="Path 10148" d="M56.366,15.716a6.45,6.45,0,0,1,.322.56.223.223,0,1,0,.4-.2c-.1-.2-.22-.406-.345-.6a.223.223,0,1,0-.375.242Z" transform="translate(-42.985 -11.165)" fill="#fff"/>
    <path id="Path_10149" data-name="Path 10149" d="M42.906,4.379c.2.084.394.179.582.281a.22.22,0,0,0,.107.027.223.223,0,0,0,.108-.419,6.838,6.838,0,0,0-.623-.3.223.223,0,0,0-.174.411Z" transform="translate(-32.449 -2.292)" fill="#fff"/>
    <path id="Path_10150" data-name="Path 10150" d="M37.237,2.625a6.386,6.386,0,0,1,.626.159.219.219,0,0,0,.067.01A.223.223,0,0,0,38,2.358a6.855,6.855,0,0,0-.669-.171.223.223,0,1,0-.088.438Z" transform="translate(-28.015 -0.919)" fill="#fff"/>
    <path id="Path_10151" data-name="Path 10151" d="M48.636,7.624a.223.223,0,0,0,.288-.341c-.175-.148-.36-.289-.55-.419a.223.223,0,1,0-.252.368C48.3,7.355,48.472,7.486,48.636,7.624Z" transform="translate(-36.532 -4.525)" fill="#fff"/>
    <path id="Path_10152" data-name="Path 10152" d="M59.062,20.993c.078.2.147.407.2.613a.223.223,0,1,0,.43-.119,6.889,6.889,0,0,0-.218-.656.223.223,0,1,0-.416.162Z" transform="translate(-45.094 -15.292)" fill="#fff"/>
    <path id="Path_10153" data-name="Path 10153" d="M53.093,11.548a.223.223,0,0,0,.349-.278c-.143-.179-.3-.354-.456-.519a.223.223,0,1,0-.32.311A6.275,6.275,0,0,1,53.093,11.548Z" transform="translate(-40.088 -7.523)" fill="#fff"/>
    <path id="Path_10154" data-name="Path 10154" d="M1.446,7.917A6.478,6.478,0,0,1,7.917,1.446a.223.223,0,0,0,0-.446A6.925,6.925,0,0,0,1,7.917a.223.223,0,1,0,.446,0Z" transform="translate(0 0)" fill="#fff"/>
    <path id="Path_10155" data-name="Path 10155" d="M17.622,58.236a6.414,6.414,0,0,1-.582-.282.223.223,0,1,0-.214.391,6.881,6.881,0,0,0,.623.3.223.223,0,1,0,.174-.411Z" transform="translate(-12.205 -44.225)" fill="#fff"/>
    <path id="Path_10156" data-name="Path 10156" d="M12.136,54.6a.223.223,0,0,0-.288.341c.175.148.36.289.55.419a.223.223,0,0,0,.252-.368,6.427,6.427,0,0,1-.515-.392Z" transform="translate(-8.366 -41.596)" fill="#fff"/>
    <path id="Path_10157" data-name="Path 10157" d="M23.141,60.429a6.446,6.446,0,0,1-.626-.16.223.223,0,1,0-.132.426,6.809,6.809,0,0,0,.669.171.214.214,0,0,0,.045,0,.223.223,0,0,0,.045-.442Z" transform="translate(-16.49 -46.037)" fill="#fff"/>
    <path id="Path_10158" data-name="Path 10158" d="M7.992,50.333a.223.223,0,1,0-.349.278,6.9,6.9,0,0,0,.457.52.224.224,0,1,0,.32-.312,6.446,6.446,0,0,1-.427-.485Z" transform="translate(-5.123 -38.26)" fill="#fff"/>
    <path id="Path_10159" data-name="Path 10159" d="M2.821,40.409c-.078-.2-.147-.407-.2-.614a.223.223,0,1,0-.43.119,6.867,6.867,0,0,0,.218.656.223.223,0,1,0,.416-.162Z" transform="translate(-0.916 -30.012)" fill="#fff"/>
    <path id="Path_10160" data-name="Path 10160" d="M5.1,45.9c-.116-.18-.225-.369-.322-.56a.223.223,0,1,0-.4.2,6.9,6.9,0,0,0,.345.6A.223.223,0,1,0,5.1,45.9Z" transform="translate(-2.605 -34.348)" fill="#fff"/>
    <path id="Path_10161" data-name="Path 10161" d="M37.917,31a.223.223,0,0,0-.223.223,6.478,6.478,0,0,1-6.471,6.471.223.223,0,0,0,0,.446,6.925,6.925,0,0,0,6.917-6.917A.223.223,0,0,0,37.917,31Z" transform="translate(-23.306 -23.306)" fill="#fff"/>
    <path id="Path_10162" data-name="Path 10162" d="M14.132,9a5.132,5.132,0,1,0,5.132,5.132A5.132,5.132,0,0,0,14.132,9ZM16.3,16.3a.223.223,0,0,1-.316,0l-3.635-3.635v1.246a.223.223,0,1,1-.446,0V12.124a.223.223,0,0,1,.223-.223h1.785a.223.223,0,1,1,0,.446H12.662L16.3,15.982A.223.223,0,0,1,16.3,16.3Z" transform="translate(-6.215 -6.215)" fill="#fff"/>
  </g>
</svg>
