<svg xmlns="http://www.w3.org/2000/svg" width="24.092" height="23.038" viewBox="0 0 24.092 23.038">
  <path id="ontime" d="M14.431,11.519a.3.3,0,1,1-.3-.288A.3.3,0,0,1,14.431,11.519Zm3.92,0a4.134,4.134,0,0,1-4.221,4.036A4.134,4.134,0,0,1,9.91,11.519,4.134,4.134,0,0,1,14.13,7.483,4.134,4.134,0,0,1,18.351,11.519Zm-.927-.36H15.118a1.048,1.048,0,0,0-.607-.58v-2.2a.377.377,0,0,0-.753,0v2.2a1.012,1.012,0,0,0-.678.94,1.033,1.033,0,0,0,1.054,1.008,1.055,1.055,0,0,0,.983-.648h2.306a.36.36,0,1,0,0-.72ZM24.092,4.1V18.934a4.2,4.2,0,0,1-4.291,4.1H4.291A4.2,4.2,0,0,1,0,18.934V4.1A4.2,4.2,0,0,1,4.291,0H19.8a4.2,4.2,0,0,1,4.291,4.1ZM4.988,8.594a.37.37,0,0,0,.376.36H9.223a.36.36,0,1,0,0-.72H5.364A.37.37,0,0,0,4.988,8.594ZM8.87,10.056a.37.37,0,0,0-.376-.36H6.418a.36.36,0,1,0,0,.72H8.493A.367.367,0,0,0,8.87,10.056Zm-.376,2.565H6.418a.36.36,0,1,0,0,.72H8.493a.36.36,0,1,0,0-.72Zm-3.506-1.1a.37.37,0,0,0,.376.36H8.277a.36.36,0,1,0,0-.72H5.364a.37.37,0,0,0-.376.36ZM9.6,14.444a.37.37,0,0,0-.376-.36H5.364a.36.36,0,1,0,0,.72H9.223A.37.37,0,0,0,9.6,14.444Zm9.5-2.925A4.873,4.873,0,0,0,14.13,6.763a4.873,4.873,0,0,0-4.974,4.756,4.873,4.873,0,0,0,4.974,4.756A4.873,4.873,0,0,0,19.1,11.519Z" fill="#1b4541"/>
</svg>
