<svg id="pakistan" xmlns="http://www.w3.org/2000/svg" width="30" height="20" viewBox="0 0 30 20">
  <g id="Group_629" data-name="Group 629" transform="translate(0 0.001)">
    <path id="Path_706" data-name="Path 706" d="M374.406,170.516l1.026,1.106,1.369-.634-.735,1.318,1.026,1.106-1.48-.292-.735,1.318-.18-1.5-1.48-.292,1.369-.634Z" transform="translate(-351.349 -165.525)" fill="#f0f0f0"/>
    <path id="Path_710" data-name="Path 710" d="M2,0H28a2,2,0,0,1,2,2V18a2,2,0,0,1-2,2H2a2,2,0,0,1-2-2V2A2,2,0,0,1,2,0Z" transform="translate(0 0)" fill="#fff"/>
  </g>
  <path id="Rectangle_130" data-name="Rectangle 130" d="M0,0H20.5a2,2,0,0,1,2,2V18a2,2,0,0,1-2,2H0a0,0,0,0,1,0,0V0A0,0,0,0,1,0,0Z" transform="translate(7.5 0)" fill="#496e2d"/>
  <g id="Group_630" data-name="Group 630" transform="translate(12.559 5.13)">
    <path id="Path_707" data-name="Path 707" d="M223,180.265a4.062,4.062,0,1,1-2.906-7.322,5,5,0,1,0,4.187,5.794A4.046,4.046,0,0,1,223,180.265Z" transform="translate(-214.35 -172.888)" fill="#f0f0f0"/>
    <path id="Path_708" data-name="Path 708" d="M341.512,172.889l1.024,1.1,1.367-.633-.734,1.315,1.024,1.1-1.478-.291-.733,1.315-.18-1.5-1.478-.291,1.367-.633Z" transform="translate(-332.944 -172.889)" fill="#f0f0f0"/>
  </g>
</svg>
