<svg xmlns="http://www.w3.org/2000/svg" width="59.848" height="15.295" viewBox="0 0 59.848 15.295">
  <g id="paypal" transform="translate(0 0)">
    <path id="Path_751" data-name="Path 751" d="M352.235,221.2H349a.631.631,0,0,0-.475.38l-1.33,8.36a.252.252,0,0,0,.285.285h1.71a.252.252,0,0,0,.285-.285l.38-2.375a.435.435,0,0,1,.475-.38h1.045q3.277,0,3.7-3.135a2.49,2.49,0,0,0-.38-2.09,3.832,3.832,0,0,0-2.47-.76m.38,3.135c-.19,1.14-1.045,1.14-1.9,1.14h-.57l.38-2.185c0-.1.1-.19.285-.19H351c.57,0,1.14,0,1.425.38.19.095.19.38.19.855" transform="translate(-305.971 -217.21)" fill="#139ad6"/>
    <g id="Group_703" data-name="Group 703" transform="translate(17.954 3.99)">
      <path id="Path_752" data-name="Path 752" d="M156.235,221.2H153a.631.631,0,0,0-.475.38l-1.33,8.36a.252.252,0,0,0,.285.285H153a.631.631,0,0,0,.475-.38l.38-2.28a.435.435,0,0,1,.475-.38h1.045q3.277,0,3.7-3.135a2.49,2.49,0,0,0-.38-2.09,3.651,3.651,0,0,0-2.47-.76m.38,3.135c-.19,1.14-1.045,1.14-1.9,1.14h-.475l.38-2.185c0-.1.1-.19.285-.19h.19c.57,0,1.14,0,1.425.38a1.017,1.017,0,0,1,.1.855" transform="translate(-151.2 -221.2)" fill="#263b80"/>
      <path id="Path_753" data-name="Path 753" d="M221.273,245.39h-1.52c-.1,0-.285.1-.285.19l-.1.475-.095-.19a2.235,2.235,0,0,0-1.8-.665,3.65,3.65,0,0,0-3.515,3.135,2.831,2.831,0,0,0,.57,2.375,2.394,2.394,0,0,0,1.995.76,3.036,3.036,0,0,0,2.185-.855l-.095.475a.252.252,0,0,0,.285.285h1.425a.631.631,0,0,0,.475-.38l.855-5.32c-.1-.095-.285-.285-.38-.285m-2.185,3.04a1.837,1.837,0,0,1-1.8,1.52,1.519,1.519,0,0,1-1.045-.38,2.026,2.026,0,0,1-.285-1.14,1.694,1.694,0,0,1,2.755-1.14,1.658,1.658,0,0,1,.38,1.14" transform="translate(-206.454 -242.35)" fill="#263b80"/>
    </g>
    <path id="Path_754" data-name="Path 754" d="M416.473,245.39h-1.52c-.1,0-.285.1-.285.19l-.1.475-.095-.19a2.235,2.235,0,0,0-1.8-.665,3.65,3.65,0,0,0-3.515,3.135,2.832,2.832,0,0,0,.57,2.375,2.394,2.394,0,0,0,1.995.76,3.037,3.037,0,0,0,2.185-.855l-.1.475a.252.252,0,0,0,.285.285h1.425a.631.631,0,0,0,.475-.38l.855-5.32c-.1-.095-.19-.285-.38-.285m-2.185,3.04a1.837,1.837,0,0,1-1.8,1.52,1.519,1.519,0,0,1-1.045-.38,2.026,2.026,0,0,1-.285-1.14,1.694,1.694,0,0,1,2.755-1.14,1.09,1.09,0,0,1,.38,1.14" transform="translate(-360.52 -238.36)" fill="#139ad6"/>
    <path id="Path_755" data-name="Path 755" d="M291.315,246.8H289.7a.494.494,0,0,0-.38.19l-2.09,3.23-.95-3.04a.439.439,0,0,0-.475-.285h-1.52c-.19,0-.285.19-.285.38l1.71,5.035-1.615,2.28c-.1.19,0,.475.19.475h1.52a.493.493,0,0,0,.38-.19l5.225-7.5c.285-.285.1-.57-.1-.57" transform="translate(-250.276 -239.77)" fill="#263b80"/>
    <path id="Path_756" data-name="Path 756" d="M476.53,221.913l-1.33,8.55a.252.252,0,0,0,.285.285h1.33a.631.631,0,0,0,.475-.38l1.33-8.36a.252.252,0,0,0-.285-.285h-1.52c-.095-.095-.19,0-.285.19" transform="translate(-418.772 -217.638)" fill="#139ad6"/>
    <g id="Group_1393" data-name="Group 1393" transform="translate(0 0)">
      <path id="Path_757" data-name="Path 757" d="M10.925,188.74c-.665-.76-1.9-1.14-3.61-1.14H2.565a.815.815,0,0,0-.665.57L0,200.615a.435.435,0,0,0,.38.475H3.325l.76-4.655v.19a.815.815,0,0,1,.665-.57H6.175c2.755,0,4.845-1.14,5.51-4.275v-.285h0a3.318,3.318,0,0,0-.76-2.755" transform="translate(0 -187.6)" fill="#263b80"/>
      <path id="Path_758" data-name="Path 758" d="M34.15,220.4h0v.285c-.665,3.23-2.755,4.275-5.51,4.275H27.215a.815.815,0,0,0-.665.57l-.95,5.795a.348.348,0,0,0,.38.38h2.47a.532.532,0,0,0,.57-.475v-.095l.475-2.945V228a.532.532,0,0,1,.57-.475h.38c2.375,0,4.275-.95,4.75-3.8a3.493,3.493,0,0,0-.475-2.85.973.973,0,0,0-.57-.475" transform="translate(-22.56 -216.505)" fill="#139ad6"/>
      <path id="Path_759" data-name="Path 759" d="M41.24,215.885c-.1,0-.19-.1-.285-.1a.349.349,0,0,1-.285-.1,5.019,5.019,0,0,0-1.235-.095h-3.7a.349.349,0,0,0-.285.095.522.522,0,0,0-.285.475l-.76,4.94v.19a.815.815,0,0,1,.665-.57H36.49c2.755,0,4.845-1.14,5.51-4.275a.349.349,0,0,1,.1-.285c-.19-.1-.285-.19-.475-.19-.285-.1-.285-.1-.38-.1" transform="translate(-30.315 -212.274)" fill="#232c65"/>
    </g>
  </g>
</svg>
