<svg xmlns="http://www.w3.org/2000/svg" width="33.103" height="33.103" viewBox="0 0 33.103 33.103">
  <g id="Group_13575" data-name="Group 13575" transform="translate(-149.644 -615.449)">
    <path id="phone-call" d="M5.951,2h4.82a4.634,4.634,0,0,1,1.688.214,3.21,3.21,0,0,1,1.273.891,4.633,4.633,0,0,1,.778,1.513l.047.129L16.428,9.9l.015.042c.116.318.23.633.308.911A3.121,3.121,0,0,1,15.5,14.364c-.236.166-.523.339-.813.513l-.958.575a17.853,17.853,0,0,0,6.917,6.918l.575-.959c.174-.29.347-.578.513-.813a3.121,3.121,0,0,1,3.516-1.247c.278.078.593.193.911.308l5.189,1.887.129.047A4.631,4.631,0,0,1,33,22.371a3.21,3.21,0,0,1,.891,1.273,4.632,4.632,0,0,1,.214,1.688c0,.047,0,.093,0,.137V29.99c0,.052,0,.106,0,.161a4.528,4.528,0,0,1-.319,2.023,3.3,3.3,0,0,1-1.29,1.388,4.27,4.27,0,0,1-1.908.46l-.141.01q-.971.071-1.96.071A26.484,26.484,0,0,1,2,7.618q0-.989.072-1.96.005-.068.01-.141a4.273,4.273,0,0,1,.46-1.909,3.3,3.3,0,0,1,1.388-1.29A4.528,4.528,0,0,1,5.951,2ZM5.334,5.226c-.008.051-.017.124-.027.233s-.021.255-.034.434q-.063.854-.063,1.726A23.274,23.274,0,0,0,28.484,30.892q.871,0,1.726-.063c.179-.013.316-.023.434-.034s.182-.019.233-.027v-.006c.013-.15.014-.36.014-.772V25.468c0-.345,0-.525-.01-.655,0,0,0-.008,0-.012l-.011,0c-.119-.053-.288-.115-.613-.233L25.11,22.691c-.377-.137-.577-.209-.726-.251l-.015,0-.009.013c-.089.126-.2.308-.405.652l-1.318,2.2a1.605,1.605,0,0,1-2.039.636A21.029,21.029,0,0,1,10.169,15.5a1.605,1.605,0,0,1,.636-2.04L13,12.147c.344-.206.526-.317.652-.406l.013-.009,0-.015c-.042-.148-.114-.349-.251-.726L11.539,5.845c-.118-.325-.18-.493-.233-.613l0-.011H11.29c-.13-.009-.31-.01-.655-.01H6.112c-.412,0-.622,0-.772.014H5.334ZM24.471,2a1.605,1.605,0,0,1,1.605,1.605v9.631a1.605,1.605,0,0,1-3.21,0V3.606A1.605,1.605,0,0,1,24.471,2ZM32.5,2A1.605,1.605,0,0,1,34.1,3.606v9.631a1.605,1.605,0,0,1-3.21,0V3.606A1.605,1.605,0,0,1,32.5,2Z" transform="translate(148.144 613.949)" fill="#ff7a07" fill-rule="evenodd"/>
    <path id="phone-call_-_Outline" data-name="phone-call - Outline" d="M5.773,1.5h5.15a4.725,4.725,0,0,1,1.716.247,3.723,3.723,0,0,1,1.471,1.03A5.1,5.1,0,0,1,14.98,4.45l.046.127L16.914,9.77c.115.315.235.645.319.943a3.62,3.62,0,0,1-1.44,4.06c-.251.177-.553.358-.845.533l-.537.322a17.283,17.283,0,0,0,6.063,6.064l.323-.538c.175-.292.356-.594.533-.845a3.621,3.621,0,0,1,2.793-1.592c.07,0,.14-.007.21-.007a3.87,3.87,0,0,1,1.057.159c.294.083.623.2.941.318l.005,0,5.317,1.933a5.1,5.1,0,0,1,1.672.871,3.723,3.723,0,0,1,1.03,1.471,5.1,5.1,0,0,1,.247,1.868V30.15a4.985,4.985,0,0,1-.369,2.241,3.8,3.8,0,0,1-1.491,1.6,4.721,4.721,0,0,1-2.124.525l-.138.01c-.661.048-1.332.073-2,.073a26.815,26.815,0,0,1-10.5-2.121A26.962,26.962,0,0,1,1.5,7.618c0-.665.025-1.337.073-2q0-.067.01-.138A4.727,4.727,0,0,1,2.108,3.36a3.8,3.8,0,0,1,1.6-1.491A4.635,4.635,0,0,1,5.773,1.5Zm4.861,1H5.773a3.735,3.735,0,0,0-1.627.27A2.815,2.815,0,0,0,2.974,3.859,3.845,3.845,0,0,0,2.58,5.552q-.005.073-.01.143c-.047.636-.07,1.283-.07,1.924A26.013,26.013,0,0,0,28.484,33.6c.64,0,1.288-.024,1.924-.07l.142-.01a3.841,3.841,0,0,0,1.694-.394,2.815,2.815,0,0,0,1.089-1.172,4.12,4.12,0,0,0,.269-1.8V25.332a4.246,4.246,0,0,0-.18-1.51,2.719,2.719,0,0,0-.753-1.074,4.235,4.235,0,0,0-1.354-.684l-.131-.048L25.99,20.127c-.315-.114-.612-.223-.87-.3a2.907,2.907,0,0,0-.786-.121c-.048,0-.1,0-.145,0a2.622,2.622,0,0,0-2.041,1.171c-.156.22-.319.493-.493.782l-.824,1.373-.423-.235A18.283,18.283,0,0,1,13.3,15.694l-.235-.423,1.373-.824c.276-.166.561-.337.782-.493a2.622,2.622,0,0,0,1.054-2.972c-.074-.262-.187-.574-.3-.875l-.014-.039L14.086,4.919l-.047-.131a4.237,4.237,0,0,0-.684-1.354,2.72,2.72,0,0,0-1.074-.752A4.2,4.2,0,0,0,10.774,2.5Zm13.837-1a2.107,2.107,0,0,1,2.105,2.105v9.631a2.105,2.105,0,0,1-4.21,0V3.606A2.107,2.107,0,0,1,24.471,1.5Zm0,12.841a1.106,1.106,0,0,0,1.105-1.105V3.606a1.105,1.105,0,1,0-2.21,0v9.631A1.106,1.106,0,0,0,24.471,14.341ZM32.5,1.5A2.107,2.107,0,0,1,34.6,3.606v9.631a2.105,2.105,0,0,1-4.21,0V3.606A2.107,2.107,0,0,1,32.5,1.5Zm0,12.841A1.106,1.106,0,0,0,33.6,13.236V3.606a1.105,1.105,0,1,0-2.21,0v9.631A1.106,1.106,0,0,0,32.5,14.341ZM6.112,4.711h4.522c.368,0,.545,0,.689.011l.31.022.131.287c.058.131.119.3.245.643l1.872,5.147c.147.4.216.6.262.761l.1.354-.3.214c-.138.1-.314.2-.683.426l-2.2,1.318a1.1,1.1,0,0,0-.438,1.4A20.44,20.44,0,0,0,20.805,25.479a1.1,1.1,0,0,0,.455.1,1.112,1.112,0,0,0,.949-.537l1.318-2.2c.216-.359.328-.544.426-.683l.208-.294.356.092c.165.046.359.116.764.263l5.147,1.872c.347.126.512.188.644.246l.005,0,.29.119.013.319c.01.144.011.32.011.689V29.99c0,.437,0,.646-.016.815l-.033.4-.387.062c-.068.011-.153.021-.266.031s-.261.021-.443.035c-.581.043-1.174.064-1.762.064a23.7,23.7,0,0,1-16.811-6.963A23.7,23.7,0,0,1,4.71,7.619c0-.587.022-1.18.064-1.762.014-.2.024-.324.035-.443s.02-.2.031-.266L4.9,4.753l.4-.027C5.467,4.712,5.676,4.711,6.112,4.711Zm4.846,1H5.788c0,.063-.01.134-.016.218-.041.558-.062,1.127-.062,1.689A22.8,22.8,0,0,0,28.484,30.392c.563,0,1.132-.021,1.689-.062l.218-.016c0-.091,0-.2,0-.324V25.468c0-.131,0-.237,0-.324l-.3-.112L24.94,23.161l-.358-.129c-.056.091-.121.2-.2.326l-1.318,2.2a2.117,2.117,0,0,1-1.806,1.022,2.089,2.089,0,0,1-.868-.188,21.343,21.343,0,0,1-6.307-4.373,21.4,21.4,0,0,1-4.372-6.306,2.1,2.1,0,0,1,.834-2.675l2.2-1.318.326-.2c-.034-.1-.077-.214-.129-.358L11.069,6.016C11.025,5.893,10.988,5.793,10.958,5.712Z" transform="translate(148.144 613.949)" fill="#fff"/>
  </g>
</svg>
