<svg xmlns="http://www.w3.org/2000/svg" width="11.643" height="13.64" viewBox="0 0 11.643 13.64">
  <g id="Group_13614" data-name="Group 13614" transform="translate(0 0)">
    <g id="Group_13613" data-name="Group 13613" transform="translate(0 0)">
      <path id="Path_10164" data-name="Path 10164" d="M140.8,1.035H139.66a.315.315,0,0,1-.3-.21A1.141,1.141,0,0,0,138.175,0a1.157,1.157,0,0,0-1.184.84.3.3,0,0,1-.3.193h-1.1V2.785H140.8Z" transform="translate(-132.373 -0.001)" fill="#1b4541"/>
      <path id="Path_10165" data-name="Path 10165" d="M63.631,72.885V62.852a.775.775,0,0,0-.821-.72l-.062,0H61.021v.893c0,.14-.1.333-.261.333H54.839c-.161,0-.241-.193-.241-.333v-.893H52.871a.8.8,0,0,0-.881.663q0,.027,0,.054V72.885a.845.845,0,0,0,.883.805h9.877a.845.845,0,0,0,.883-.805Zm-7.447-2.311-1.566,1.278a.3.3,0,0,1-.2.088.344.344,0,0,1-.221-.088l-.823-.735a.24.24,0,0,1,.02-.368.333.333,0,0,1,.422,0l.6.56,1.365-1.121a.33.33,0,0,1,.419.067A.237.237,0,0,1,56.184,70.574Zm0-2.8h0l-1.566,1.278a.3.3,0,0,1-.2.088.344.344,0,0,1-.221-.088l-.823-.735a.24.24,0,0,1,.02-.368.333.333,0,0,1,.422,0l.6.56,1.365-1.121a.33.33,0,0,1,.419.067A.237.237,0,0,1,56.184,67.772Zm0-2.8-1.566,1.278a.3.3,0,0,1-.2.088.344.344,0,0,1-.221-.088l-.823-.735a.24.24,0,0,1,.02-.368.333.333,0,0,1,.422,0l.6.56,1.365-1.121a.33.33,0,0,1,.419.067A.237.237,0,0,1,56.184,64.971Zm5.842,6.618H57.408a.265.265,0,1,1,0-.525h4.617a.265.265,0,1,1,0,.525Zm0-2.8H57.408a.265.265,0,1,1,0-.525h4.617a.265.265,0,1,1,0,.525Zm0-2.8H57.408a.265.265,0,1,1,0-.525h4.617a.265.265,0,1,1,0,.525Z" transform="translate(-51.988 -60.05)" fill="#1b4541"/>
    </g>
  </g>
</svg>
