<svg id="Group_10824" data-name="Group 10824" xmlns="http://www.w3.org/2000/svg" width="36" height="36" viewBox="0 0 36 36">
  <g id="Rectangle_1047" data-name="Rectangle 1047" fill="#fff" stroke="#ebebeb" stroke-width="1">
    <rect width="36" height="36" rx="10" stroke="none"/>
    <rect x="0.5" y="0.5" width="35" height="35" rx="9.5" fill="none"/>
  </g>
  <path id="Path_5302" data-name="Path 5302" d="M-1717.642-7315.269a1,1,0,0,1-.658-.247l-6.745-5.9a1,1,0,0,1-.342-.753,1,1,0,0,1,.342-.753l6.745-5.9a1,1,0,0,1,1.411.095,1,1,0,0,1-.094,1.411l-5.884,5.146,5.884,5.146a1,1,0,0,1,.094,1.411A1,1,0,0,1-1717.642-7315.269Z" transform="translate(1738.553 7340.168)" fill="#1b4541"/>
</svg>
