<svg id="Quill" xmlns="http://www.w3.org/2000/svg" width="18.638" height="18.652" viewBox="0 0 18.638 18.652">
  <g id="Group_10392" data-name="Group 10392" transform="translate(0)">
    <path id="Path_5104" data-name="Path 5104" d="M.38.043A.436.436,0,0,1,.871.121,22.614,22.614,0,0,0,6.127,3.81a.436.436,0,0,1,.222.28,9.4,9.4,0,0,0,1.2,2.646l.241.383L7.345,5.16a.436.436,0,0,1,.6-.5l.052.022c5.107,2.15,6.616,5.479,7.061,7.273a7.489,7.489,0,0,1,.229,1.832,5.7,5.7,0,0,1-.038.651l3.4,3.471a.436.436,0,0,1-.6.63l-9.352-8.4c-.046,0,5.325,5.629,5.277,5.629a6.742,6.742,0,0,1-2.912-.972A26.4,26.4,0,0,1,5.932,11a.436.436,0,0,1,.393-.745l1.1.251-.383-.241A8.864,8.864,0,0,0,4.07,8.984a.436.436,0,0,1-.25-.146,15.793,15.793,0,0,1-3.4-6.6A13.066,13.066,0,0,1,.136.475.436.436,0,0,1,.38.043Z" transform="translate(-0.134 0)" fill="#fff"/>
  </g>
</svg>
