<svg xmlns="http://www.w3.org/2000/svg" width="57.16" height="9.485" viewBox="0 0 57.16 9.485">
  <g id="Ratingstarts" transform="translate(-15.59)">
    <path id="star_1_" data-name="star (1)" d="M9.732,4.025a.518.518,0,0,0-.446-.357L6.469,3.413,5.355.806a.519.519,0,0,0-.954,0L3.288,3.413.472,3.668a.519.519,0,0,0-.294.908L2.306,6.443,1.678,9.208a.518.518,0,0,0,.771.56L4.879,8.316,7.307,9.768a.519.519,0,0,0,.772-.56L7.451,6.443,9.58,4.576a.519.519,0,0,0,.152-.551Zm0,0" transform="translate(15.59 -0.491)" fill="#ffc107"/>
    <path id="star_1_2" data-name="star (1)" d="M9.732,4.025a.518.518,0,0,0-.446-.357L6.469,3.413,5.355.806a.519.519,0,0,0-.954,0L3.288,3.413.472,3.668a.519.519,0,0,0-.294.908L2.306,6.443,1.678,9.208a.518.518,0,0,0,.771.56L4.879,8.316,7.307,9.768a.519.519,0,0,0,.772-.56L7.451,6.443,9.58,4.576a.519.519,0,0,0,.152-.551Zm0,0" transform="translate(27.441 -0.491)" fill="#ffc107"/>
    <path id="star_1_3" data-name="star (1)" d="M9.732,4.025a.518.518,0,0,0-.446-.357L6.469,3.413,5.355.806a.519.519,0,0,0-.954,0L3.288,3.413.472,3.668a.519.519,0,0,0-.294.908L2.306,6.443,1.678,9.208a.518.518,0,0,0,.771.56L4.879,8.316,7.307,9.768a.519.519,0,0,0,.772-.56L7.451,6.443,9.58,4.576a.519.519,0,0,0,.152-.551Zm0,0" transform="translate(39.292 -0.491)" fill="#ffc107"/>
    <path id="star_1_4" data-name="star (1)" d="M9.732,4.025a.518.518,0,0,0-.446-.357L6.469,3.413,5.355.806a.519.519,0,0,0-.954,0L3.288,3.413.472,3.668a.519.519,0,0,0-.294.908L2.306,6.443,1.678,9.208a.518.518,0,0,0,.771.56L4.879,8.316,7.307,9.768a.519.519,0,0,0,.772-.56L7.451,6.443,9.58,4.576a.519.519,0,0,0,.152-.551Zm0,0" transform="translate(51.143 -0.491)" fill="#ffc107"/>
    <path id="star_1_5" data-name="star (1)" d="M9.732,4.025a.518.518,0,0,0-.446-.357L6.469,3.413,5.355.806a.519.519,0,0,0-.954,0L3.288,3.413.472,3.668a.519.519,0,0,0-.294.908L2.306,6.443,1.678,9.208a.518.518,0,0,0,.771.56L4.879,8.316,7.307,9.768a.519.519,0,0,0,.772-.56L7.451,6.443,9.58,4.576a.519.519,0,0,0,.152-.551Zm0,0" transform="translate(62.993 -0.358)" fill="#ffc107"/>
    <path id="star_1_6" data-name="star (1)" d="M7.278,4.025a.518.518,0,0,0-.446-.357L4.015,3.413,2.9.806C2.819.615,2.425.491,2.425.491V8.316L4.853,9.768a.519.519,0,0,0,.772-.56L5,6.443,7.126,4.576a.519.519,0,0,0,.152-.551Zm0,0" transform="translate(65.447 -0.365)" fill="#d6d6d6"/>
  </g>
</svg>
