<svg xmlns="http://www.w3.org/2000/svg" width="56" height="56" viewBox="0 0 56 56">
  <g id="Group_13766" data-name="Group 13766" transform="translate(-435 -591)">
    <rect id="Rectangle_953" data-name="Rectangle 953" width="56" height="56" rx="8" transform="translate(435 591)" fill="#f0f8fd"/>
    <g id="search-engine" transform="translate(451.306 605.652)">
      <g id="Group_11013" data-name="Group 11013" transform="translate(0 0)">
        <path id="Path_5410" data-name="Path 5410" d="M16.914,3.088A.685.685,0,0,0,17.6,2.4V1.825A1.827,1.827,0,0,0,15.773,0H1.826A1.827,1.827,0,0,0,0,1.825V24.869a1.827,1.827,0,0,0,1.826,1.825H15.773A1.827,1.827,0,0,0,17.6,24.869V22.96a.685.685,0,0,0-1.369,0v1.909a.457.457,0,0,1-.456.456H1.826a.457.457,0,0,1-.456-.456V1.825a.457.457,0,0,1,.456-.456H3.749l.925,1.779A1.822,1.822,0,0,0,6.3,4.131H11.3a1.822,1.822,0,0,0,1.622-.984l.925-1.779h1.923a.457.457,0,0,1,.456.456V2.4a.685.685,0,0,0,.685.684Zm-5.2-.572a.457.457,0,0,1-.407.247H6.3a.458.458,0,0,1-.407-.247l-.6-1.147h7.014Z" transform="translate(0 0)" fill="#1b4541"/>
        <path id="Path_5410_-_Outline" data-name="Path 5410 - Outline" d="M1.826-.25H15.773a2.078,2.078,0,0,1,2.076,2.075V2.4a.935.935,0,0,1-1.869,0V1.825a.207.207,0,0,0-.206-.206H14l-.855,1.644A2.071,2.071,0,0,1,11.3,4.381H6.3A2.071,2.071,0,0,1,4.453,3.263L3.6,1.619H1.826a.207.207,0,0,0-.206.206V24.869a.207.207,0,0,0,.206.206H15.773a.207.207,0,0,0,.206-.206V22.96a.935.935,0,0,1,1.869,0v1.909a2.078,2.078,0,0,1-2.076,2.075H1.826A2.078,2.078,0,0,1-.25,24.869V1.825A2.078,2.078,0,0,1,1.826-.25ZM16.914,2.838a.435.435,0,0,0,.435-.434V1.825A1.577,1.577,0,0,0,15.773.25H1.826A1.577,1.577,0,0,0,.25,1.825V24.869a1.577,1.577,0,0,0,1.576,1.575H15.773a1.577,1.577,0,0,0,1.576-1.575V22.96a.435.435,0,0,0-.869,0v1.909a.707.707,0,0,1-.706.706H1.826a.707.707,0,0,1-.706-.706V1.825a.707.707,0,0,1,.706-.706H3.9l1,1.913a1.573,1.573,0,0,0,1.4.849H11.3a1.573,1.573,0,0,0,1.4-.849l1-1.913h2.075a.707.707,0,0,1,.706.706V2.4A.435.435,0,0,0,16.914,2.838ZM4.88,1.119h7.838l-.787,1.512a.707.707,0,0,1-.629.381H6.3a.707.707,0,0,1-.629-.381Zm7.014.5H5.7l.407.781a.208.208,0,0,0,.186.112H11.3a.208.208,0,0,0,.186-.112Z" transform="translate(0 0)" fill="#1b4541"/>
        <g id="Group_11012" data-name="Group 11012" transform="translate(10.687 11.122)">
          <path id="Path_5411" data-name="Path 5411" d="M190.524,256.369h-2.472a.684.684,0,1,1,0-1.369h2.472a.684.684,0,1,1,0,1.369Z" transform="translate(-187.367 -251.578)" fill="#1b4541"/>
          <path id="Path_5411_-_Outline" data-name="Path 5411 - Outline" d="M190.524,256.619h-2.472a.934.934,0,1,1,0-1.869h2.472a.934.934,0,1,1,0,1.869Zm-2.472-1.369a.434.434,0,1,0,0,.869h2.472a.434.434,0,1,0,0-.869Z" transform="translate(-187.367 -251.578)" fill="#1b4541"/>
          <path id="Path_5412" data-name="Path 5412" d="M280.541,256.369h-2.472a.684.684,0,1,1,0-1.369h2.472a.684.684,0,1,1,0,1.369Z" transform="translate(-272.25 -251.578)" fill="#1b4541"/>
          <path id="Path_5412_-_Outline" data-name="Path 5412 - Outline" d="M280.541,256.619h-2.472a.934.934,0,1,1,0-1.869h2.472a.934.934,0,1,1,0,1.869Zm-2.472-1.369a.434.434,0,1,0,0,.869h2.472a.434.434,0,1,0,0-.869Z" transform="translate(-272.25 -251.578)" fill="#1b4541"/>
          <path id="Path_5413" data-name="Path 5413" d="M195.356,196.369h-7.3a.684.684,0,1,1,0-1.369h7.3a.684.684,0,1,1,0,1.369Z" transform="translate(-187.367 -195)" fill="#1b4541"/>
          <path id="Path_5413_-_Outline" data-name="Path 5413 - Outline" d="M195.356,196.619h-7.3a.934.934,0,1,1,0-1.869h7.3a.934.934,0,1,1,0,1.869Zm-7.3-1.369a.434.434,0,1,0,0,.869h7.3a.434.434,0,1,0,0-.869Z" transform="translate(-187.367 -195)" fill="#1b4541"/>
        </g>
        <path id="Path_5414" data-name="Path 5414" d="M155.721,124.494l-2.981-3.546a.685.685,0,0,0-.964-.084l-1.055.884-.667-.791a7.328,7.328,0,0,0-8.268-11.81h-2.854a.684.684,0,1,0,0,1.369h.841a7.327,7.327,0,0,0,9.233,11.323l.665.789-1.041.872a.688.688,0,0,0-.084.966L151.529,128a2.747,2.747,0,0,0,3.854.336h0A2.734,2.734,0,0,0,155.721,124.494Zm-10.883-2.722a5.962,5.962,0,1,1,5.963-5.962A5.969,5.969,0,0,1,144.838,121.772Zm9.667,5.515a1.375,1.375,0,0,1-1.929-.168l-2.54-3.012,2.1-1.755,2.542,3.023a1.359,1.359,0,0,1-.168,1.912Z" transform="translate(-129.663 -102.292)" fill="#1b4541"/>
        <path id="Path_5414_-_Outline" data-name="Path 5414 - Outline" d="M153.627,129.224h0a2.986,2.986,0,0,1-2.289-1.061l-2.983-3.537a.938.938,0,0,1,.118-1.322l.845-.708-.359-.426a7.578,7.578,0,0,1-9.776-11.405h-.251a.934.934,0,1,1,0-1.869h2.8a7.5,7.5,0,0,1,3.106-.666,7.576,7.576,0,0,1,5.552,12.737l.361.429.864-.724a.935.935,0,0,1,1.315.115l2.98,3.544a2.984,2.984,0,0,1-.37,4.2A2.99,2.99,0,0,1,153.627,129.224Zm-4.576-7.721.973,1.155-1.233,1.033a.439.439,0,0,0-.056.609l2.986,3.541a2.487,2.487,0,0,0,1.907.883h0a2.489,2.489,0,0,0,1.6-.577l0,0a2.484,2.484,0,0,0,.307-3.484l0,0-2.981-3.546a.434.434,0,0,0-.333-.155.429.429,0,0,0-.279.1L150.69,122.1l-.974-1.156.16-.162a7.078,7.078,0,0,0-7.986-11.408l-.05.023h-2.908a.434.434,0,1,0,0,.869H140.4l-.45.431a7.018,7.018,0,0,0-2.19,5.115,7.078,7.078,0,0,0,11.108,5.822Zm4.575,6.353a1.619,1.619,0,0,1-1.241-.575l-2.7-3.2L152.162,122l2.7,3.212a1.609,1.609,0,0,1-.2,2.269A1.624,1.624,0,0,1,153.626,127.856Zm-3.237-3.718,2.379,2.821a1.125,1.125,0,0,0,1.578.137l0,0a1.109,1.109,0,0,0,.137-1.552l0,0L152.1,122.7Zm-5.551-2.116a6.212,6.212,0,1,1,6.213-6.212A6.219,6.219,0,0,1,144.838,122.022Zm0-11.923a5.712,5.712,0,1,0,5.713,5.712A5.719,5.719,0,0,0,144.838,110.1Z" transform="translate(-129.663 -102.292)" fill="#1b4541"/>
      </g>
      <g id="Group_11014" data-name="Group 11014" transform="translate(2.84 6.854)">
        <path id="Path_5415" data-name="Path 5415" d="M53.114,121.528H50.472a.684.684,0,1,1,0-1.369h2.642a.684.684,0,1,1,0,1.369Z" transform="translate(-49.787 -120.159)" fill="#1b4541"/>
        <path id="Path_5415_-_Outline" data-name="Path 5415 - Outline" d="M53.114,121.778H50.472a.934.934,0,1,1,0-1.869h2.642a.934.934,0,1,1,0,1.869Zm-2.642-1.369a.434.434,0,1,0,0,.869h2.642a.434.434,0,1,0,0-.869Z" transform="translate(-49.787 -120.159)" fill="#1b4541"/>
        <path id="Path_5416" data-name="Path 5416" d="M53.057,184.528H50.472a.684.684,0,1,1,0-1.369h2.585a.684.684,0,1,1,0,1.369Z" transform="translate(-49.787 -179.566)" fill="#1b4541"/>
        <path id="Path_5416_-_Outline" data-name="Path 5416 - Outline" d="M53.057,184.778H50.472a.934.934,0,1,1,0-1.869h2.585a.934.934,0,1,1,0,1.869Zm-2.585-1.369a.434.434,0,1,0,0,.869h2.585a.434.434,0,1,0,0-.869Z" transform="translate(-49.787 -179.566)" fill="#1b4541"/>
        <path id="Path_5417" data-name="Path 5417" d="M53.057,247.528H50.472a.684.684,0,1,1,0-1.369h2.585a.684.684,0,1,1,0,1.369Z" transform="translate(-49.787 -238.972)" fill="#1b4541"/>
        <path id="Path_5417_-_Outline" data-name="Path 5417 - Outline" d="M53.057,247.778H50.472a.934.934,0,1,1,0-1.869h2.585a.934.934,0,1,1,0,1.869Zm-2.585-1.369a.434.434,0,1,0,0,.869h2.585a.434.434,0,1,0,0-.869Z" transform="translate(-49.787 -238.972)" fill="#1b4541"/>
        <path id="Path_5418" data-name="Path 5418" d="M53.057,310.528H50.472a.684.684,0,1,1,0-1.369h2.585a.684.684,0,1,1,0,1.369Z" transform="translate(-49.787 -298.379)" fill="#1b4541"/>
        <path id="Path_5418_-_Outline" data-name="Path 5418 - Outline" d="M53.057,310.778H50.472a.934.934,0,1,1,0-1.869h2.585a.934.934,0,1,1,0,1.869Zm-2.585-1.369a.434.434,0,1,0,0,.869h2.585a.434.434,0,1,0,0-.869Z" transform="translate(-49.787 -298.379)" fill="#1b4541"/>
        <path id="Path_5419" data-name="Path 5419" d="M58.712,373.528h-8.24a.684.684,0,1,1,0-1.369h8.24a.684.684,0,1,1,0,1.369Z" transform="translate(-49.787 -357.785)" fill="#1b4541"/>
        <path id="Path_5419_-_Outline" data-name="Path 5419 - Outline" d="M58.712,373.778h-8.24a.934.934,0,1,1,0-1.869h8.24a.934.934,0,1,1,0,1.869Zm-8.24-1.369a.434.434,0,1,0,0,.869h8.24a.434.434,0,1,0,0-.869Z" transform="translate(-49.787 -357.785)" fill="#1b4541"/>
      </g>
      <g id="Group_11015" data-name="Group 11015" transform="translate(16.207 4.034)">
        <ellipse id="Ellipse_167" data-name="Ellipse 167" cx="0.742" cy="0.741" rx="0.742" ry="0.741" fill="#1b4541"/>
        <path id="Ellipse_167_-_Outline" data-name="Ellipse 167 - Outline" d="M.742-.25A.992.992,0,1,1-.25.741.993.993,0,0,1,.742-.25Zm0,1.483A.492.492,0,1,0,.25.741.492.492,0,0,0,.742,1.233Z" fill="#1b4541"/>
      </g>
    </g>
  </g>
</svg>
