<svg id="Group_13636" data-name="Group 13636" xmlns="http://www.w3.org/2000/svg" width="82.929" height="11.557" viewBox="0 0 82.929 11.557">
  <path id="star" d="M13.321,6.34a.976.976,0,0,0-.543-1.665L9.871,4.253a.142.142,0,0,1-.106-.077L8.466,1.54a.975.975,0,0,0-1.75,0l-1.3,2.636a.141.141,0,0,1-.106.077L2.4,4.676A.976.976,0,0,0,1.86,6.34l2.1,2.051a.141.141,0,0,1,.042.125l-.5,2.9A.976.976,0,0,0,4.925,12.44l2.6-1.368a.139.139,0,0,1,.131,0l2.6,1.367a.976.976,0,0,0,1.416-1.029l-.5-2.9a.141.141,0,0,1,.042-.125Z" transform="translate(-1.565 -0.996)" fill="#f8c600"/>
  <path id="star-2" data-name="star" d="M13.321,6.34a.976.976,0,0,0-.543-1.665L9.871,4.253a.142.142,0,0,1-.106-.077L8.466,1.54a.975.975,0,0,0-1.75,0l-1.3,2.636a.141.141,0,0,1-.106.077L2.4,4.676A.976.976,0,0,0,1.86,6.34l2.1,2.051a.141.141,0,0,1,.042.125l-.5,2.9A.976.976,0,0,0,4.925,12.44l2.6-1.368a.139.139,0,0,1,.131,0l2.6,1.367a.976.976,0,0,0,1.416-1.029l-.5-2.9a.141.141,0,0,1,.042-.125Z" transform="translate(16.154 -0.996)" fill="#f8c600"/>
  <path id="star-3" data-name="star" d="M13.321,6.34a.976.976,0,0,0-.543-1.665L9.871,4.253a.142.142,0,0,1-.106-.077L8.466,1.54a.975.975,0,0,0-1.75,0l-1.3,2.636a.141.141,0,0,1-.106.077L2.4,4.676A.976.976,0,0,0,1.86,6.34l2.1,2.051a.141.141,0,0,1,.042.125l-.5,2.9A.976.976,0,0,0,4.925,12.44l2.6-1.368a.139.139,0,0,1,.131,0l2.6,1.367a.976.976,0,0,0,1.416-1.029l-.5-2.9a.141.141,0,0,1,.042-.125Z" transform="translate(33.874 -0.996)" fill="#f8c600"/>
  <path id="star-4" data-name="star" d="M13.321,6.34a.976.976,0,0,0-.543-1.665L9.871,4.253a.142.142,0,0,1-.106-.077L8.466,1.54a.975.975,0,0,0-1.75,0l-1.3,2.636a.141.141,0,0,1-.106.077L2.4,4.676A.976.976,0,0,0,1.86,6.34l2.1,2.051a.141.141,0,0,1,.042.125l-.5,2.9A.976.976,0,0,0,4.925,12.44l2.6-1.368a.139.139,0,0,1,.131,0l2.6,1.367a.976.976,0,0,0,1.416-1.029l-.5-2.9a.141.141,0,0,1,.042-.125Z" transform="translate(51.594 -0.996)" fill="#f8c600"/>
  <path id="star-5" data-name="star" d="M13.321,6.34a.976.976,0,0,0-.543-1.665L9.871,4.253a.142.142,0,0,1-.106-.077L8.466,1.54a.975.975,0,0,0-1.75,0l-1.3,2.636a.141.141,0,0,1-.106.077L2.4,4.676A.976.976,0,0,0,1.86,6.34l2.1,2.051a.141.141,0,0,1,.042.125l-.5,2.9A.976.976,0,0,0,4.925,12.44l2.6-1.368a.139.139,0,0,1,.131,0l2.6,1.367a.976.976,0,0,0,1.416-1.029l-.5-2.9a.141.141,0,0,1,.042-.125Z" transform="translate(69.314 -0.996)" fill="#f8c600"/>
</svg>
