<svg id="Reviews" xmlns="http://www.w3.org/2000/svg" width="21.972" height="20.403" viewBox="0 0 21.972 20.403">
  <path id="Path_5295" data-name="Path 5295" d="M6.278,0h9.417a6.278,6.278,0,0,1,6.278,6.278v7.847A6.278,6.278,0,0,1,15.694,20.4H6.278A6.278,6.278,0,0,1,0,14.125V6.278A6.278,6.278,0,0,1,6.278,0Z" transform="translate(0 0)" fill="#ff7a07"/>
  <path id="star_1_" data-name="star (1)" d="M10.762,4.4A.572.572,0,0,0,10.268,4L7.154,3.722,5.923.839a.573.573,0,0,0-1.055,0L3.636,3.722.522,4a.574.574,0,0,0-.326,1L2.55,7.073,1.856,10.13a.573.573,0,0,0,.853.62L5.4,9.144,8.081,10.75a.573.573,0,0,0,.853-.62L8.24,7.073l2.354-2.064a.574.574,0,0,0,.168-.61Zm0,0" transform="translate(5.5 4.541)" fill="#fff"/>
</svg>
