<svg xmlns="http://www.w3.org/2000/svg" width="125.053" height="17.427" viewBox="0 0 125.053 17.427">
  <g id="Group_10712" data-name="Group 10712" transform="translate(0)">
    <path id="star" d="M19.292,9.054a1.472,1.472,0,0,0-.818-2.51L14.09,5.907a.214.214,0,0,1-.16-.116L11.972,1.817a1.471,1.471,0,0,0-2.639,0L7.369,5.792a.212.212,0,0,1-.16.116l-4.385.637a1.471,1.471,0,0,0-.815,2.509l3.173,3.093a.212.212,0,0,1,.063.189L4.5,16.7a1.471,1.471,0,0,0,2.135,1.551l3.922-2.062a.21.21,0,0,1,.2,0l3.923,2.062A1.471,1.471,0,0,0,16.808,16.7l-.749-4.367a.213.213,0,0,1,.063-.189Z" transform="translate(-1.566 -0.996)" fill="#f8c600"/>
    <path id="star-2" data-name="star" d="M19.292,9.054a1.472,1.472,0,0,0-.818-2.51L14.09,5.907a.214.214,0,0,1-.16-.116L11.972,1.817a1.471,1.471,0,0,0-2.639,0L7.369,5.792a.212.212,0,0,1-.16.116l-4.385.637a1.471,1.471,0,0,0-.815,2.509l3.173,3.093a.212.212,0,0,1,.063.189L4.5,16.7a1.471,1.471,0,0,0,2.135,1.551l3.922-2.062a.21.21,0,0,1,.2,0l3.923,2.062A1.471,1.471,0,0,0,16.808,16.7l-.749-4.367a.213.213,0,0,1,.063-.189Z" transform="translate(25.155 -0.996)" fill="#f8c600"/>
    <path id="star-3" data-name="star" d="M19.292,9.054a1.472,1.472,0,0,0-.818-2.51L14.09,5.907a.214.214,0,0,1-.16-.116L11.972,1.817a1.471,1.471,0,0,0-2.639,0L7.369,5.792a.212.212,0,0,1-.16.116l-4.385.637a1.471,1.471,0,0,0-.815,2.509l3.173,3.093a.212.212,0,0,1,.063.189L4.5,16.7a1.471,1.471,0,0,0,2.135,1.551l3.922-2.062a.21.21,0,0,1,.2,0l3.923,2.062A1.471,1.471,0,0,0,16.808,16.7l-.749-4.367a.213.213,0,0,1,.063-.189Z" transform="translate(51.876 -0.996)" fill="#f8c600"/>
    <path id="star-4" data-name="star" d="M19.292,9.054a1.472,1.472,0,0,0-.818-2.51L14.09,5.907a.214.214,0,0,1-.16-.116L11.972,1.817a1.471,1.471,0,0,0-2.639,0L7.369,5.792a.212.212,0,0,1-.16.116l-4.385.637a1.471,1.471,0,0,0-.815,2.509l3.173,3.093a.212.212,0,0,1,.063.189L4.5,16.7a1.471,1.471,0,0,0,2.135,1.551l3.922-2.062a.21.21,0,0,1,.2,0l3.923,2.062A1.471,1.471,0,0,0,16.808,16.7l-.749-4.367a.213.213,0,0,1,.063-.189Z" transform="translate(78.597 -0.996)" fill="#f8c600"/>
    <path id="star-5" data-name="star" d="M19.292,9.054a1.472,1.472,0,0,0-.818-2.51L14.09,5.907a.214.214,0,0,1-.16-.116L11.972,1.817a1.471,1.471,0,0,0-2.639,0L7.369,5.792a.212.212,0,0,1-.16.116l-4.385.637a1.471,1.471,0,0,0-.815,2.509l3.173,3.093a.212.212,0,0,1,.063.189L4.5,16.7a1.471,1.471,0,0,0,2.135,1.551l3.922-2.062a.21.21,0,0,1,.2,0l3.923,2.062A1.471,1.471,0,0,0,16.808,16.7l-.749-4.367a.213.213,0,0,1,.063-.189Z" transform="translate(105.317 -0.996)" fill="#f8c600"/>
  </g>
</svg>
