<svg id="Group_13768" data-name="Group 13768" xmlns="http://www.w3.org/2000/svg" width="58" height="55" viewBox="0 0 58 55">
  <path id="Rectangle_992" data-name="Rectangle 992" d="M15,0H58a0,0,0,0,1,0,0V55a0,0,0,0,1,0,0H0a0,0,0,0,1,0,0V15A15,15,0,0,1,15,0Z" fill="#1b4541"/>
  <g id="deadline" transform="translate(16.083 10.542)">
    <path id="Path_5230" data-name="Path 5230" d="M157.955,212a6.955,6.955,0,1,0,6.955,6.955A6.963,6.963,0,0,0,157.955,212Zm3.974,7.949h-3.974a.994.994,0,0,1-.994-.994v-3.974a.994.994,0,0,1,1.987,0v2.981h2.981a.994.994,0,0,1,0,1.987Z" transform="translate(-145.038 -197.957)" fill="#fff"/>
    <path id="Path_5231" data-name="Path 5231" d="M76.9.994A.994.994,0,0,0,75.9,0c-2.3,0-3.2,3.026-3.925,5.221-.5,1.535-1.266,3.854-2.037,3.854-.6,0-.99-1.766-.994-2.981a.994.994,0,0,0-1.737-.658C64.07,8.985,61,15.189,61,21a12.917,12.917,0,1,0,25.834,0C86.834,12.69,76.9,6.415,76.9.994ZM73.917,29.94A8.942,8.942,0,1,1,82.859,21,8.952,8.952,0,0,1,73.917,29.94Z" transform="translate(-61)" fill="#fff"/>
  </g>
</svg>
