<svg xmlns="http://www.w3.org/2000/svg" width="104.965" height="37.089" viewBox="0 0 104.965 37.089">
  <g id="Group_13626" data-name="Group 13626" transform="translate(0.004 0.004)">
    <g id="Group_13630" data-name="Group 13630" transform="translate(0.269 25.816)">
      <g id="Group_627" data-name="Group 627" transform="translate(27.575)">
        <path id="Icon_ionic-ios-star" data-name="Icon ionic-ios-star" d="M13.925,7.276H9.941L8.73,3.662a.439.439,0,0,0-.824,0L6.7,7.276H2.683a.435.435,0,0,0-.433.433.318.318,0,0,0,.008.073.416.416,0,0,0,.181.306L5.715,10.4,4.458,14.051a.435.435,0,0,0,.149.488.419.419,0,0,0,.244.106.531.531,0,0,0,.271-.1l3.2-2.278,3.2,2.278a.508.508,0,0,0,.271.1.389.389,0,0,0,.241-.106.429.429,0,0,0,.149-.488L10.918,10.4l3.248-2.33L14.245,8a.414.414,0,0,0-.32-.723Z" transform="translate(-2.25 -3.375)" fill="#ffba00"/>
        <path id="Icon_ionic-ios-star-2" data-name="Icon ionic-ios-star" d="M13.925,7.276H9.941L8.73,3.662a.439.439,0,0,0-.824,0L6.7,7.276H2.683a.435.435,0,0,0-.433.433.318.318,0,0,0,.008.073.416.416,0,0,0,.181.306L5.715,10.4,4.458,14.051a.435.435,0,0,0,.149.488.419.419,0,0,0,.244.106.531.531,0,0,0,.271-.1l3.2-2.278,3.2,2.278a.508.508,0,0,0,.271.1.389.389,0,0,0,.241-.106.429.429,0,0,0,.149-.488L10.918,10.4l3.248-2.33L14.245,8a.414.414,0,0,0-.32-.723Z" transform="translate(14.112 -3.375)" fill="#ffba00"/>
        <path id="Icon_ionic-ios-star-3" data-name="Icon ionic-ios-star" d="M13.925,7.276H9.941L8.73,3.662a.439.439,0,0,0-.824,0L6.7,7.276H2.683a.435.435,0,0,0-.433.433.318.318,0,0,0,.008.073.416.416,0,0,0,.181.306L5.715,10.4,4.458,14.051a.435.435,0,0,0,.149.488.419.419,0,0,0,.244.106.531.531,0,0,0,.271-.1l3.2-2.278,3.2,2.278a.508.508,0,0,0,.271.1.389.389,0,0,0,.241-.106.429.429,0,0,0,.149-.488L10.918,10.4l3.248-2.33L14.245,8a.414.414,0,0,0-.32-.723Z" transform="translate(30.474 -3.375)" fill="#ffba00"/>
        <path id="Icon_ionic-ios-star-4" data-name="Icon ionic-ios-star" d="M13.925,7.276H9.941L8.73,3.662a.439.439,0,0,0-.824,0L6.7,7.276H2.683a.435.435,0,0,0-.433.433.318.318,0,0,0,.008.073.416.416,0,0,0,.181.306L5.715,10.4,4.458,14.051a.435.435,0,0,0,.149.488.419.419,0,0,0,.244.106.531.531,0,0,0,.271-.1l3.2-2.278,3.2,2.278a.508.508,0,0,0,.271.1.389.389,0,0,0,.241-.106.429.429,0,0,0,.149-.488L10.918,10.4l3.248-2.33L14.245,8a.414.414,0,0,0-.32-.723Z" transform="translate(46.368 -3.375)" fill="#ffba00"/>
        <path id="Icon_ionic-ios-star-5" data-name="Icon ionic-ios-star" d="M13.925,7.276H9.941L8.73,3.662a.439.439,0,0,0-.824,0L6.7,7.276H2.683a.435.435,0,0,0-.433.433.318.318,0,0,0,.008.073.416.416,0,0,0,.181.306L5.715,10.4,4.458,14.051a.435.435,0,0,0,.149.488.419.419,0,0,0,.244.106.531.531,0,0,0,.271-.1l3.2-2.278,3.2,2.278a.508.508,0,0,0,.271.1.389.389,0,0,0,.241-.106.429.429,0,0,0,.149-.488L10.918,10.4l3.248-2.33L14.245,8a.414.414,0,0,0-.32-.723Z" transform="translate(62.73 -3.375)" fill="#ffba00"/>
      </g>
      <path id="Path_10179" data-name="Path 10179" d="M3.013-4.972l1.73-2.893v2.893ZM7.921-3.3V-4.972H6.743V-10.5h-2.1L.3-3.3H4.743v2.085h2V-3.3Zm1.4,1.035a1.187,1.187,0,0,0,1.22,1.191,1.2,1.2,0,0,0,1.234-1.191A1.2,1.2,0,0,0,10.545-3.44,1.184,1.184,0,0,0,9.325-2.263Zm6.794-2.3c1.39,0,1.759-.723,1.872-1.05.043,1.248-.34,2.681-1.7,2.681a1.124,1.124,0,0,1-1.078-.738l-1.858.794a2.98,2.98,0,0,0,2.865,1.8c3.475.113,3.986-3.517,3.759-6.383a3.321,3.321,0,0,0-3.333-3.234c-2.028,0-3.376,1.22-3.376,2.993A2.911,2.911,0,0,0,16.119-4.561Zm-.794-3.021a1.229,1.229,0,0,1,1.22-1.22,1.229,1.229,0,0,1,1.22,1.22,1.229,1.229,0,0,1-1.22,1.22A1.229,1.229,0,0,1,15.324-7.582Z" transform="translate(-0.304 11.851)"/>
    </g>
    <g id="Group_13629" data-name="Group 13629" transform="translate(0 0)">
      <g id="Group_10762" data-name="Group 10762" transform="translate(0 12.788)">
        <path id="Path_10178" data-name="Path 10178" d="M1.771,0H54.865a1.771,1.771,0,0,1,1.771,1.771V6.7a1.771,1.771,0,0,1-1.771,1.771H1.771A1.771,1.771,0,0,1,0,6.7V1.771A1.771,1.771,0,0,1,1.771,0Z" transform="translate(0 0)" fill="#1b4541"/>
        <path id="Path_5262" data-name="Path 5262" d="M.2-4.562H.948v2.186h.4V-4.562H2.1v-.367H.2ZM2.853-3.306a.447.447,0,0,1,.482-.463.387.387,0,0,1,.385.43v.963H4.1v-.986c0-.493-.256-.782-.7-.782a.622.622,0,0,0-.548.3v-1.2H2.471v2.671h.382Zm3.405.059a.845.845,0,0,0-.867-.9.862.862,0,0,0-.889.9.871.871,0,0,0,.889.908.857.857,0,0,0,.8-.445L5.88-2.92a.534.534,0,0,1-.471.248.5.5,0,0,1-.53-.434H6.254C6.258-3.146,6.258-3.206,6.258-3.246ZM4.879-3.383a.488.488,0,0,1,.511-.426.47.47,0,0,1,.493.426Zm4.476-.871a.642.642,0,0,0-.708-.674H7.669v2.553H8.725a.726.726,0,0,0,.767-.748.641.641,0,0,0-.467-.611A.527.527,0,0,0,9.355-4.254ZM8.066-3.88v-.689h.541a.309.309,0,0,1,.341.33.322.322,0,0,1-.315.359Zm.63.337a.4.4,0,0,1,.385.415.377.377,0,0,1-.374.393H8.066v-.808Zm2.883.3a.845.845,0,0,0-.867-.9.862.862,0,0,0-.889.9.871.871,0,0,0,.889.908.857.857,0,0,0,.8-.445L11.2-2.92a.534.534,0,0,1-.471.248.5.5,0,0,1-.53-.434h1.375C11.578-3.146,11.578-3.206,11.578-3.246ZM10.2-3.383a.488.488,0,0,1,.511-.426.47.47,0,0,1,.493.426Zm2.419.315c.13.03.241.089.241.2s-.133.207-.308.207c-.2,0-.322-.1-.341-.248H11.86a.615.615,0,0,0,.663.567c.4,0,.689-.189.689-.522a.51.51,0,0,0-.452-.5l-.267-.067c-.093-.026-.185-.063-.211-.133a.177.177,0,0,1,.015-.156.311.311,0,0,1,.245-.1.228.228,0,0,1,.252.185h.363a.557.557,0,0,0-.63-.511.585.585,0,0,0-.619.456c-.026.282.107.463.478.563Zm1.527-1.693h-.382v.656h-.311v.315h.311v1.415h.382V-3.791h.367v-.315h-.367Zm1.66,2.386h1.575v-.359H16.2V-3.45h1v-.359h-1v-.756h1.145v-.363H15.806Zm2.645-.693c.13.03.241.089.241.2s-.133.207-.308.207c-.2,0-.322-.1-.341-.248h-.352a.615.615,0,0,0,.663.567c.4,0,.689-.189.689-.522a.509.509,0,0,0-.452-.5l-.267-.067c-.093-.026-.185-.063-.211-.133a.177.177,0,0,1,.015-.156.311.311,0,0,1,.245-.1.228.228,0,0,1,.252.185h.363a.557.557,0,0,0-.63-.511.585.585,0,0,0-.619.456c-.026.282.107.463.478.563Zm1.645,0c.13.03.241.089.241.2s-.133.207-.308.207c-.2,0-.322-.1-.341-.248h-.352A.615.615,0,0,0,20-2.339c.4,0,.689-.189.689-.522a.509.509,0,0,0-.452-.5l-.267-.067c-.093-.026-.185-.063-.211-.133a.177.177,0,0,1,.015-.156.311.311,0,0,1,.245-.1.228.228,0,0,1,.252.185h.363A.557.557,0,0,0,20-4.143a.585.585,0,0,0-.619.456c-.026.282.107.463.478.563Zm2.356.693h.378v-1.73h-.378v.245a.686.686,0,0,0-.582-.282.869.869,0,0,0-.878.9.872.872,0,0,0,.878.9.69.69,0,0,0,.582-.285Zm-1.067-.871a.515.515,0,0,1,.53-.526.522.522,0,0,1,.534.526.516.516,0,0,1-.534.537A.524.524,0,0,1,21.386-3.246Zm3.542-.86H24.52L24.035-2.92l-.482-1.186h-.408l.685,1.649-.374.926h.4Zm3.149,1.078L27.64-4.58h-.308L26.9-3.028l-.608-1.9h-.422l.863,2.553h.33l.426-1.53.43,1.53h.33l.863-2.553h-.422ZM29.659-3c0-.459.137-.785.463-.785a.561.561,0,0,1,.256.059l.063-.352a.611.611,0,0,0-.308-.067c-.219,0-.385.122-.474.434v-.4h-.382v1.73h.382Zm1.475-1.108h-.378v1.73h.378Zm-.445-.7a.249.249,0,0,0,.256.241.241.241,0,0,0,.252-.241.241.241,0,0,0-.252-.241A.249.249,0,0,0,30.689-4.806Zm1.5.044H31.8v.656h-.311v.315H31.8v1.415h.382V-3.791h.367v-.315h-.367Zm1.1.656h-.378v1.73h.378Zm-.445-.7a.249.249,0,0,0,.256.241.241.241,0,0,0,.252-.241.241.241,0,0,0-.252-.241A.249.249,0,0,0,32.846-4.806Zm1.36,1.5a.417.417,0,0,1,.445-.463c.222,0,.363.152.363.43v.963H35.4V-3.383c0-.493-.241-.76-.66-.76a.612.612,0,0,0-.53.3v-.259h-.382v1.73h.382Zm3.049.067a.526.526,0,0,1-.534.534.512.512,0,0,1-.526-.534.518.518,0,0,1,.526-.534A.509.509,0,0,1,37.255-3.239ZM36.2-2.157c-.07.03-.245.13-.315.159a.886.886,0,0,0,.8.485c.582,0,.952-.322.952-1.119V-4.106h-.374v.256a.671.671,0,0,0-.585-.293.872.872,0,0,0-.874.908.863.863,0,0,0,.874.9.652.652,0,0,0,.585-.3v.089c0,.485-.226.682-.578.682A.557.557,0,0,1,36.2-2.157Zm2.831-.96a.835.835,0,0,0,.9.778.8.8,0,0,0,.871-.685c.041-.371-.17-.656-.689-.793L39.786-3.9c-.3-.078-.341-.233-.341-.333a.4.4,0,0,1,.441-.352.392.392,0,0,1,.445.385h.393a.756.756,0,0,0-.83-.756.779.779,0,0,0-.841.73c0,.226.085.537.634.685l.322.082c.237.056.419.178.4.415a.429.429,0,0,1-.482.348.476.476,0,0,1-.508-.419Zm3.853-.13a.845.845,0,0,0-.867-.9.862.862,0,0,0-.889.9.871.871,0,0,0,.889.908.857.857,0,0,0,.8-.445l-.311-.137a.534.534,0,0,1-.471.248.5.5,0,0,1-.53-.434h1.375C42.883-3.146,42.883-3.206,42.883-3.246ZM41.5-3.383a.488.488,0,0,1,.511-.426.47.47,0,0,1,.493.426ZM43.669-3c0-.459.137-.785.463-.785a.561.561,0,0,1,.256.059l.063-.352a.611.611,0,0,0-.308-.067c-.219,0-.385.122-.474.434v-.4h-.382v1.73h.382Zm1.6.622h.352l.722-1.73h-.408l-.489,1.245-.5-1.245h-.4Zm1.767-1.73h-.378v1.73h.378Zm-.445-.7a.249.249,0,0,0,.256.241.241.241,0,0,0,.252-.241.241.241,0,0,0-.252-.241A.249.249,0,0,0,46.592-4.806Zm.867,1.56a.894.894,0,0,0,.923.908.885.885,0,0,0,.689-.3l-.3-.233a.515.515,0,0,1-.389.17.535.535,0,0,1-.545-.541.523.523,0,0,1,.545-.526.512.512,0,0,1,.389.167l.3-.237a.88.88,0,0,0-.685-.3A.885.885,0,0,0,47.459-3.246Zm3.624,0a.845.845,0,0,0-.867-.9.862.862,0,0,0-.889.9.871.871,0,0,0,.889.908.857.857,0,0,0,.8-.445L50.7-2.92a.534.534,0,0,1-.471.248.5.5,0,0,1-.53-.434h1.375C51.083-3.146,51.083-3.206,51.083-3.246ZM49.7-3.383a.488.488,0,0,1,.511-.426.47.47,0,0,1,.493.426Z" transform="translate(2.554 7.757)" fill="#fff"/>
      </g>
      <path id="Path_5263" data-name="Path 5263" d="M8.2-19.05a2.227,2.227,0,0,1,1.644.565,1.886,1.886,0,0,1,.565,1.387,2.711,2.711,0,0,1-.779,1.875,2.211,2.211,0,0,1-1.6.848.865.865,0,0,1-.505-.137.373.373,0,0,1-.2-.291.209.209,0,0,1,.12-.188,4.214,4.214,0,0,0,1.4-2.346q0-.462-.514-.462a3.583,3.583,0,0,0-2.124,1.079A10.5,10.5,0,0,0,4.03-14.049,5.818,5.818,0,0,0,3.1-11.172,1.892,1.892,0,0,0,3.49-9.905a1.362,1.362,0,0,0,1.1.462,2.913,2.913,0,0,0,1.755-.685,6.521,6.521,0,0,0,1.516-1.627.121.121,0,0,1,.12-.086q.291,0,.291.565a3.106,3.106,0,0,1-1.31,2.286A4.423,4.423,0,0,1,4-7.867,2.952,2.952,0,0,1,1.821-8.7,3.02,3.02,0,0,1,.99-10.933a7.174,7.174,0,0,1,1.1-3.554,11.054,11.054,0,0,1,2.817-3.237A5.438,5.438,0,0,1,8.2-19.05ZM10.272-8.244q0,.171-.188.171a1.218,1.218,0,0,1-.779-.42,1.305,1.305,0,0,1-.437-.968,8.922,8.922,0,0,1,1.156-3.322,31.227,31.227,0,0,1,2.509-4.2q1.353-1.892,1.867-1.892a1.081,1.081,0,0,1,.719.325.875.875,0,0,1,.36.582.18.18,0,0,1-.069.154,21.966,21.966,0,0,0-3.125,4.547A18.417,18.417,0,0,0,10.272-8.244Zm9.453-7.415a1.132,1.132,0,0,1,.728.343q.385.343.385.548a.213.213,0,0,1-.069.154,15.85,15.85,0,0,0-1.875,3.2A8.488,8.488,0,0,0,17.91-8.3q0,.171-.188.171a1.218,1.218,0,0,1-.779-.42,1.305,1.305,0,0,1-.437-.968,5.077,5.077,0,0,1,.428-1.644q-2.038,2.98-3.511,2.98-1.267,0-1.267-1.37a5.7,5.7,0,0,1,.779-2.586,8.669,8.669,0,0,1,2.1-2.586,4.068,4.068,0,0,1,2.6-1.113,1.017,1.017,0,0,1,1.147,1.062Q19.486-15.659,19.725-15.659ZM14.434-9.785q.685,0,3.494-3.768l.325-.48a.813.813,0,0,0,.017-.188.648.648,0,0,0-.154-.437.434.434,0,0,0-.325-.18q-.582,0-1.464.968a10.52,10.52,0,0,0-1.5,2.115,4.2,4.2,0,0,0-.617,1.678Q14.211-9.785,14.434-9.785Zm10.772-5.086a2.321,2.321,0,0,0-1.327.557,1.506,1.506,0,0,0-.745,1.139,1.011,1.011,0,0,0,.334.7,4.279,4.279,0,0,0,.728.6,3.03,3.03,0,0,1,.728.685,1.474,1.474,0,0,1,.334.925,1.87,1.87,0,0,1-.9,1.55,3.572,3.572,0,0,1-2.132.642,3.119,3.119,0,0,1-1.935-.582,1.717,1.717,0,0,1-.771-1.4,1.572,1.572,0,0,1,.394-1.079,1.059,1.059,0,0,1,.719-.445q.188,0,.188.171a2.057,2.057,0,0,0,.668,1.473,1.987,1.987,0,0,0,1.4.634.923.923,0,0,0,.565-.154.458.458,0,0,0,.206-.377.927.927,0,0,0-.368-.617,6.059,6.059,0,0,0-.813-.634,3.206,3.206,0,0,1-.813-.788A1.705,1.705,0,0,1,21.3-12.9a2.6,2.6,0,0,1,1.156-2.029,4.071,4.071,0,0,1,2.595-.916,1.983,1.983,0,0,1,1.361.42,1.249,1.249,0,0,1,.471.95,1.738,1.738,0,0,1-.557,1.2,1.624,1.624,0,0,1-1.173.582.944.944,0,0,1-.428-.094q-.188-.094-.188-.214,0-.034.086-.12a4.4,4.4,0,0,0,.505-.685,1.66,1.66,0,0,0,.317-.839Q25.445-14.871,25.205-14.871Zm6.388,0a2.321,2.321,0,0,0-1.327.557,1.506,1.506,0,0,0-.745,1.139,1.011,1.011,0,0,0,.334.7,4.279,4.279,0,0,0,.728.6,3.03,3.03,0,0,1,.728.685,1.474,1.474,0,0,1,.334.925,1.87,1.87,0,0,1-.9,1.55,3.572,3.572,0,0,1-2.132.642,3.119,3.119,0,0,1-1.935-.582,1.717,1.717,0,0,1-.771-1.4,1.572,1.572,0,0,1,.394-1.079,1.059,1.059,0,0,1,.719-.445q.188,0,.188.171a2.057,2.057,0,0,0,.668,1.473,1.987,1.987,0,0,0,1.4.634.923.923,0,0,0,.565-.154.458.458,0,0,0,.206-.377.927.927,0,0,0-.368-.617,6.058,6.058,0,0,0-.813-.634,3.206,3.206,0,0,1-.813-.788,1.705,1.705,0,0,1-.368-1.028,2.6,2.6,0,0,1,1.156-2.029,4.071,4.071,0,0,1,2.595-.916,1.983,1.983,0,0,1,1.361.42,1.249,1.249,0,0,1,.471.95,1.738,1.738,0,0,1-.557,1.2,1.624,1.624,0,0,1-1.173.582.944.944,0,0,1-.428-.094q-.188-.094-.188-.214,0-.034.086-.12a4.4,4.4,0,0,0,.505-.685,1.66,1.66,0,0,0,.317-.839Q31.833-14.871,31.593-14.871Zm10.275-.942a1.486,1.486,0,0,1,1.242.557,2.248,2.248,0,0,1,.437,1.43,5.107,5.107,0,0,1-.754,2.457,7.751,7.751,0,0,1-2,2.32,3.969,3.969,0,0,1-2.44.976,2.019,2.019,0,0,1-1.507-.557,2.066,2.066,0,0,1-.548-1.516,4.72,4.72,0,0,1,.779-2.432,7.56,7.56,0,0,1,1.85-2.106,3.3,3.3,0,0,1,1.927-.822h.017A1.563,1.563,0,0,1,41.869-15.813ZM38.8-9.306q.462,0,1.173-.839a8.938,8.938,0,0,0,1.25-1.987,4.753,4.753,0,0,0,.539-1.935q0-.668-.377-.736a5.52,5.52,0,0,0-2.046,2.115,5.732,5.732,0,0,0-1.019,2.68Q38.324-9.306,38.8-9.306Zm10.4-9.573a1.051,1.051,0,0,1,.711.325.879.879,0,0,1,.351.582.18.18,0,0,1-.069.154A9.664,9.664,0,0,0,47.88-15.06q.223-.017.617-.017a2.645,2.645,0,0,1,.754.069q.36.137.36.873a.679.679,0,0,1-.06.317.127.127,0,0,1-.163.077,5.455,5.455,0,0,0-.873-.051q-.137,0-.471.009t-.505.009a5.653,5.653,0,0,1,.206,1.558,10.263,10.263,0,0,1-.617,3.391,9.24,9.24,0,0,1-1.653,2.98A2.867,2.867,0,0,1,43.358-4.63a1.092,1.092,0,0,1-.925-.4,1.715,1.715,0,0,1-.308-1.07,9.882,9.882,0,0,1,.891-3.391,37.419,37.419,0,0,1,2.192-4.47.749.749,0,0,1-.171-.462.378.378,0,0,1,.36-.394l.343-.051a24.792,24.792,0,0,1,2.029-2.894Q48.7-18.879,49.2-18.879ZM44.112-6.1q.531,0,1.182-1.259a14.489,14.489,0,0,0,1.1-2.937,11.46,11.46,0,0,0,.445-2.86V-13.3a41.115,41.115,0,0,0-2.046,4.161,9.238,9.238,0,0,0-.865,2.774Q43.924-6.1,44.112-6.1Z" transform="translate(-0.744 19.296)" fill="#1b4541" stroke="#f5fffe" stroke-width="0.5"/>
      <path id="Path_5264" data-name="Path 5264" d="M0,0H3.921L2.757,1.265a3.006,3.006,0,0,1-1.307.528A3.456,3.456,0,0,1,0,1.533Z" transform="translate(41.414 12.788)" fill="#fff"/>
      <path id="Union_10" data-name="Union 10" d="M21.852,11.551a1.643,1.643,0,0,1-.29-1.014c0-.337.163-.965,1.5-2.556a.84.84,0,0,1-.644-.92,1.808,1.808,0,0,1,.059-.447,1.864,1.864,0,0,1,.13-.364.381.381,0,0,1,.331-.255h1.934A47.49,47.49,0,0,1,29.386,1.9C31.542.2,32.3,0,32.682,0A2.123,2.123,0,0,1,34.05.6a1.629,1.629,0,0,1,.711,1.136.52.52,0,0,1-.134.372,24.384,24.384,0,0,0-2.849,4.453,17.764,17.764,0,0,0-1.9,4.687.406.406,0,0,1-.45.393,1.4,1.4,0,0,1-.943-.49,1.56,1.56,0,0,1-.5-1.143A6.267,6.267,0,0,1,28.6,7.768c-.421.018-1.253.058-2.828.133a20.866,20.866,0,0,0-2.817,3.72.391.391,0,0,1-.413.343A.878.878,0,0,1,21.852,11.551Zm5.757-5.54h1.807a36.47,36.47,0,0,1,2.012-3.429A48.8,48.8,0,0,0,27.609,6.011ZM14.975,11.222a1.783,1.783,0,0,1-.592-.653,5.412,5.412,0,0,0-.232.693l0,.013a.472.472,0,0,1-.476.347,1.294,1.294,0,0,1-.926-.5,1.716,1.716,0,0,1-.45-1.2c0-.656.54-1.89,1.652-3.772a27.969,27.969,0,0,1,2.371-3.49c-.723.25-1.517.562-2.374.928a34.148,34.148,0,0,0-1.928,3.521,16.526,16.526,0,0,0-1.663,4.123.4.4,0,0,1-.434.408,1.376,1.376,0,0,1-.936-.491,1.577,1.577,0,0,1-.492-1.142A9.129,9.129,0,0,1,9.519,6.864c.33-.717.675-1.41,1.034-2.07a35.535,35.535,0,0,0-4.61,6.223.438.438,0,0,1-.473.314,1.405,1.405,0,0,1-.91-.422,1.3,1.3,0,0,1-.484-.988,12.782,12.782,0,0,1,.687-3.086c.277-.9.544-1.722.8-2.45a27.924,27.924,0,0,0-4.317,6.875.372.372,0,0,1-.381.362.769.769,0,0,1-.617-.428A1.819,1.819,0,0,1,0,10.2,8.671,8.671,0,0,1,1.421,6.937,34.12,34.12,0,0,1,4.587,2.426c1.248-1.5,2.137-2.2,2.8-2.2a1.766,1.766,0,0,1,1.085.42c.409.321.553.638.427.944-.685,1.755-1.211,3.26-1.575,4.5,1.473-1.8,2.7-3.216,3.668-4.233C12.173.6,13.054,0,13.69,0a1.27,1.27,0,0,1,1.022.634,2.957,2.957,0,0,1,.259.437A11.232,11.232,0,0,1,16.9.4,12.02,12.02,0,0,1,19.821,0a4.036,4.036,0,0,1,2.53.753,2.4,2.4,0,0,1,1,1.976,2.749,2.749,0,0,1-1.091,2.193,6.557,6.557,0,0,1-2.072,1.112,2.225,2.225,0,0,1,1.023,1.936,3.321,3.321,0,0,1-1.381,2.526A4.786,4.786,0,0,1,16.67,11.64,3.035,3.035,0,0,1,14.975,11.222Zm1.236-4.233c-.422.743-.76,1.357-1.007,1.827,0,.338.118.721.97.721a3.231,3.231,0,0,0,1.982-.728,1.9,1.9,0,0,0,.923-1.389c0-.152,0-.611-1.278-.611A8.748,8.748,0,0,0,16.211,6.989Zm2.96-5.042a.707.707,0,0,1,.091.336.477.477,0,0,1-.132.337,24.436,24.436,0,0,0-1.785,2.518,12.76,12.76,0,0,0,1.465-.447,6.363,6.363,0,0,0,1.747-.982,1.553,1.553,0,0,0,.713-1.151c0-.182,0-.663-1.261-.663A6.665,6.665,0,0,0,19.171,1.947Z" transform="translate(52.113 0)" fill="#ff7a07"/>
      <path id="Path_5224_-_Outline" data-name="Path 5224 - Outline" d="M7.946-19.55a2.47,2.47,0,0,1,1.818.637,2.132,2.132,0,0,1,.637,1.561,2.961,2.961,0,0,1-.844,2.042,2.452,2.452,0,0,1-1.782.927,1.108,1.108,0,0,1-.646-.181.6.6,0,0,1-.3-.493.446.446,0,0,1,.208-.379c1.087-1.172,1.316-1.819,1.316-2.155,0-.131-.019-.217-.268-.217A3.389,3.389,0,0,0,6.12-16.789a10.3,10.3,0,0,0-2.132,2.61,5.61,5.61,0,0,0-.9,2.753,1.666,1.666,0,0,0,.335,1.108,1.119,1.119,0,0,0,.909.376,2.69,2.69,0,0,0,1.606-.635,6.306,6.306,0,0,0,1.448-1.55.364.364,0,0,1,.336-.213c.2,0,.537.105.537.811a3.347,3.347,0,0,1-1.4,2.473A4.681,4.681,0,0,1,3.75-7.876a3.2,3.2,0,0,1-2.357-.9,3.269,3.269,0,0,1-.9-2.409,7.446,7.446,0,0,1,1.138-3.677,11.349,11.349,0,0,1,2.879-3.308A5.7,5.7,0,0,1,7.946-19.55Zm-.171,4.675a1.991,1.991,0,0,0,1.42-.768,2.452,2.452,0,0,0,.714-1.709,1.635,1.635,0,0,0-.493-1.213,2,2,0,0,0-1.47-.493,5.228,5.228,0,0,0-3.138,1.276,10.86,10.86,0,0,0-2.755,3.165,6.969,6.969,0,0,0-1.072,3.43A2.761,2.761,0,0,0,1.74-9.126a2.693,2.693,0,0,0,2.01.759A4.2,4.2,0,0,0,6.544-9.43a2.893,2.893,0,0,0,1.224-2.1,1.052,1.052,0,0,0-.023-.249,6.8,6.8,0,0,1-1.508,1.592,3.163,3.163,0,0,1-1.9.735A1.6,1.6,0,0,1,3.049-10,2.136,2.136,0,0,1,2.6-11.427a6.081,6.081,0,0,1,.967-3A10.791,10.791,0,0,1,5.8-17.161,3.763,3.763,0,0,1,8.083-18.3a.675.675,0,0,1,.76.708,4.353,4.353,0,0,1-1.47,2.514l-.025.027-.018.01a.364.364,0,0,0,.081.072A.632.632,0,0,0,7.774-14.875Zm6.371-4.5a1.321,1.321,0,0,1,.884.389,1.082,1.082,0,0,1,.441.765.428.428,0,0,1-.147.335,21.886,21.886,0,0,0-3.077,4.484A18.334,18.334,0,0,0,10.263-8.47a.4.4,0,0,1-.433.389,1.427,1.427,0,0,1-.95-.488,1.548,1.548,0,0,1-.512-1.145A9.009,9.009,0,0,1,9.55-13.146a31.621,31.621,0,0,1,2.529-4.237C13.335-19.142,13.828-19.379,14.145-19.379Zm.832,1.138c-.006-.055-.05-.179-.278-.385a.853.853,0,0,0-.554-.262c-.016,0-.165.011-.549.4a12.065,12.065,0,0,0-1.118,1.39,31.128,31.128,0,0,0-2.489,4.171,8.8,8.8,0,0,0-1.13,3.212,1.06,1.06,0,0,0,.361.79,1.106,1.106,0,0,0,.562.348,18.833,18.833,0,0,1,2.032-5.066,22.307,22.307,0,0,1,3.163-4.6Zm33.967-1.138a1.291,1.291,0,0,1,.878.391,1.088,1.088,0,0,1,.43.763.426.426,0,0,1-.167.351l-.014.01a8.442,8.442,0,0,0-1.98,2.289h.151a2.52,2.52,0,0,1,.838.083h0c.344.131.518.5.518,1.1a.9.9,0,0,1-.089.433.377.377,0,0,1-.333.214.385.385,0,0,1-.1-.014,5.411,5.411,0,0,0-.817-.045c-.089,0-.245,0-.465.008l-.2,0a6.128,6.128,0,0,1,.137,1.317A10.555,10.555,0,0,1,47.1-9a9.526,9.526,0,0,1-1.7,3.058,3.108,3.108,0,0,1-2.3,1.3,1.329,1.329,0,0,1-1.12-.5,1.96,1.96,0,0,1-.359-1.22,10,10,0,0,1,.909-3.483,37.683,37.683,0,0,1,2.131-4.368.946.946,0,0,1-.129-.472.621.621,0,0,1,.559-.635l.01,0,.23-.034a24.8,24.8,0,0,1,1.99-2.826C48.013-19,48.527-19.379,48.944-19.379Zm.814,1.131c-.009-.058-.057-.182-.271-.38a.823.823,0,0,0-.544-.26c-.115,0-.466.1-1.242,1.025A24.67,24.67,0,0,0,45.694-15l-.06.1-.45.068c-.155.031-.155.089-.155.152a.507.507,0,0,0,.12.313l.1.13-.081.142a37.347,37.347,0,0,0-2.178,4.44,9.715,9.715,0,0,0-.872,3.3,1.487,1.487,0,0,0,.258.921.853.853,0,0,0,.73.306,2.654,2.654,0,0,0,1.928-1.13,9.039,9.039,0,0,0,1.608-2.9,10.066,10.066,0,0,0,.6-3.31,5.435,5.435,0,0,0-.2-1.491l-.09-.313h.326c.112,0,.279,0,.5-.008s.383-.009.477-.009a6.3,6.3,0,0,1,.839.043.723.723,0,0,0,.011-.14c0-.211-.026-.575-.2-.643a2.382,2.382,0,0,0-.668-.053c-.255,0-.456.006-.6.016l-.493.038.267-.416A10.053,10.053,0,0,1,49.758-18.247ZM24.8-16.348a2.225,2.225,0,0,1,1.525.482,1.49,1.49,0,0,1,.553,1.134,1.98,1.98,0,0,1-.625,1.369A1.865,1.865,0,0,1,24.9-12.7a1.192,1.192,0,0,1-.538-.12.486.486,0,0,1-.324-.434.428.428,0,0,1,.158-.294,4.044,4.044,0,0,0,.472-.643,1.476,1.476,0,0,0,.278-.684,2.116,2.116,0,0,0-1.174.508,1.3,1.3,0,0,0-.646.942.773.773,0,0,0,.264.531,4.053,4.053,0,0,0,.686.565,3.288,3.288,0,0,1,.787.74,1.721,1.721,0,0,1,.386,1.076,2.11,2.11,0,0,1-1,1.75,3.828,3.828,0,0,1-2.275.688,3.372,3.372,0,0,1-2.083-.632,1.958,1.958,0,0,1-.868-1.6,1.817,1.817,0,0,1,.456-1.242,1.265,1.265,0,0,1,.9-.528.4.4,0,0,1,.434.414,1.805,1.805,0,0,0,.594,1.3,1.737,1.737,0,0,0,1.233.564.7.7,0,0,0,.418-.1.211.211,0,0,0,.107-.18c0-.062-.038-.2-.29-.437a5.841,5.841,0,0,0-.781-.608,3.466,3.466,0,0,1-.876-.847,1.953,1.953,0,0,1-.417-1.174,2.839,2.839,0,0,1,1.249-2.222A4.329,4.329,0,0,1,24.8-16.348Zm.1,3.151a1.38,1.38,0,0,0,1-.506,1.492,1.492,0,0,0,.488-1.029A1.007,1.007,0,0,0,26-15.5a1.76,1.76,0,0,0-1.2-.357,3.849,3.849,0,0,0-2.442.863,2.347,2.347,0,0,0-1.063,1.837,1.454,1.454,0,0,0,.32.881,2.978,2.978,0,0,0,.751.728,6.334,6.334,0,0,1,.846.659,1.136,1.136,0,0,1,.447.8.7.7,0,0,1-.3.573,1.163,1.163,0,0,1-.713.2,2.232,2.232,0,0,1-1.576-.7,2.309,2.309,0,0,1-.739-1.568,1.048,1.048,0,0,0-.481.356,1.322,1.322,0,0,0-.332.916,1.473,1.473,0,0,0,.673,1.208,2.894,2.894,0,0,0,1.787.533,3.347,3.347,0,0,0,1.989-.6,1.626,1.626,0,0,0,.8-1.35,1.224,1.224,0,0,0-.282-.774,2.8,2.8,0,0,0-.668-.63,4.545,4.545,0,0,1-.77-.634,1.25,1.25,0,0,1-.4-.874,1.736,1.736,0,0,1,.844-1.336,2.526,2.526,0,0,1,1.474-.605.447.447,0,0,1,.486.468,1.87,1.87,0,0,1-.355.971,5.207,5.207,0,0,1-.487.673A.7.7,0,0,0,24.9-13.2Zm6.285-3.151a2.225,2.225,0,0,1,1.525.482,1.49,1.49,0,0,1,.553,1.134,1.98,1.98,0,0,1-.625,1.369,1.865,1.865,0,0,1-1.351.658,1.192,1.192,0,0,1-.538-.12.486.486,0,0,1-.324-.434.428.428,0,0,1,.158-.294,4.044,4.044,0,0,0,.472-.643,1.476,1.476,0,0,0,.278-.684,2.116,2.116,0,0,0-1.174.508,1.3,1.3,0,0,0-.646.942.773.773,0,0,0,.264.531,4.053,4.053,0,0,0,.686.565,3.288,3.288,0,0,1,.787.74,1.721,1.721,0,0,1,.386,1.076,2.11,2.11,0,0,1-1,1.75,3.828,3.828,0,0,1-2.275.688,3.372,3.372,0,0,1-2.083-.632,1.958,1.958,0,0,1-.868-1.6,1.817,1.817,0,0,1,.456-1.242,1.265,1.265,0,0,1,.9-.528.4.4,0,0,1,.434.414,1.805,1.805,0,0,0,.594,1.3,1.737,1.737,0,0,0,1.233.564.7.7,0,0,0,.418-.1.211.211,0,0,0,.107-.18c0-.062-.038-.2-.29-.437a5.841,5.841,0,0,0-.781-.608,3.466,3.466,0,0,1-.876-.847,1.953,1.953,0,0,1-.417-1.174,2.839,2.839,0,0,1,1.249-2.222A4.329,4.329,0,0,1,31.185-16.348Zm.1,3.151a1.38,1.38,0,0,0,1-.506,1.492,1.492,0,0,0,.488-1.029,1.007,1.007,0,0,0-.389-.767,1.76,1.76,0,0,0-1.2-.357,3.849,3.849,0,0,0-2.442.863,2.347,2.347,0,0,0-1.063,1.837,1.454,1.454,0,0,0,.32.881,2.978,2.978,0,0,0,.751.728,6.334,6.334,0,0,1,.846.659,1.136,1.136,0,0,1,.447.8.7.7,0,0,1-.3.573,1.163,1.163,0,0,1-.713.2,2.232,2.232,0,0,1-1.576-.7,2.309,2.309,0,0,1-.739-1.568,1.048,1.048,0,0,0-.481.356,1.322,1.322,0,0,0-.332.916,1.473,1.473,0,0,0,.673,1.208,2.894,2.894,0,0,0,1.787.533,3.347,3.347,0,0,0,1.989-.6,1.626,1.626,0,0,0,.8-1.35,1.224,1.224,0,0,0-.282-.774,2.8,2.8,0,0,0-.668-.63,4.546,4.546,0,0,1-.77-.634,1.25,1.25,0,0,1-.4-.874,1.736,1.736,0,0,1,.844-1.336,2.526,2.526,0,0,1,1.474-.605.447.447,0,0,1,.486.468,1.87,1.87,0,0,1-.355.971,5.207,5.207,0,0,1-.487.673A.7.7,0,0,0,31.288-13.2ZM17.382-16.33a1.251,1.251,0,0,1,1.28.761c.419-.479.634-.589.809-.589a1.369,1.369,0,0,1,.891.4c.319.284.468.516.468.732a.455.455,0,0,1-.13.317,15.742,15.742,0,0,0-1.837,3.143A8.338,8.338,0,0,0,17.9-8.549a.4.4,0,0,1-.434.417,1.427,1.427,0,0,1-.95-.488,1.548,1.548,0,0,1-.512-1.145,2.3,2.3,0,0,1,.033-.367c-1.066,1.309-2.011,1.949-2.87,1.949a1.471,1.471,0,0,1-1.131-.421A1.705,1.705,0,0,1,11.656-9.8a5.959,5.959,0,0,1,.808-2.7,8.953,8.953,0,0,1,2.157-2.659A4.322,4.322,0,0,1,17.382-16.33Zm.943,1.963-.041-.64a.78.78,0,0,0-.9-.832,3.852,3.852,0,0,0-2.445,1.055A8.464,8.464,0,0,0,12.9-12.271,5.489,5.489,0,0,0,12.147-9.8c0,.777.315,1.124,1.021,1.124.891,0,2-.967,3.308-2.873l.432.228A4.9,4.9,0,0,0,16.5-9.765a1.06,1.06,0,0,0,.361.79,1.132,1.132,0,0,0,.553.346,9,9,0,0,1,1.007-3.142,16.16,16.16,0,0,1,1.907-3.253l.01-.012a1.026,1.026,0,0,0-.3-.352.932.932,0,0,0-.551-.28c-.04.017-.234.126-.763.8Zm23.289-1.946a1.727,1.727,0,0,1,1.435.651,2.5,2.5,0,0,1,.489,1.582,5.368,5.368,0,0,1-.785,2.578A8.031,8.031,0,0,1,40.7-9.11,4.223,4.223,0,0,1,38.1-8.081a2.263,2.263,0,0,1-1.682-.63A2.311,2.311,0,0,1,35.8-10.4a4.981,4.981,0,0,1,.815-2.559,7.839,7.839,0,0,1,1.91-2.174A3.626,3.626,0,0,1,40.539-16,1.838,1.838,0,0,1,41.614-16.313ZM38.1-8.573A3.751,3.751,0,0,0,40.392-9.5a7.542,7.542,0,0,0,1.933-2.247,4.893,4.893,0,0,0,.722-2.337,2.02,2.02,0,0,0-.384-1.278,1.243,1.243,0,0,0-1.048-.463,1.314,1.314,0,0,0-.842.256l-.067.052h-.1a3.088,3.088,0,0,0-1.777.771A7.35,7.35,0,0,0,37.038-12.7a4.5,4.5,0,0,0-.744,2.3,1.816,1.816,0,0,0,.477,1.343A1.769,1.769,0,0,0,38.1-8.573ZM17.536-15.337a.669.669,0,0,1,.512.266.89.89,0,0,1,.213.6,1.038,1.038,0,0,1-.024.248l-.011.042-.356.524c-2.54,3.407-3.291,3.866-3.691,3.866-.226,0-.468-.141-.468-.537a4.348,4.348,0,0,1,.646-1.795,10.815,10.815,0,0,1,1.533-2.164C16.533-14.994,17.071-15.337,17.536-15.337Zm.23.956a.889.889,0,0,0,0-.094.4.4,0,0,0-.095-.277c-.037-.043-.091-.094-.139-.094-.216,0-.614.154-1.283.887a10.324,10.324,0,0,0-1.464,2.066,3.846,3.846,0,0,0-.587,1.562.384.384,0,0,0,0,.041c.079-.021.347-.143,1.01-.859.573-.618,1.332-1.56,2.258-2.8ZM41.1-15.314l.081.015c.264.048.579.257.579.978a5.008,5.008,0,0,1-.563,2.04A9.224,9.224,0,0,1,39.91-10.24c-.528.623-.973.926-1.361.926-.218,0-.725-.092-.725-.948v-.008a5.987,5.987,0,0,1,1.056-2.8,5.778,5.778,0,0,1,2.145-2.205ZM38.549-9.806c.13,0,.431-.1.986-.752A8.735,8.735,0,0,0,40.75-12.49a4.544,4.544,0,0,0,.516-1.831.679.679,0,0,0-.116-.467A5.5,5.5,0,0,0,39.3-12.812a5.542,5.542,0,0,0-.982,2.554C38.316-9.806,38.467-9.806,38.549-9.806Zm8.278-4.685v1.078a11.753,11.753,0,0,1-.453,2.923A14.8,14.8,0,0,1,45.258-7.5c-.491.949-.936,1.392-1.4,1.392a.44.44,0,0,1-.434-.5,9.275,9.275,0,0,1,.884-2.87,41.555,41.555,0,0,1,2.059-4.186Zm-2.911,7.88c.148-.038.451-.238.906-1.118A14.313,14.313,0,0,0,45.9-10.616a14.066,14.066,0,0,0,.374-1.853c-.565,1.069-1.072,2.133-1.511,3.176a8.6,8.6,0,0,0-.846,2.679S43.915-6.612,43.915-6.611Z" transform="translate(-0.49 19.55)" fill="#1b4541"/>
    </g>
  </g>
</svg>
