<svg xmlns="http://www.w3.org/2000/svg" width="25" height="25" viewBox="0 0 25 25">
  <g id="Group_13765" data-name="Group 13765" transform="translate(-874.666 -161.5)">
    <path id="Rectangle_1142" data-name="Rectangle 1142" d="M8,0H25a0,0,0,0,1,0,0V25a0,0,0,0,1,0,0H0a0,0,0,0,1,0,0V8A8,8,0,0,1,8,0Z" transform="translate(874.666 161.5)" fill="#ff7a07"/>
    <path id="star" d="M12.17,5.816a.881.881,0,0,0-.489-1.5L9.058,3.934a.128.128,0,0,1-.1-.07L7.791,1.487a.88.88,0,0,0-1.579,0L5.037,3.865a.127.127,0,0,1-.1.07l-2.623.381a.88.88,0,0,0-.488,1.5l1.9,1.85a.127.127,0,0,1,.038.113l-.448,2.612A.88.88,0,0,0,4.6,11.32l2.346-1.234a.125.125,0,0,1,.118,0l2.347,1.233a.88.88,0,0,0,1.277-.928l-.448-2.612a.128.128,0,0,1,.038-.113Z" transform="translate(880.491 167.283)" fill="#fff"/>
  </g>
</svg>
