<svg id="Group_13618" data-name="Group 13618" xmlns="http://www.w3.org/2000/svg" width="16.539" height="14.426" viewBox="0 0 16.539 14.426">
  <path id="Path_10174" data-name="Path 10174" d="M13.459,0H3.079A2.906,2.906,0,0,0,0,2.686v7.453a2.906,2.906,0,0,0,3.079,2.686H6.234L7.927,14.3a.536.536,0,0,0,.685,0L10.3,12.825h3.154a2.906,2.906,0,0,0,3.079-2.686V2.686A2.906,2.906,0,0,0,13.459,0Z" fill="#1b4541"/>
  <g id="Group_13617" data-name="Group 13617" transform="translate(1.732 3.093)">
    <path id="Path_10176" data-name="Path 10176" d="M-68.722-34.666h.862v2.253h.686v-2.253h.862V-35.2h-2.411Zm3.482,1.254a.383.383,0,0,1,.431-.384.376.376,0,0,1,.4.376v1.007h.644V-33.44a.8.8,0,0,0-.867-.9.658.658,0,0,0-.607.336v-1.322h-.644v2.916h.644Zm3.644,1h.64V-34.3h-.64v.21a.877.877,0,0,0-.631-.251,1.044,1.044,0,0,0-1.1.983,1.044,1.044,0,0,0,1.1.983.905.905,0,0,0,.631-.251Zm-1.066-.946a.5.5,0,0,1,.542-.449.485.485,0,0,1,.524.449.483.483,0,0,1-.524.449A.5.5,0,0,1-62.663-33.36Zm2.944-.053a.348.348,0,0,1,.4-.384.344.344,0,0,1,.376.376v1.007h.644v-1.128a.72.72,0,0,0-.793-.8.741.741,0,0,0-.626.315V-34.3h-.644v1.889h.644Zm2.629.251.723.748h.793l-1.08-1.055.9-.833h-.821l-.515.518v-1.545h-.64v2.916h.64Z" transform="translate(68.722 35.329)" fill="#fff"/>
    <path id="Path_10175" data-name="Path 10175" d="M-39.873-30.975v-1.254l1.238-1.533h-.807l-.779,1.043-.77-1.043H-41.8l1.233,1.525v1.262Zm1.989-.518a.45.45,0,0,1-.487-.433.449.449,0,0,1,.487-.429.448.448,0,0,1,.491.429A.449.449,0,0,1-37.884-31.492Zm0,.55a1.035,1.035,0,0,0,1.127-.983,1.029,1.029,0,0,0-1.127-.979,1.023,1.023,0,0,0-1.122.979A1.028,1.028,0,0,0-37.884-30.942Zm2.986-.922a.353.353,0,0,1-.389.384.357.357,0,0,1-.385-.376v-1.007h-.644v1.128a.769.769,0,0,0,.858.8.677.677,0,0,0,.561-.3v.259h.644v-1.889H-34.9Z" transform="translate(44.636 37.934)" fill="#fff"/>
  </g>
</svg>
