<svg id="Group_13628" data-name="Group 13628" xmlns="http://www.w3.org/2000/svg" width="99.507" height="42.807" viewBox="0 0 99.507 42.807">
  <g id="trust_pilot" data-name="trust pilot" transform="translate(0)">
    <path id="Path_560" data-name="Path 560" d="M297.609,98.6h9.915v1.85h-3.9v10.4h-2.144v-10.4H297.6V98.6Zm9.491,3.38h1.833v1.712h.035a2.012,2.012,0,0,1,.337-.7,3.118,3.118,0,0,1,.6-.622,3.179,3.179,0,0,1,.778-.458,2.38,2.38,0,0,1,.873-.173c.225,0,.389.009.475.017s.173.026.268.035v1.884c-.138-.026-.277-.043-.424-.061a3.589,3.589,0,0,0-.424-.026,2.291,2.291,0,0,0-.934.2,2.151,2.151,0,0,0-.761.579,2.941,2.941,0,0,0-.519.951,4.03,4.03,0,0,0-.19,1.305v4.218h-1.954v-8.86Zm14.177,8.869h-1.919v-1.236h-.035a2.665,2.665,0,0,1-1.072,1.072,2.932,2.932,0,0,1-1.452.406,3.252,3.252,0,0,1-2.533-.864,3.823,3.823,0,0,1-.778-2.619V101.98h1.954v5.437a2.388,2.388,0,0,0,.45,1.651,1.628,1.628,0,0,0,1.253.484,2.4,2.4,0,0,0,1.029-.19,1.735,1.735,0,0,0,.666-.51,1.957,1.957,0,0,0,.372-.761,3.746,3.746,0,0,0,.112-.96v-5.143h1.954ZM324.6,108a1.5,1.5,0,0,0,.648,1.2,2.616,2.616,0,0,0,1.357.346,5.8,5.8,0,0,0,.622-.043,2.613,2.613,0,0,0,.657-.164,1.263,1.263,0,0,0,.51-.354.86.86,0,0,0,.182-.605.835.835,0,0,0-.277-.614,1.947,1.947,0,0,0-.657-.389,6.592,6.592,0,0,0-.916-.251c-.346-.069-.692-.147-1.046-.225a9.927,9.927,0,0,1-1.055-.294,3.22,3.22,0,0,1-.908-.467,2.053,2.053,0,0,1-.64-.743,2.324,2.324,0,0,1-.242-1.124,2.026,2.026,0,0,1,.354-1.21,2.687,2.687,0,0,1,.89-.787,4.126,4.126,0,0,1,1.2-.424,7.316,7.316,0,0,1,1.262-.121,5.884,5.884,0,0,1,1.314.147,3.387,3.387,0,0,1,1.132.475,2.8,2.8,0,0,1,.839.847,2.949,2.949,0,0,1,.424,1.262h-2.04a1.217,1.217,0,0,0-.64-.942,2.62,2.62,0,0,0-1.158-.242,3.638,3.638,0,0,0-.493.035,2.7,2.7,0,0,0-.536.13,1.162,1.162,0,0,0-.424.277.668.668,0,0,0-.173.475.739.739,0,0,0,.251.579,2.1,2.1,0,0,0,.648.372,6.6,6.6,0,0,0,.916.251c.346.069.7.147,1.063.225s.7.182,1.046.294a3.157,3.157,0,0,1,.916.467,2.3,2.3,0,0,1,.648.735,2.241,2.241,0,0,1,.251,1.1,2.388,2.388,0,0,1-.363,1.34,2.873,2.873,0,0,1-.934.89,4.389,4.389,0,0,1-1.279.5,6.419,6.419,0,0,1-1.392.156,5.9,5.9,0,0,1-1.556-.19,3.788,3.788,0,0,1-1.236-.571,2.829,2.829,0,0,1-.821-.96,3.151,3.151,0,0,1-.32-1.366H324.6Zm6.449-6.025h1.478V99.317h1.954v2.662h1.763v1.461h-1.763v4.737a4.828,4.828,0,0,0,.026.536.986.986,0,0,0,.121.38.554.554,0,0,0,.285.233,1.393,1.393,0,0,0,.519.078c.138,0,.277,0,.415-.009a2.289,2.289,0,0,0,.415-.061v1.513c-.216.026-.432.043-.631.069a5.055,5.055,0,0,1-.631.035,4.373,4.373,0,0,1-1.245-.147,1.615,1.615,0,0,1-.735-.432,1.5,1.5,0,0,1-.363-.709,5.328,5.328,0,0,1-.112-.977v-5.23h-1.478V101.98Zm6.578,0h1.85v1.2h.035a2.413,2.413,0,0,1,1.15-1.106,3.788,3.788,0,0,1,1.6-.337,4.14,4.14,0,0,1,1.824.372,3.565,3.565,0,0,1,1.3,1.011,4.427,4.427,0,0,1,.769,1.5,6.3,6.3,0,0,1,.259,1.833,6.369,6.369,0,0,1-.233,1.729,4.626,4.626,0,0,1-.7,1.487,3.438,3.438,0,0,1-1.193,1.029,3.538,3.538,0,0,1-1.7.389,4.775,4.775,0,0,1-.856-.078,3.766,3.766,0,0,1-.821-.251,2.965,2.965,0,0,1-.726-.441,2.739,2.739,0,0,1-.562-.622h-.035v4.426h-1.954Zm6.829,4.443a4.415,4.415,0,0,0-.156-1.167,3.147,3.147,0,0,0-.467-1,2.379,2.379,0,0,0-.769-.7,2.375,2.375,0,0,0-2.922.588,3.8,3.8,0,0,0-.622,2.282,4.381,4.381,0,0,0,.164,1.245,2.78,2.78,0,0,0,.493.985,2.333,2.333,0,0,0,.778.648,2.438,2.438,0,0,0,2.187-.035,2.391,2.391,0,0,0,.761-.709,2.946,2.946,0,0,0,.432-.994,5.56,5.56,0,0,0,.121-1.141ZM347.91,98.6h1.954v1.85H347.91V98.6Zm0,3.38h1.954v8.869H347.91V101.98Zm3.7-3.38h1.954v12.249h-1.954V98.6Zm7.944,12.491a4.831,4.831,0,0,1-1.893-.354,3.967,3.967,0,0,1-2.282-2.446,5.705,5.705,0,0,1-.3-1.884,5.638,5.638,0,0,1,.3-1.867,4.216,4.216,0,0,1,.873-1.478,3.981,3.981,0,0,1,1.409-.968,5.233,5.233,0,0,1,3.786,0,3.967,3.967,0,0,1,2.282,2.446,5.638,5.638,0,0,1,.3,1.867,5.705,5.705,0,0,1-.3,1.884,4.215,4.215,0,0,1-.873,1.478,3.981,3.981,0,0,1-1.409.968A4.831,4.831,0,0,1,359.554,111.091Zm0-1.547a2.265,2.265,0,0,0,1.132-.277,2.41,2.41,0,0,0,.787-.717,3.221,3.221,0,0,0,.458-1,4.47,4.47,0,0,0,0-2.273,2.958,2.958,0,0,0-.458-1,2.385,2.385,0,0,0-.787-.709,2.456,2.456,0,0,0-2.265,0,2.482,2.482,0,0,0-.787.709,3.133,3.133,0,0,0-.458,1,4.471,4.471,0,0,0,0,2.273,3.034,3.034,0,0,0,.458,1,2.409,2.409,0,0,0,.787.717A2.178,2.178,0,0,0,359.554,109.544Zm5.048-7.564h1.478V99.317h1.954v2.662H369.8v1.461h-1.763v4.737a4.828,4.828,0,0,0,.026.536.985.985,0,0,0,.121.38.555.555,0,0,0,.285.233,1.393,1.393,0,0,0,.519.078c.138,0,.277,0,.415-.009a2.289,2.289,0,0,0,.415-.061v1.513c-.216.026-.432.043-.631.069a5.054,5.054,0,0,1-.631.035,4.373,4.373,0,0,1-1.245-.147,1.615,1.615,0,0,1-.735-.432,1.5,1.5,0,0,1-.363-.709,5.331,5.331,0,0,1-.112-.977v-5.23h-1.478V101.98Z" transform="translate(-271.875 -90.077)" fill="#005128"/>
    <path id="Path_561" data-name="Path 561" d="M23.452,8.523H14.5L11.73,0,8.955,8.523,0,8.515l7.253,5.273L4.478,22.3l7.253-5.264L18.974,22.3l-2.766-8.515Z" fill="#00b67a"/>
    <path id="Path_562" data-name="Path 562" d="M140.8,161.428l-.622-1.928-4.478,3.25Z" transform="translate(-123.97 -145.712)" fill="#005128"/>
  </g>
  <g id="Group_628" data-name="Group 628" transform="translate(27.86 32.31)">
    <path id="Icon_ionic-ios-star" data-name="Icon ionic-ios-star" d="M13.1,7H9.4L8.27,3.642a.408.408,0,0,0-.765,0L6.38,7H2.653a.4.4,0,0,0-.4.4.3.3,0,0,0,.008.068.387.387,0,0,0,.169.284L5.469,9.9,4.3,13.294a.4.4,0,0,0,.138.453.389.389,0,0,0,.227.1.493.493,0,0,0,.252-.091l2.97-2.117,2.97,2.117a.472.472,0,0,0,.252.091.362.362,0,0,0,.224-.1.4.4,0,0,0,.138-.453L10.3,9.9l3.018-2.164.073-.063A.385.385,0,0,0,13.1,7Z" transform="translate(-2.25 -3.375)" fill="#ffba00"/>
    <path id="Icon_ionic-ios-star-2" data-name="Icon ionic-ios-star" d="M13.1,7H9.4L8.27,3.642a.408.408,0,0,0-.765,0L6.38,7H2.653a.4.4,0,0,0-.4.4.3.3,0,0,0,.008.068.387.387,0,0,0,.169.284L5.469,9.9,4.3,13.294a.4.4,0,0,0,.138.453.389.389,0,0,0,.227.1.493.493,0,0,0,.252-.091l2.97-2.117,2.97,2.117a.472.472,0,0,0,.252.091.362.362,0,0,0,.224-.1.4.4,0,0,0,.138-.453L10.3,9.9l3.018-2.164.073-.063A.385.385,0,0,0,13.1,7Z" transform="translate(12.952 -3.375)" fill="#ffba00"/>
    <path id="Icon_ionic-ios-star-3" data-name="Icon ionic-ios-star" d="M13.1,7H9.4L8.27,3.642a.408.408,0,0,0-.765,0L6.38,7H2.653a.4.4,0,0,0-.4.4.3.3,0,0,0,.008.068.387.387,0,0,0,.169.284L5.469,9.9,4.3,13.294a.4.4,0,0,0,.138.453.389.389,0,0,0,.227.1.493.493,0,0,0,.252-.091l2.97-2.117,2.97,2.117a.472.472,0,0,0,.252.091.362.362,0,0,0,.224-.1.4.4,0,0,0,.138-.453L10.3,9.9l3.018-2.164.073-.063A.385.385,0,0,0,13.1,7Z" transform="translate(28.153 -3.375)" fill="#ffba00"/>
    <path id="Icon_ionic-ios-star-4" data-name="Icon ionic-ios-star" d="M13.1,7H9.4L8.27,3.642a.408.408,0,0,0-.765,0L6.38,7H2.653a.4.4,0,0,0-.4.4.3.3,0,0,0,.008.068.387.387,0,0,0,.169.284L5.469,9.9,4.3,13.294a.4.4,0,0,0,.138.453.389.389,0,0,0,.227.1.493.493,0,0,0,.252-.091l2.97-2.117,2.97,2.117a.472.472,0,0,0,.252.091.362.362,0,0,0,.224-.1.4.4,0,0,0,.138-.453L10.3,9.9l3.018-2.164.073-.063A.385.385,0,0,0,13.1,7Z" transform="translate(42.921 -3.375)" fill="#ffba00"/>
    <path id="Icon_ionic-ios-star-5" data-name="Icon ionic-ios-star" d="M13.1,7H9.4L8.27,3.642a.408.408,0,0,0-.765,0L6.38,7H2.653a.4.4,0,0,0-.4.4.3.3,0,0,0,.008.068.387.387,0,0,0,.169.284L5.469,9.9,4.3,13.294a.4.4,0,0,0,.138.453.389.389,0,0,0,.227.1.493.493,0,0,0,.252-.091l2.97-2.117,2.97,2.117a.472.472,0,0,0,.252.091.362.362,0,0,0,.224-.1.4.4,0,0,0,.138-.453L10.3,9.9l3.018-2.164.073-.063A.385.385,0,0,0,13.1,7Z" transform="translate(58.122 -3.375)" fill="#ffba00"/>
  </g>
  <path id="Path_10180" data-name="Path 10180" d="M3.013-4.948l1.73-2.893v2.893ZM7.921-3.275V-4.948H6.743V-10.48h-2.1L.3-3.275H4.743V-1.19h2V-3.275Zm1.4,1.035a1.187,1.187,0,0,0,1.22,1.191,1.2,1.2,0,0,0,1.234-1.191,1.2,1.2,0,0,0-1.234-1.177A1.184,1.184,0,0,0,9.325-2.239ZM13.14-10.48v1.83h3.929L13.793-1.19h2.255l4.1-9.29Z" transform="translate(-0.035 43.855)"/>
</svg>
