<svg xmlns="http://www.w3.org/2000/svg" xmlns:xlink="http://www.w3.org/1999/xlink" width="28" height="28" viewBox="0 0 28 28">
  <defs>
    <clipPath id="clip-path">
      <rect id="Rectangle_359" data-name="Rectangle 359" width="18" height="18" transform="translate(-0.237 -0.031)" fill="#fff"/>
    </clipPath>
  </defs>
  <g id="Group_10859" data-name="Group 10859" transform="translate(-1069 -4909)">
    <rect id="Rectangle_1052" data-name="Rectangle 1052" width="28" height="28" rx="5" transform="translate(1069 4909)" fill="#ff7a07"/>
    <g id="Mask_Group_37" data-name="Mask Group 37" transform="translate(1074.237 4914.031)" clip-path="url(#clip-path)">
      <g id="Group_10857" data-name="Group 10857" transform="translate(-0.237 1.645)">
        <path id="_x30_4.Twitter" d="M27.9,19.233a7.57,7.57,0,0,1-2.115.585A3.6,3.6,0,0,0,27.4,17.77a7.771,7.771,0,0,1-2.34.9,3.693,3.693,0,0,0-6.39,2.52,3.374,3.374,0,0,0,.09.833,10.387,10.387,0,0,1-7.583-3.848A3.7,3.7,0,0,0,12.307,23.1a3.543,3.543,0,0,1-1.665-.45A3.729,3.729,0,0,0,13.59,26.32a4.05,4.05,0,0,1-1.665.067,3.705,3.705,0,0,0,3.442,2.565A7.434,7.434,0,0,1,9.9,30.483a10.485,10.485,0,0,0,16.155-8.82,3.323,3.323,0,0,0-.023-.472A7.324,7.324,0,0,0,27.9,19.233Z" transform="translate(-9.9 -17.5)" fill="#fff"/>
      </g>
    </g>
  </g>
</svg>
