<svg xmlns="http://www.w3.org/2000/svg" width="13.056" height="13.056" viewBox="0 0 13.056 13.056">
  <path id="Icon_awesome-twitter-square" data-name="Icon awesome-twitter-square" d="M11.657,2.25H1.4A1.4,1.4,0,0,0,0,3.649V13.907a1.4,1.4,0,0,0,1.4,1.4H11.657a1.4,1.4,0,0,0,1.4-1.4V3.649A1.4,1.4,0,0,0,11.657,2.25ZM10.232,6.878c.006.082.006.166.006.248A5.4,5.4,0,0,1,4.8,12.564a5.413,5.413,0,0,1-2.935-.857,4.027,4.027,0,0,0,.46.023A3.832,3.832,0,0,0,4.7,10.914,1.914,1.914,0,0,1,2.911,9.588a2.06,2.06,0,0,0,.863-.035,1.911,1.911,0,0,1-1.53-1.877V7.653a1.91,1.91,0,0,0,.863.242A1.907,1.907,0,0,1,2.256,6.3a1.887,1.887,0,0,1,.259-.965,5.427,5.427,0,0,0,3.94,2A1.915,1.915,0,0,1,9.716,5.593a3.745,3.745,0,0,0,1.212-.46,1.906,1.906,0,0,1-.839,1.052,3.8,3.8,0,0,0,1.1-.3A4.023,4.023,0,0,1,10.232,6.878Z" transform="translate(0 -2.25)" fill="#1b4541"/>
</svg>
