<svg xmlns="http://www.w3.org/2000/svg" width="50" height="50" viewBox="0 0 50 50">
  <g id="Group_13767" data-name="Group 13767" transform="translate(-933 -1654)">
    <path id="Rectangle_973" data-name="Rectangle 973" d="M0,0H39A11,11,0,0,1,50,11V39A11,11,0,0,1,39,50H11A11,11,0,0,1,0,39V0A0,0,0,0,1,0,0Z" transform="translate(933 1654)" fill="#1b4541"/>
    <g id="a-plus-test-result-of-school" transform="translate(944 1662.557)">
      <g id="Group_10658" data-name="Group 10658">
        <path id="Path_5220" data-name="Path 5220" d="M7.965,4.084A1.508,1.508,0,0,0,6.523,5.151L.066,26.276a1.505,1.505,0,0,0,1.441,1.946H3.982a1.507,1.507,0,0,0,1.453-1.1l1.414-5.1h6.913L15.3,27.153a1.505,1.505,0,0,0,1.444,1.074h2.707A1.507,1.507,0,0,0,20.9,26.272L14.342,5.145A1.508,1.508,0,0,0,12.9,4.084Zm-.329,13.83s1.406-5.354,2.147-8.2a.432.432,0,0,1,.833-.01l2.358,8.21Z" fill="#fff"/>
        <path id="Path_5221" data-name="Path 5221" d="M27,8.374V4.366a.923.923,0,0,0-.924-.923h-1.61a.923.923,0,0,0-.923.923V8.374H19.788a.922.922,0,0,0-.923.923V10.78a.922.922,0,0,0,.923.923h3.751V15.71a.922.922,0,0,0,.923.922h1.61A.923.923,0,0,0,27,15.71V11.7h3.751a.923.923,0,0,0,.923-.923V9.3a.923.923,0,0,0-.923-.923Z" fill="#fff"/>
      </g>
    </g>
  </g>
</svg>
